<?xml version="1.0" encoding="UTF-8"?>
<!DOCTYPE svg PUBLIC "-//W3C//DTD SVG 1.1//EN" "http://www.w3.org/Graphics/SVG/1.1/DTD/svg11.dtd">
<!-- Creator: CorelDRAW -->
<svg xmlns="http://www.w3.org/2000/svg" xml:space="preserve" width="69.4819mm" height="72.0833mm" version="1.1" style="shape-rendering:geometricPrecision; text-rendering:geometricPrecision; image-rendering:optimizeQuality; fill-rule:evenodd; clip-rule:evenodd"
viewBox="0 0 413.67 429.15"
 xmlns:xlink="http://www.w3.org/1999/xlink"
 xmlns:xodm="http://www.corel.com/coreldraw/odm/2003">
 <defs>
  <style type="text/css">
   <![CDATA[
    .fil0 {fill:black;fill-rule:nonzero}
    .fil1 {fill:#E88EA0;fill-rule:nonzero}
   ]]>
  </style>
 </defs>
 <g id="Camada_x0020_1">
  <metadata id="CorelCorpID_0Corel-Layer"/>
  <g id="_1890199131712">
   <path class="fil0" d="M86.12 182.63c-0.08,-0.59 -0.84,-0.75 -1.15,-0.27l-5.37 8.06c-0.5,0.75 -1.41,1.15 -2.31,1.01 -5.39,-0.88 -10.91,-2.47 -16.53,-4.76 -20.75,-8.43 -44.97,-22.09 -60.05,-39.31 -0.75,-0.88 -0.92,-2.14 -0.42,-3.19 15.17,-30.77 32.18,-60.81 50.99,-90.15 5.43,-8.5 13.51,-14.94 24.21,-19.3 29.14,-11.89 54.58,-23.12 76.33,-33.67 1.01,-0.48 2.18,-0.5 3.21,-0.04 33.08,15.04 72.03,15.73 104.69,-0.69 0.86,-0.44 1.89,-0.4 2.75,0.08 6.88,3.94 14.3,7.61 22.28,11.03 24.27,10.42 44.2,18.96 59.8,25.61 3.75,1.59 8.01,5.06 12.77,10.38 5.77,6.42 12.84,16.65 21.21,30.71 12.25,20.56 23.68,41.95 34.3,64.21 1.53,3.19 0.99,5.83 -1.59,7.95 -23.14,18.92 -42.98,33.37 -70.54,40.94 -1.83,0.5 -3.8,-0.08 -5.06,-1.53l-6.46 -7.38c-0.44,-0.52 -1.3,-0.29 -1.43,0.4 -0.82,5.01 -1.57,8.62 -2.24,10.82 -9.1,30.14 -17.35,63.33 -11.62,93.36 2.2,11.45 5.77,25.74 10.72,42.85 4.26,14.68 7.07,25.99 8.47,33.92 3.71,20.89 5.68,32.41 5.91,34.53 0.48,4.32 0.67,7.11 0.57,8.35 -0.19,2.14 -1.55,4.01 -3.57,4.82 -7.91,3.19 -15.94,5.58 -24.1,7.15 -23.87,4.57 -48.39,7.76 -73.56,9.59 -43.46,3.15 -88.69,-1.09 -130.83,-8.66 -10.97,-1.95 -20.98,-4.59 -30.04,-7.91 -1.95,-0.71 -3.25,-2.6 -3.21,-4.68 0.04,-3.31 0.61,-8.52 1.72,-15.63 4.68,-30.12 11.81,-61.42 21.42,-93.91 4.91,-16.63 6.06,-33.48 3.46,-50.55 -2.01,-13.21 -4.68,-27.29 -9.04,-41.3 -3,-9.63 -4.89,-17.24 -5.68,-22.84zm121.34 -151.53c14.12,0 29.3,-2.47 45.54,-7.45 1.01,-0.31 1.8,-1.03 2.18,-1.99 0.73,-1.76 1.11,-3.75 1.13,-5.96 0.02,-0.67 -0.65,-1.17 -1.3,-0.94 -16.49,5.89 -32.34,8.83 -47.55,8.83 -15.21,-0.02 -31.06,-3 -47.53,-8.91 -0.65,-0.23 -1.32,0.25 -1.3,0.92 0.02,2.22 0.4,4.19 1.11,5.96 0.4,0.96 1.2,1.7 2.18,2.01 16.23,4.99 31.4,7.51 45.54,7.53zm-62.19 -15.73l-3.4 2.16c-1.32,0.84 -2.03,2.35 -1.82,3.9 4.45,35.64 19.65,65.84 45.62,90.64 5.29,5.06 10.76,9.75 16.42,14.05 2.08,1.57 4.82,1.93 7.24,0.92 2.16,-0.9 4.34,-2.2 6.52,-3.9 32.41,-25.13 51.91,-58.92 58.56,-101.35 0.23,-1.53 -0.48,-3.04 -1.8,-3.8l-4.93 -2.85c-1.28,-0.73 -2.87,0.15 -2.92,1.61 -0.92,36.79 -26.24,75.79 -54.91,98.19 -1.7,1.34 -4.03,1.53 -5.91,0.5 -5.14,-2.79 -9.67,-6.31 -13.59,-10.55 -23.12,-24.98 -37.27,-54.43 -42.48,-88.35 -0.19,-1.22 -1.57,-1.85 -2.6,-1.17zm-37.13 197.82c-0.94,-0.23 -1.82,0.57 -1.68,1.53 1.72,10.95 3.36,21.75 4.93,32.43 1.85,12.67 2.47,25.28 1.28,35.41 -0.71,6.13 -4.15,19.13 -6.99,27.31 -4.43,12.77 -7.95,26.3 -10.53,40.55 -1.26,6.9 -2.45,12.67 -3.59,17.35 -3.33,13.57 -5.66,23.79 -5.52,33.69 0.04,1.76 1.2,3.29 2.85,3.8 6.71,2.03 17.26,4.99 26.26,5.39 16.86,0.75 38.8,5.7 55.42,6.67 30.5,1.76 58.38,1.3 83.61,-1.38 24.31,-2.58 48.43,-6.21 72.37,-10.89 1.34,-0.25 2.27,-1.53 2.08,-2.89 -0.02,-0.19 -0.84,-6.25 -2.5,-18.16 -1.89,-13.74 -7.3,-31.78 -9.25,-42.31 -0.52,-2.89 -2.79,-10.91 -6.75,-24.02 -4.7,-15.5 -7.72,-31.72 -9.04,-48.6 -0.48,-6.08 -0.34,-11.83 0.42,-17.26 1.97,-14.22 4.09,-26.47 6.34,-36.77 0.21,-0.97 -0.86,-1.7 -1.68,-1.15 -11.66,7.7 -24.23,9.75 -38.49,6.94 -9.08,-1.78 -20.45,-3.42 -26.7,-9.46 -1.03,-0.99 -1.17,-2.58 -0.34,-3.75 0.82,-1.15 2.37,-1.53 3.65,-0.9 8.66,4.34 17.75,6.86 27.21,7.55 11.54,0.86 27.23,-3.13 35.2,-12.21 11.52,-13.13 12.71,-33.14 11.58,-50.34 -0.21,-3.19 -1.53,-10.07 -3.99,-20.66 -0.15,-0.69 -0.06,-1.43 0.23,-2.06 0.31,-0.63 0.82,-1.22 1.51,-1.76 3.52,-2.79 3.61,-11.79 4.66,-15.86 2.33,-9 4.53,-17.68 6.57,-26.07 3.17,-13.07 8.14,-23.39 13.01,-35.76 0.42,-1.07 -0.06,-2.29 -1.09,-2.79 -17.64,-8.54 -36.6,-16.26 -56.87,-23.2 -0.48,-0.17 -1.01,0.15 -1.09,0.65 -4.13,22.19 -11.7,42.62 -22.76,61.31 -8.75,14.79 -21.9,29.62 -39.46,44.49 -1.41,1.17 -4.93,3.29 -10.61,6.38 -0.67,0.36 -1.45,0.4 -2.14,0.08 -5.47,-2.45 -11.33,-6.38 -17.56,-11.73 -14.77,-12.67 -26.66,-27.35 -35.68,-44.03 -10.05,-18.58 -16.88,-37.51 -20.49,-56.76 -0.13,-0.61 -0.78,-0.96 -1.34,-0.71l-54.96 23.74c-1.24,0.55 -1.8,1.99 -1.26,3.23 10.51,23.35 17.54,47.45 21.12,72.32 0.38,2.62 1.34,4.51 3.86,4.97 1.59,0.27 2.52,2.01 1.89,3.54 -11.29,27.06 -12.29,59.91 14.66,77.99 15.96,10.72 37.21,6.42 53.82,-1.66 1.05,-0.5 2.31,-0.04 2.77,1.03l0.25 0.59c0.61,1.41 0.06,3.04 -1.28,3.78 -17.58,9.67 -35.64,11.26 -54.2,4.74 -3.59,-1.26 -7.51,-3.75 -9.71,-4.3zm143.45 -183.62c-3.94,2.35 -8.2,3.96 -12.77,4.82 -25.23,4.76 -50.76,2.66 -75.83,-1.59 -0.61,-0.1 -1.11,0.44 -0.97,1.03 6.73,27.27 20.49,50.3 41.28,69.11 1.66,1.51 4.17,1.62 5.98,0.25 3.82,-2.87 7.82,-6.65 12,-11.31 15.58,-17.35 26.28,-37.69 32.09,-61 0.25,-1.05 -0.86,-1.87 -1.78,-1.32zm-185.26 21.88c-0.61,0.36 -1.32,1.17 -2.12,2.43 -7.66,12.06 -15.1,23.91 -22.3,35.6 -10.26,16.57 -20.26,37.17 -27.41,52.17 -1.28,2.66 -0.65,4.87 1.85,6.61 10.28,7.11 16.17,11.29 17.68,12.48 11.94,9.46 24.35,14.79 38.41,18.19 1.66,0.4 3.38,-0.23 4.36,-1.62l7.47 -10.43c0.11,-0.13 0.17,-0.27 0.19,-0.44l6.75 -32.03c0.34,-1.59 0.36,-3.23 0.04,-4.85 -2.5,-13.09 -5.85,-27.54 -10.07,-43.36 -3.06,-11.56 -8.45,-22.42 -12.17,-33.73 -0.38,-1.11 -1.66,-1.61 -2.69,-1.03zm281.79 1.07c-0.92,-0.52 -2.08,-0.13 -2.5,0.86 -3.25,7.78 -7.05,17.7 -11.43,29.76 -4.38,12.02 -7.57,27.71 -9.52,47.07 -0.44,4.34 0.29,9.67 2.2,16.03 0.23,0.78 0.38,1.55 0.42,2.35 0.69,11.08 4.62,20.62 11.81,28.63 1.07,1.2 2.75,1.68 4.28,1.2 20.7,-6.27 39.37,-16.84 55.96,-31.69 1.41,-1.26 1.76,-3.31 0.86,-4.97 -5.35,-9.9 -10.42,-21.29 -15.96,-30.79 -3.88,-6.67 -10.01,-17.77 -18.38,-33.31 -4.93,-9.17 -10.13,-16.95 -15.58,-23.3 -0.69,-0.78 -1.41,-1.38 -2.16,-1.82z"/>
   <path class="fil1" d="M207.46 23.59c15.21,0 31.07,-2.94 47.55,-8.83 0.65,-0.23 1.32,0.27 1.3,0.94 -0.02,2.2 -0.4,4.19 -1.13,5.96 -0.38,0.97 -1.17,1.68 -2.18,1.99 -16.23,4.97 -31.42,7.45 -45.54,7.45 -14.14,-0.02 -29.3,-2.54 -45.54,-7.53 -0.99,-0.31 -1.78,-1.05 -2.18,-2.01 -0.71,-1.76 -1.09,-3.73 -1.11,-5.96 -0.02,-0.67 0.65,-1.15 1.3,-0.92 16.47,5.91 32.32,8.89 47.53,8.91zm140.66 28.93c0.75,0.44 1.47,1.05 2.16,1.82 5.45,6.36 10.66,14.14 15.58,23.3 8.37,15.54 14.49,26.64 18.38,33.31 5.54,9.5 10.61,20.89 15.96,30.79 0.9,1.66 0.55,3.71 -0.86,4.97 -16.59,14.85 -35.26,25.42 -55.96,31.69 -1.53,0.48 -3.21,0 -4.28,-1.2 -7.19,-8.01 -11.12,-17.56 -11.81,-28.63 -0.04,-0.8 -0.19,-1.57 -0.42,-2.35 -1.91,-6.36 -2.64,-11.68 -2.2,-16.03 1.95,-19.36 5.14,-35.05 9.52,-47.07 4.38,-12.06 8.18,-21.98 11.43,-29.76 0.42,-0.99 1.57,-1.38 2.5,-0.86zm-281.79 -1.07c1.03,-0.59 2.31,-0.08 2.69,1.03 3.71,11.31 9.1,22.17 12.17,33.73 4.22,15.82 7.57,30.27 10.07,43.36 0.31,1.62 0.29,3.25 -0.04,4.85l-6.75 32.03c-0.02,0.17 -0.08,0.31 -0.19,0.44l-7.47 10.43c-0.99,1.38 -2.71,2.01 -4.36,1.62 -14.05,-3.4 -26.47,-8.73 -38.41,-18.19 -1.51,-1.2 -7.4,-5.37 -17.68,-12.48 -2.5,-1.74 -3.13,-3.94 -1.85,-6.61 7.15,-15 17.16,-35.6 27.41,-52.17 7.19,-11.68 14.64,-23.53 22.3,-35.6 0.8,-1.26 1.51,-2.08 2.12,-2.43zm185.26 -21.88c0.92,-0.55 2.03,0.27 1.78,1.32 -5.81,23.3 -16.51,43.65 -32.09,61 -4.17,4.66 -8.18,8.43 -12,11.31 -1.8,1.36 -4.32,1.26 -5.98,-0.25 -20.79,-18.82 -34.55,-41.85 -41.28,-69.11 -0.15,-0.59 0.36,-1.13 0.97,-1.03 25.07,4.26 50.59,6.36 75.83,1.59 4.57,-0.86 8.83,-2.48 12.77,-4.82zm-143.45 183.62c2.2,0.55 6.12,3.04 9.71,4.3 18.56,6.52 36.62,4.93 54.2,-4.74 1.34,-0.73 1.89,-2.37 1.28,-3.78l-0.25 -0.59c-0.46,-1.07 -1.72,-1.53 -2.77,-1.03 -16.61,8.08 -37.86,12.38 -53.82,1.66 -26.95,-18.08 -25.95,-50.93 -14.66,-77.99 0.63,-1.53 -0.29,-3.27 -1.89,-3.54 -2.52,-0.46 -3.48,-2.35 -3.86,-4.97 -3.59,-24.88 -10.61,-48.98 -21.12,-72.32 -0.55,-1.24 0.02,-2.68 1.26,-3.23l54.96 -23.74c0.57,-0.25 1.22,0.1 1.34,0.71 3.61,19.26 10.45,38.18 20.49,56.76 9.02,16.68 20.91,31.36 35.68,44.03 6.23,5.35 12.08,9.27 17.56,11.73 0.69,0.31 1.47,0.27 2.14,-0.08 5.68,-3.08 9.21,-5.2 10.61,-6.38 17.56,-14.87 30.71,-29.7 39.46,-44.49 11.05,-18.69 18.63,-39.12 22.76,-61.31 0.08,-0.5 0.61,-0.82 1.09,-0.65 20.26,6.94 39.22,14.66 56.87,23.2 1.03,0.5 1.51,1.72 1.09,2.79 -4.87,12.38 -9.84,22.7 -13.01,35.76 -2.03,8.39 -4.24,17.07 -6.57,26.07 -1.05,4.07 -1.13,13.07 -4.66,15.86 -0.69,0.55 -1.2,1.13 -1.51,1.76 -0.29,0.63 -0.38,1.36 -0.23,2.06 2.45,10.59 3.78,17.47 3.99,20.66 1.13,17.2 -0.06,37.21 -11.58,50.34 -7.97,9.08 -23.66,13.07 -35.2,12.21 -9.46,-0.69 -18.54,-3.21 -27.21,-7.55 -1.28,-0.63 -2.83,-0.25 -3.65,0.9 -0.84,1.17 -0.69,2.77 0.34,3.75 6.25,6.04 17.62,7.68 26.7,9.46 14.26,2.81 26.83,0.76 38.49,-6.94 0.82,-0.55 1.89,0.19 1.68,1.15 -2.24,10.3 -4.36,22.55 -6.34,36.77 -0.75,5.43 -0.9,11.18 -0.42,17.26 1.32,16.88 4.34,33.1 9.04,48.6 3.96,13.11 6.23,21.12 6.75,24.02 1.95,10.53 7.36,28.57 9.25,42.31 1.66,11.91 2.47,17.98 2.5,18.16 0.19,1.36 -0.73,2.64 -2.08,2.89 -23.93,4.68 -48.06,8.31 -72.37,10.89 -25.23,2.68 -53.11,3.15 -83.61,1.38 -16.61,-0.97 -38.55,-5.91 -55.42,-6.67 -9,-0.4 -19.55,-3.36 -26.26,-5.39 -1.66,-0.5 -2.81,-2.03 -2.85,-3.8 -0.15,-9.9 2.18,-20.12 5.52,-33.69 1.13,-4.68 2.33,-10.45 3.59,-17.35 2.58,-14.24 6.1,-27.77 10.53,-40.55 2.83,-8.18 6.27,-21.19 6.99,-27.31 1.19,-10.13 0.57,-22.74 -1.28,-35.41 -1.57,-10.68 -3.21,-21.48 -4.93,-32.43 -0.15,-0.97 0.73,-1.76 1.68,-1.53zm39.73 -196.65c5.2,33.92 19.36,63.37 42.48,88.35 3.92,4.24 8.45,7.76 13.59,10.55 1.89,1.03 4.22,0.84 5.91,-0.5 28.67,-22.4 53.99,-61.4 54.91,-98.19 0.04,-1.47 1.64,-2.35 2.92,-1.61l4.93 2.85c1.32,0.76 2.03,2.27 1.8,3.8 -6.65,42.43 -26.16,76.23 -58.56,101.35 -2.18,1.7 -4.36,3 -6.52,3.9 -2.41,1.01 -5.16,0.65 -7.24,-0.92 -5.66,-4.3 -11.14,-9 -16.42,-14.05 -25.97,-24.79 -41.18,-55 -45.62,-90.64 -0.21,-1.55 0.5,-3.06 1.82,-3.9l3.4 -2.16c1.03,-0.67 2.41,-0.04 2.6,1.17z"/>
  </g>
 </g>
</svg>
