<?xml version="1.0" encoding="UTF-8"?>
<!DOCTYPE svg PUBLIC "-//W3C//DTD SVG 1.1//EN" "http://www.w3.org/Graphics/SVG/1.1/DTD/svg11.dtd">
<!-- Creator: CorelDRAW -->
<svg xmlns="http://www.w3.org/2000/svg" xml:space="preserve" width="74.5678mm" height="70.711mm" version="1.1" style="shape-rendering:geometricPrecision; text-rendering:geometricPrecision; image-rendering:optimizeQuality; fill-rule:evenodd; clip-rule:evenodd"
viewBox="0 0 578.02 548.12"
 xmlns:xlink="http://www.w3.org/1999/xlink"
 xmlns:xodm="http://www.corel.com/coreldraw/odm/2003">
 <defs>
  <style type="text/css">
   <![CDATA[
    .fil0 {fill:black;fill-rule:nonzero}
    .fil1 {fill:#E88EA0;fill-rule:nonzero}
   ]]>
  </style>
 </defs>
 <g id="Camada_x0020_1">
  <metadata id="CorelCorpID_0Corel-Layer"/>
  <g id="_1890199164352">
   <path class="fil0" d="M148.01 255.16c-0.34,-0.66 -1.32,-0.56 -1.51,0.16 -15.37,59.95 -31.11,124.59 -47.23,193.88 -2.33,10.03 -5.95,22.44 -10.9,37.2 -0.11,0.34 -0.27,0.69 -0.45,1.03l-6.16 10.66c-0.13,0.21 -0.21,0.45 -0.29,0.71 -1.46,6.38 -3.39,16.14 -5.74,29.31 -1.56,8.68 -6.83,12.01 -15.82,10 -14.98,-3.36 -41.25,-6.59 -57.97,-15.21 -0.77,-0.4 -1.32,-1.11 -1.53,-1.96 -0.5,-1.93 -0.53,-4.55 -0.11,-7.81 1.22,-9.21 2.78,-18.23 4.66,-27.09 0.71,-3.44 0.87,-6.96 0.48,-10.45 -0.87,-7.65 -1.08,-12.86 -0.63,-15.66 9.52,-58.55 20.37,-117.74 32.57,-177.53 6.8,-33.42 17.22,-71.86 23.23,-101.04 3.31,-16.09 7.2,-25.58 11.38,-41.91 7.43,-28.92 15.77,-54.5 30.85,-77.63 7.25,-11.11 15.16,-15.69 28.02,-22.22 7.51,-3.81 13.49,-6.64 17.94,-8.52 29.16,-12.25 52.54,-22.3 70.17,-30.13 2.8,-1.24 6.01,-1.27 8.86,-0.08 40.24,17.01 80.88,16.85 121.89,-0.42 0.69,-0.29 1.45,-0.42 2.2,-0.4 3.04,0.13 6.01,0.82 8.94,2.06 16.85,7.28 39.24,16.64 67.15,28.15 15.11,6.22 26.19,11.67 33.26,16.32 8.12,5.37 15.19,14.16 21.25,26.35 6.98,14.07 13.94,33.12 20.85,57.17 8.92,30.85 18.15,63.13 23.81,91.89 4.02,20.35 8.57,36.75 12.91,59.26 10.45,54.05 16.67,81.33 23.26,121.78 4.87,29.87 7.96,49.63 9.26,59.26 0.21,1.59 0,6.51 -0.64,14.74 -0.13,1.59 -0.03,3.2 0.27,4.79 2.33,12.67 4.21,23.71 5.64,33.15 0.85,5.64 -1.27,9.23 -6.35,10.82 -18.44,5.74 -36.67,10.11 -54.66,13.1 -7.86,1.3 -12.54,-2.04 -14.08,-10.05 -3.15,-16.4 -5.27,-26.88 -6.35,-31.46 -0.29,-1.19 -0.77,-2.33 -1.38,-3.39 -4.74,-7.96 -7.54,-14.08 -8.47,-18.34 -6.85,-31.88 -15.24,-60.27 -23.18,-92.18 -15.58,-62.73 -26.19,-106.65 -31.78,-131.71 -0.11,-0.48 -0.79,-0.48 -0.93,0 -8.99,34.47 -13.23,66.81 -9.34,104.64 0.87,8.6 5.45,27.89 13.7,57.86 6.38,23.23 12.36,50.69 17.89,82.39 1.08,6.16 1.53,12.01 1.35,17.54 -0.11,3.17 -2.01,6.01 -4.92,7.3 -9.39,4.18 -19.84,7.81 -31.3,10.87 -77.89,20.82 -154.96,19.39 -234.73,4.84 -19.26,-3.52 -38.31,-9.31 -55.03,-17.25 -1.43,-0.66 -2.51,-1.9 -2.99,-3.41 -0.93,-2.94 -1.11,-6.3 -0.56,-10.03 6.56,-42.23 15.05,-81.81 25.5,-118.74 7.51,-26.56 9.52,-53.6 6.06,-81.14 -2.22,-17.62 -4.18,-32.04 -5.9,-43.28 -0.5,-3.36 -1.32,-6.09 -2.41,-8.23zm220.84 -235.18l-7.94 -3.33c-1.19,-0.5 -2.54,0.13 -2.88,1.38 -1.9,6.75 -4.05,14.1 -7.99,19.95 -13.55,20.13 -32.14,31.03 -55.8,32.7 -34,2.41 -67.31,-17.91 -71.59,-53.21 -0.26,-2.04 -2.35,-3.28 -4.26,-2.54l-7.65 2.96c-1.85,0.71 -2.8,2.8 -2.14,4.68 8.07,22.41 16.77,38.12 39.08,49.79 26.54,13.86 52.62,14.95 78.31,3.23 22.59,-10.32 36.59,-29.76 44.24,-52.6 0.4,-1.22 -0.21,-2.51 -1.38,-3.02zm-24.16 0.29c0.58,-1.4 -0.77,-2.81 -2.2,-2.3 -20.56,7.38 -41.94,10.37 -64.13,8.94 -13.33,-0.85 -34.92,-1.93 -40.03,-6.22 -1.48,-1.24 -3.57,-1.72 -6.24,-1.48 -2.35,0.21 3.1,7.83 16.4,22.89 7.33,8.28 18.71,13.15 34.18,14.6 30.06,2.86 50.72,-9.29 62.02,-36.43zm-190.94 142.53c2.72,-1.19 4.5,-5.87 7.94,-5.98 2.06,-0.08 3.41,2.12 2.43,3.92 -12.14,22.65 -11.14,42.25 -7.57,68.02 2.14,15.56 6.14,27.09 9.95,43.92 1.98,8.7 3.15,15.37 3.47,19.97 0.37,5.32 1.06,12.07 2.04,20.21 1.24,10.19 0.71,24.02 -1.59,41.56 -0.34,2.49 -1.19,8.55 -2.57,18.2 -0.66,4.52 -2.88,13.47 -6.67,26.88 -0.71,2.57 -1.27,4.13 -1.72,4.68 -0.63,0.82 -0.95,1.67 -0.93,2.35 0.11,1.88 -1.43,9.55 -4.6,22.99 -6.01,25.53 -12.57,50.37 -14.95,76.81 -0.21,2.43 1.03,4.76 3.15,5.93 3.44,1.88 7.96,3.6 13.57,5.13 8.2,2.25 27.17,6.11 56.94,11.56 9.13,1.67 16.46,2.7 21.99,3.1 19.31,1.38 34.87,4.39 55.19,3.97 28.79,-0.58 47.83,-1.69 57.15,-3.31 41.25,-7.17 62.73,-9.39 90.51,-20.64 1.93,-0.79 3.18,-2.67 3.15,-4.76 -0.08,-5.48 -0.77,-10.82 -2.06,-16.03 -7.22,-28.68 -11.51,-46.57 -12.86,-53.63 -3.49,-18.12 -6.09,-29.58 -7.78,-34.42 -7.22,-20.56 -11.11,-42.31 -11.67,-65.24 -0.71,-30.35 2.2,-57.39 8.73,-81.09 8.94,-32.44 15.03,-64.26 -0.08,-95.19 -0.9,-1.85 -0.66,-3.28 0.69,-4.26 0.66,-0.48 1.59,-0.37 2.12,0.24l3.94 4.5c1.46,1.67 4.23,0.79 4.44,-1.43 3.62,-35.16 11.96,-67.81 25.06,-97.92 0.82,-1.91 0.42,-4.1 -0.98,-5.61 -2.78,-3.02 -5.85,-5.27 -9.71,-7.04 -15.72,-7.17 -35.85,-15.56 -60.43,-25.16 -0.74,-0.29 -1.59,0.08 -1.88,0.85 -4.71,12.28 -12.75,29 -21.99,38.42 -23.36,23.81 -51.88,32.46 -85.56,25.98 -24.47,-4.74 -52.23,-22.67 -62.44,-47.76 -2.25,-5.53 -4.34,-11.03 -6.3,-16.54 -0.66,-1.88 -2.83,-2.73 -4.58,-1.83 -18.89,9.55 -40.24,19.18 -64.05,28.87 -2.83,1.14 -5,2.96 -6.56,5.45 -0.61,0.98 -0.71,2.2 -0.29,3.28 12.78,31.88 21.17,65.16 25.19,99.8 0.13,1.03 1.22,1.67 2.17,1.24zm-35.37 -97.23c-0.98,-0.9 -2.54,-0.69 -3.25,0.45 -7.96,12.51 -14,26.27 -18.1,41.27 -3.73,13.78 -6.51,22.75 -8.31,26.96 -2.88,6.8 -5.79,17.04 -8.68,30.72 -5.08,24.08 -12.49,51.8 -18.44,74.79 -3.33,12.88 -4.66,25.32 -8.02,35.66 -2.25,6.93 -4.26,15.82 -6.03,26.7 -2.06,12.8 -5.53,24.53 -7.67,38.49 -5.87,38.76 -12.86,77.23 -20.95,115.41 -0.61,2.86 -1.08,8.28 -1.43,16.24 -0.08,1.59 0.98,3.02 2.54,3.41l50 12.22c1.43,0.34 2.91,-0.34 3.57,-1.64 3.73,-7.25 6.4,-14.71 7.99,-22.41 5.69,-27.78 12.96,-59.16 21.85,-94.16 4.23,-16.67 6.4,-32.12 11.59,-47.81 1.16,-3.55 4.1,-15.48 8.84,-35.77 3.1,-13.26 6.4,-25.5 9.95,-36.78 6.11,-19.5 9.71,-39.87 10.82,-61.14 0.87,-16.93 -1.51,-37.28 -7.2,-61.06 -5.69,-23.89 -11.56,-43.6 -17.62,-59.13 -0.45,-1.14 -0.93,-1.93 -1.45,-2.43zm342.39 -0.85c-0.56,-0.32 -1.27,-0.08 -1.48,0.53 -7.91,21.3 -14.26,41.35 -19,60.22 -6.01,23.79 -9.97,43.02 -6.14,65.46 1.48,8.6 0.56,17.33 2.51,26.83 2.88,13.97 5.16,23.34 6.83,28.1 3.1,8.81 5.64,18.07 7.62,27.75 0.85,4.15 3.99,17.99 9.42,41.49 1.38,5.93 5.21,19.55 11.54,40.88 5.24,17.67 8.94,34.13 11.09,49.4 3.02,21.27 9.79,37.07 15.79,59.26 1.91,6.98 2.25,15.42 5,20.72 0.71,1.38 2.2,2.14 3.73,1.93 7.96,-1.09 12.97,-1.11 18.81,-2.88 7.86,-2.35 16.93,-4.68 27.25,-7.04 2.8,-0.64 4.79,-3.2 4.71,-6.09 -0.5,-17.01 -2.59,-33.2 -6.3,-48.52 -1.3,-5.34 -2.12,-9.47 -2.46,-12.36 -0.87,-7.25 -1.56,-11.43 -2.06,-12.51 -1.14,-2.46 0.34,-5.95 -1.43,-9.47 -0.79,-1.61 -1.38,-3.97 -1.77,-7.06 -1.19,-9.87 -2.25,-17.01 -3.17,-21.43 -6.51,-31.14 -10.03,-48.5 -10.56,-52.02 -5.53,-36.67 -11.77,-61.2 -23.04,-109.74 -5.34,-23.04 -12.62,-45.03 -17.99,-66.17 -4.82,-18.89 -11.56,-36.06 -18.2,-50.59 -2.65,-5.77 -6.77,-14.31 -10.69,-16.67zm-423.29 455.02c7.83,1.67 15.16,2.88 22.01,3.73 1.43,0.16 2.78,-0.77 3.12,-2.17l5.79 -23.79c0.37,-1.53 -0.63,-3.1 -2.22,-3.33 -8.99,-1.35 -16.48,-2.65 -22.52,-3.92 -6.01,-1.27 -13.41,-3.1 -22.17,-5.48 -1.53,-0.42 -3.1,0.56 -3.39,2.14l-4.29 24.1c-0.24,1.43 0.61,2.8 1.98,3.23 6.59,2.01 13.81,3.84 21.67,5.48zm521.92 -31.88c-0.21,-1.09 -1.24,-1.77 -2.33,-1.59l-45.9 7.86c-1.19,0.19 -1.93,1.38 -1.61,2.54l7.38 26.22c0.29,1.03 1.35,1.64 2.38,1.43l43.76 -9.23c1.08,-0.24 1.8,-1.32 1.56,-2.41l-5.24 -24.82z"/>
   <path class="fil1" d="M370.22 22.99c-7.65,22.83 -21.64,42.28 -44.24,52.6 -25.69,11.72 -51.78,10.64 -78.31,-3.23 -22.3,-11.67 -31.01,-27.38 -39.08,-49.79 -0.66,-1.88 0.29,-3.97 2.14,-4.68l7.65 -2.96c1.9,-0.74 4,0.5 4.26,2.54 4.29,35.29 37.6,55.61 71.59,53.21 23.65,-1.67 42.25,-12.57 55.8,-32.7 3.94,-5.85 6.09,-13.2 7.99,-19.95 0.34,-1.24 1.69,-1.88 2.88,-1.38l7.94 3.33c1.16,0.5 1.77,1.8 1.38,3.02zm189.17 464.86l5.24 24.82c0.24,1.09 -0.48,2.17 -1.56,2.41l-43.76 9.23c-1.03,0.21 -2.09,-0.4 -2.38,-1.43l-7.38 -26.22c-0.32,-1.16 0.42,-2.35 1.61,-2.54l45.9 -7.86c1.08,-0.19 2.12,0.5 2.33,1.59zm-515.73 2.41c6.03,1.27 13.52,2.57 22.52,3.92 1.59,0.24 2.59,1.8 2.22,3.33l-5.79 23.79c-0.34,1.4 -1.69,2.33 -3.12,2.17 -6.85,-0.85 -14.18,-2.06 -22.01,-3.73 -7.86,-1.64 -15.08,-3.47 -21.67,-5.48 -1.38,-0.42 -2.22,-1.8 -1.98,-3.23l4.29 -24.1c0.29,-1.59 1.85,-2.57 3.39,-2.14 8.76,2.38 16.17,4.21 22.17,5.48zm417.1 -425.54c3.92,2.35 8.04,10.9 10.69,16.67 6.64,14.53 13.39,31.7 18.2,50.59 5.37,21.14 12.65,43.13 17.99,66.17 11.27,48.55 17.52,73.07 23.04,109.74 0.53,3.52 4.05,20.88 10.56,52.02 0.93,4.42 1.98,11.56 3.17,21.43 0.4,3.1 0.98,5.45 1.77,7.06 1.77,3.52 0.29,7.01 1.43,9.47 0.5,1.08 1.19,5.26 2.06,12.51 0.34,2.88 1.16,7.01 2.46,12.36 3.7,15.32 5.79,31.51 6.3,48.52 0.08,2.88 -1.91,5.45 -4.71,6.09 -10.32,2.35 -19.39,4.68 -27.25,7.04 -5.85,1.77 -10.85,1.8 -18.81,2.88 -1.53,0.21 -3.02,-0.56 -3.73,-1.93 -2.75,-5.29 -3.1,-13.73 -5,-20.72 -6.01,-22.2 -12.78,-37.99 -15.79,-59.26 -2.14,-15.27 -5.85,-31.72 -11.09,-49.4 -6.32,-21.33 -10.16,-34.95 -11.54,-40.88 -5.42,-23.49 -8.57,-37.33 -9.42,-41.49 -1.98,-9.68 -4.52,-18.94 -7.62,-27.75 -1.67,-4.76 -3.94,-14.13 -6.83,-28.1 -1.96,-9.5 -1.03,-18.23 -2.51,-26.83 -3.84,-22.44 0.13,-41.67 6.14,-65.46 4.74,-18.86 11.09,-38.92 19,-60.22 0.21,-0.61 0.93,-0.85 1.48,-0.53zm-342.39 0.85c0.53,0.5 1.01,1.3 1.45,2.43 6.06,15.53 11.93,35.24 17.62,59.13 5.69,23.78 8.07,44.13 7.2,61.06 -1.11,21.27 -4.71,41.64 -10.82,61.14 -3.55,11.27 -6.85,23.52 -9.95,36.78 -4.74,20.29 -7.67,32.22 -8.84,35.77 -5.19,15.69 -7.35,31.14 -11.59,47.81 -8.89,35 -16.17,66.38 -21.85,94.16 -1.59,7.7 -4.26,15.16 -7.99,22.41 -0.66,1.3 -2.14,1.98 -3.57,1.64l-50 -12.22c-1.56,-0.4 -2.62,-1.83 -2.54,-3.41 0.34,-7.96 0.82,-13.39 1.43,-16.24 8.1,-38.18 15.08,-76.65 20.95,-115.41 2.14,-13.97 5.61,-25.69 7.67,-38.49 1.77,-10.87 3.78,-19.76 6.03,-26.7 3.36,-10.35 4.68,-22.78 8.02,-35.66 5.95,-22.99 13.36,-50.72 18.44,-74.79 2.88,-13.68 5.79,-23.92 8.68,-30.72 1.8,-4.21 4.58,-13.18 8.31,-26.96 4.1,-15 10.13,-28.76 18.1,-41.27 0.71,-1.14 2.28,-1.35 3.25,-0.45zm35.37 97.23c-0.95,0.42 -2.04,-0.21 -2.17,-1.24 -4.02,-34.63 -12.41,-67.92 -25.19,-99.8 -0.42,-1.08 -0.32,-2.3 0.29,-3.28 1.56,-2.49 3.73,-4.31 6.56,-5.45 23.81,-9.68 45.16,-19.31 64.05,-28.87 1.75,-0.9 3.92,-0.05 4.58,1.83 1.96,5.5 4.05,11.01 6.3,16.54 10.21,25.08 37.97,43.02 62.44,47.76 33.68,6.48 62.2,-2.17 85.56,-25.98 9.23,-9.42 17.28,-26.14 21.99,-38.42 0.29,-0.77 1.14,-1.14 1.88,-0.85 24.58,9.6 44.71,17.99 60.43,25.16 3.86,1.77 6.93,4.02 9.71,7.04 1.4,1.51 1.8,3.7 0.98,5.61 -13.1,30.11 -21.43,62.76 -25.06,97.92 -0.21,2.22 -2.99,3.1 -4.44,1.43l-3.94 -4.5c-0.53,-0.61 -1.45,-0.71 -2.12,-0.24 -1.35,0.98 -1.59,2.41 -0.69,4.26 15.11,30.93 9.02,62.76 0.08,95.19 -6.53,23.71 -9.45,50.75 -8.73,81.09 0.56,22.94 4.44,44.69 11.67,65.24 1.69,4.84 4.29,16.3 7.78,34.42 1.35,7.06 5.63,24.95 12.86,53.63 1.3,5.21 1.98,10.56 2.06,16.03 0.03,2.09 -1.22,3.97 -3.15,4.76 -27.78,11.24 -49.26,13.47 -90.51,20.64 -9.31,1.61 -28.36,2.73 -57.15,3.31 -20.32,0.42 -35.88,-2.59 -55.19,-3.97 -5.53,-0.4 -12.86,-1.43 -21.99,-3.1 -29.77,-5.45 -48.73,-9.31 -56.94,-11.56 -5.61,-1.53 -10.13,-3.25 -13.57,-5.13 -2.12,-1.16 -3.36,-3.49 -3.15,-5.93 2.38,-26.43 8.94,-51.27 14.95,-76.81 3.17,-13.44 4.71,-21.11 4.6,-22.99 -0.03,-0.69 0.29,-1.53 0.93,-2.35 0.45,-0.56 1.01,-2.12 1.72,-4.68 3.78,-13.41 6.01,-22.36 6.67,-26.88 1.38,-9.66 2.22,-15.72 2.57,-18.2 2.3,-17.54 2.83,-31.38 1.59,-41.56 -0.98,-8.15 -1.67,-14.9 -2.04,-20.21 -0.32,-4.6 -1.48,-11.27 -3.47,-19.97 -3.81,-16.83 -7.8,-28.36 -9.95,-43.92 -3.57,-25.77 -4.58,-45.38 7.57,-68.02 0.98,-1.8 -0.37,-4 -2.43,-3.92 -3.44,0.11 -5.21,4.79 -7.94,5.98zm190.94 -142.53c-11.3,27.15 -31.96,39.29 -62.02,36.43 -15.48,-1.45 -26.85,-6.32 -34.18,-14.6 -13.31,-15.05 -18.76,-22.67 -16.4,-22.89 2.67,-0.24 4.76,0.24 6.24,1.48 5.11,4.29 26.69,5.37 40.03,6.22 22.2,1.43 43.57,-1.56 64.13,-8.94 1.43,-0.5 2.78,0.9 2.2,2.3z"/>
  </g>
 </g>
</svg>
