<?xml version="1.0" encoding="UTF-8"?>
<!DOCTYPE svg PUBLIC "-//W3C//DTD SVG 1.1//EN" "http://www.w3.org/Graphics/SVG/1.1/DTD/svg11.dtd">
<!-- Creator: CorelDRAW -->
<svg xmlns="http://www.w3.org/2000/svg" xml:space="preserve" width="77.7838mm" height="71.826mm" version="1.1" style="shape-rendering:geometricPrecision; text-rendering:geometricPrecision; image-rendering:optimizeQuality; fill-rule:evenodd; clip-rule:evenodd"
viewBox="0 0 445.28 411.18"
 xmlns:xlink="http://www.w3.org/1999/xlink"
 xmlns:xodm="http://www.corel.com/coreldraw/odm/2003">
 <defs>
  <style type="text/css">
   <![CDATA[
    .fil0 {fill:black;fill-rule:nonzero}
    .fil1 {fill:#E88EA0;fill-rule:nonzero}
   ]]>
  </style>
 </defs>
 <g id="Camada_x0020_1">
  <metadata id="CorelCorpID_0Corel-Layer"/>
  <g id="_1890199169440">
   <path class="fil0" d="M333 199.35c-0.14,-0.44 -0.79,-0.4 -0.89,0.06 -2.38,10.99 -4.68,22.97 -6.9,35.96 -2.82,16.58 -2.34,31.6 2.68,49.54 1.29,4.56 5,19.3 11.11,44.25 4.92,20.11 8.57,40.06 10.93,59.88 0.16,1.21 -0.28,2.44 -1.17,3.31 -1.79,1.76 -4.17,3.11 -7.14,4.01 -7.3,2.24 -16.88,4.46 -28.72,6.64 -64.4,11.82 -128.48,10.83 -192.25,-2.94 -9.88,-2.12 -15.43,-3.11 -21.9,-6.7 -1.69,-0.93 -2.66,-2.78 -2.46,-4.7 3.03,-30.01 9.36,-56.53 18.7,-90.06 6.05,-21.74 9.12,-39.75 6.82,-57.6 -1.51,-11.72 -3.95,-25.29 -7.3,-40.72 -0.12,-0.57 -0.93,-0.59 -1.09,-0.02 -4.13,14.62 -7.99,29.31 -11.58,44.05 -12.26,50.24 -22.07,87.88 -29.43,112.91 -1.88,6.33 -4.34,12.06 -7.4,17.18 -0.46,0.75 -0.79,1.57 -0.97,2.42l-6.03 27.89c-0.38,1.77 -1.71,3.19 -3.47,3.69 -1.09,0.3 -3.43,0.16 -7,-0.44 -10.27,-1.75 -24.08,-5.04 -41.49,-9.9 -6.53,-1.82 -6.84,-5.12 -5.26,-11.27 0.46,-1.78 1.82,-8.09 4.09,-18.92 0.58,-2.76 0.83,-5.59 0.71,-8.41 -0.34,-7.85 -0.08,-14.16 0.77,-18.98 10.59,-60.16 19.89,-108.05 27.89,-143.66 0.87,-3.85 5.2,-22.17 13.03,-54.9 3.65,-15.21 11.03,-41.57 22.19,-79.08 3.03,-10.21 8.19,-18.19 15.49,-23.98 2.76,-2.2 11.48,-6.27 26.18,-12.26 9.38,-3.81 18.9,-7.76 28.58,-11.86 9.86,-4.17 19.22,-9.68 28.28,-13.86 2.34,-1.07 4.64,-1.15 6.9,-0.22 32.69,13.49 65.09,13.49 97.17,0 1.37,-0.57 2.9,-0.54 4.24,0.04 16.24,7.12 42.01,18.31 77.29,33.62 8.13,3.53 14.34,9.72 18.66,18.62 6.45,13.23 11.38,33.72 14.68,45.78 7.85,28.56 12.36,45.74 13.57,51.57 4.86,23.4 11.25,47.6 15.87,71.28 2.52,13.01 7.91,40.28 16.14,81.85 0.18,0.99 2.1,12.87 5.73,35.62 1.25,7.87 0.93,12.16 0.93,19.83 -0.02,1.25 0.1,2.5 0.34,3.73l5.71 29.49c0.24,1.23 -0.2,2.5 -1.17,3.33 -2.04,1.73 -4.52,2.99 -7.44,3.75 -21.46,5.59 -35.44,8.61 -41.91,9.1 -5.06,0.38 -6.64,-2.16 -7.62,-7.06 -1.23,-6.01 -2.66,-13.33 -4.32,-21.94 -0.58,-3.07 -1.49,-6.64 -3.47,-9.6 -2.66,-3.99 -5.33,-10.89 -7.99,-20.69 -11.72,-43 -22.41,-84 -32.03,-123.03 -2.6,-10.49 -3.41,-18.15 -6.27,-26.56zm-156.11 -180.47c0,1.51 1.01,2.84 2.46,3.27 27.93,7.89 59.4,9.88 87.03,-0.08 1.33,-0.48 2.32,-1.61 2.6,-2.98l1.01 -4.8c0.24,-1.15 -0.87,-2.1 -1.98,-1.69 -16.15,6.01 -31.97,9.04 -47.48,9.1 -12.16,0.06 -25.92,-2.84 -41.29,-8.69 -1.15,-0.42 -2.36,0.42 -2.36,1.63l0 4.26zm102.3 -4.52c-0.71,7.16 -3,16.92 -6.94,29.27 -3.73,11.74 -7.89,21.4 -12.46,28.98 -8.39,13.92 -21.24,26.7 -33.88,37.21 -1.19,0.99 -2.84,1.17 -4.22,0.44 -8.53,-4.52 -12.22,-9.02 -20.57,-17.79 -19.87,-20.87 -29.83,-49.09 -34.37,-76.99 -0.18,-1.17 -1.47,-1.77 -2.5,-1.19l-3.73 2.16c-1.13,0.65 -1.8,1.9 -1.69,3.21 0.59,7.64 0.97,11.82 1.17,12.52 4.78,16.9 10.59,31.32 17.43,43.24 8.81,15.41 22.23,30.15 40.24,44.23 3.19,2.5 4.64,3.89 8.11,1.65 14.5,-9.28 26.36,-21 35.6,-35.13 1.63,-2.48 5.24,-8.41 10.83,-17.79 4.52,-7.56 7.48,-13.8 8.89,-18.72 3.07,-10.71 5.35,-21.1 6.82,-31.18 0.16,-1.03 -0.42,-2.04 -1.39,-2.46l-5.93 -2.5c-0.63,-0.26 -1.33,0.16 -1.39,0.83zm-152.9 188.96c0.16,0.99 1.9,10.87 5.22,29.69 2,11.3 2.36,22.93 1.09,34.89 -0.52,4.92 -2.64,13.63 -6.35,26.16 -2.76,9.34 -4.9,18.05 -6.41,26.18 -1.82,9.8 -3.25,16.18 -4.3,19.1 -0.14,0.38 -0.18,1.57 -0.12,3.57 0.02,0.67 -0.08,1.33 -0.28,1.98 -2.7,8.53 -4.72,16.22 -6.03,23.01 -1.29,6.55 -9.52,20.07 2.74,21.42 15.19,1.67 30.41,3.99 45.66,6.98 9.54,1.88 25.17,3.19 46.87,3.97 13.45,0.48 29.51,0.59 48.12,0.3 7.3,-0.12 13.72,-0.79 19.22,-1.98 16.28,-3.55 28.12,-4.22 44.96,-7.38 6.37,-1.21 11.64,-1.31 19.38,-2.32 3.23,-0.4 4.68,-2.46 4.36,-6.19 -0.59,-6.84 -1.67,-12.79 -3.23,-17.87 -4.4,-14.26 -7.54,-26.93 -9.42,-38.04 -1.84,-10.91 -4.68,-20.43 -7.74,-29.69 -2.93,-8.81 -4.84,-16.26 -5.71,-22.33 -3.17,-21.84 -1.49,-43.16 4.98,-63.96 1.11,-3.53 1.49,-6.62 1.61,-10.08 0.04,-0.95 -1.11,-1.45 -1.8,-0.79 -6.92,6.78 -12.69,10.99 -22.95,11.29 -10.77,0.3 -33.96,-1.59 -41.49,-9.86 -1.45,-1.59 -0.2,-4.15 1.96,-3.97l2.84 0.26c0.26,0.02 0.52,0.08 0.77,0.22 16.12,9.06 32.49,9.54 49.13,1.47 13.63,-6.62 20.29,-23.54 21.1,-37.51 0.54,-9.82 0.24,-16.72 -0.95,-20.73 -1.61,-5.39 -4.32,-11.82 -8.09,-19.26 -0.44,-0.87 0.26,-1.85 1.23,-1.73 1.15,0.16 2.52,0.75 4.15,1.73 1.35,0.83 3.13,0 3.35,-1.57 1.84,-12.57 4.74,-27.03 8.75,-43.36 2.24,-9.14 5.97,-18.7 11.23,-28.72 0.99,-1.9 0.14,-4.26 -1.84,-5.08l-52.08 -21.94c-0.46,-0.2 -0.99,0.08 -1.09,0.56 -2.36,10.53 -6.11,22.51 -11.23,35.94 -4.98,13.11 -10.83,24.24 -17.51,33.42 -10.77,14.8 -23.92,27.25 -39.43,37.33 -2.06,1.35 -4.7,1.37 -6.8,0.08 -37.15,-22.85 -60.33,-62.18 -68.13,-104.54 -0.24,-1.29 -1.59,-2.04 -2.8,-1.57 -10.09,3.89 -19.69,8.05 -28.82,12.42 -8.09,3.87 -15.75,5.75 -23.68,8.33 -1.37,0.44 -2.04,2 -1.39,3.29 10.04,20.43 16.4,42.01 19.06,64.74 0.28,2.36 1.01,5.12 2.18,8.31 0.3,0.83 1.25,1.25 2.06,0.91l1.9 -0.79c0.67,-0.28 1.39,0.24 1.37,0.97 -0.14,3.73 -0.44,6.15 -0.93,7.26 -3.97,9.06 -6.17,17.53 -6.6,25.39 -0.93,16.8 4.64,35.48 19.66,44.88 18.54,11.58 33.68,7.22 54.76,-0.12 1.27,-0.44 2.6,0.46 2.64,1.8l0 0.16c0.08,1.67 -0.87,3.23 -2.38,3.95 -15.05,7.16 -30.78,8.96 -47.17,5.41 -0.58,-0.12 -1.15,-0.32 -1.69,-0.59l-12.81 -6.25c-0.59,-0.28 -1.23,0.22 -1.13,0.85zm96.63 -103.87c0.26,0 0.46,-0.04 0.63,-0.14 4.38,-2.64 8.55,-6.37 12.52,-11.15 14.08,-16.88 24.2,-35.7 30.39,-56.47 0.2,-0.73 -0.14,-1.51 -0.83,-1.86 -1.59,-0.77 -8.91,1.35 -17.31,3.15 -8.19,1.77 -16.68,2.66 -25.49,2.66 -8.79,0.02 -17.28,-0.85 -25.49,-2.6 -8.39,-1.78 -15.71,-3.87 -17.3,-3.11 -0.69,0.34 -1.03,1.13 -0.83,1.86 6.23,20.75 16.42,39.57 30.54,56.41 3.99,4.76 8.17,8.47 12.55,11.11 0.16,0.1 0.36,0.14 0.63,0.14zm-203.45 260.06c2.36,-0.18 5.37,0.16 9.06,0.99 16.44,3.71 25.01,5.71 25.7,5.97 1.27,0.5 2.7,0.02 3.39,-1.17 4.42,-7.6 6.64,-11.36 8.51,-20.01 4.22,-19.28 8.59,-37.33 13.13,-54.13 4.64,-17.22 9.2,-35.22 13.67,-53.99 5.22,-21.94 10.23,-40.58 14.97,-55.89 0.73,-2.34 0.91,-4.76 0.57,-7.28 -2.36,-16.92 -0.52,-29.83 2.64,-45.52 0.26,-1.33 0.32,-2.66 0.14,-3.99 -3.39,-25.67 -10.25,-50.1 -20.59,-73.25 -0.56,-1.25 -2.2,-1.55 -3.17,-0.6 -12.4,12.22 -10.71,28.98 -16.6,45.82 -3.07,8.75 -4.7,12.93 -6.07,20.61 -0.91,5.14 -1.39,8.01 -1.41,8.59 -0.06,2.64 -0.99,6.86 -2.78,12.65 -3.53,11.42 -6.49,25.39 -11.11,39.61 -1.43,4.42 -4.82,20.92 -10.13,49.48 -1.61,8.69 -4.62,17.87 -5.32,25.11 -0.16,1.71 -1.59,7.97 -4.32,18.76 -3.05,12.16 -5.32,26.22 -6.82,42.15 -0.08,0.89 -0.26,1.75 -0.54,2.62 -2.32,7.08 -4.56,19.02 -6.72,35.86 -0.54,4.34 0.2,6.82 2.26,7.46 0.48,0.14 1.03,0.2 1.55,0.16zm351.12 -52.18c0.54,2 1.29,5.97 2.22,11.92 0.16,1.07 0.42,2.14 0.81,3.17 3.21,9 6.92,21.06 11.11,36.2 0.75,2.68 2.42,4.94 4.98,6.8 0.93,0.67 2.1,0.91 3.23,0.69l34.91 -7.38c1.25,-0.26 2.12,-1.41 2.02,-2.68 -1.09,-15.07 -3.13,-29.29 -6.11,-42.68 -3.81,-17.2 -6.17,-38.4 -11.07,-55.97 -3.49,-12.48 -4.62,-26.3 -7.75,-40.56 -6.03,-27.65 -13.23,-56.9 -21.6,-87.76 -2,-7.42 -4.16,-17.06 -6.45,-28.94 -1.67,-8.61 -4.62,-19.08 -8.83,-31.42 -2.2,-6.41 -5.37,-12.4 -9.5,-17.97 -0.67,-0.91 -2.06,-0.77 -2.56,0.24 -3.63,7.42 -6.58,14.66 -8.81,21.74 -6.51,20.51 -10.63,39.13 -12.34,55.89 -0.4,3.89 0.42,8.96 2.46,15.19 2.08,6.31 2.38,15.71 0.91,28.2 -0.18,1.39 -0.2,2.8 -0.06,4.2 1.27,12.99 7.28,23.4 9.3,36.24 2.3,14.58 4.98,27.19 8.07,37.78 3.33,11.42 5.35,27.75 10.91,40.22 0.28,0.65 0.44,1.33 0.46,2.04 0.04,1.15 1.27,6.11 3.71,14.86zm25.94 88.24c0.22,1.37 1.55,2.28 2.93,2l32.69 -6.92c1.29,-0.26 2.14,-1.51 1.92,-2.82l-3.65 -21.34c-0.24,-1.45 -1.69,-2.36 -3.09,-1.96l-32.33 9.1c-1.21,0.34 -1.98,1.55 -1.75,2.78l3.29 19.16zm-344.27 -22.73c-14.2,-2.16 -25.63,-5 -34.31,-8.53 -0.99,-0.38 -2.08,0.18 -2.28,1.21l-4.66 22.17c-0.34,1.55 0.67,3.09 2.22,3.41l32.63 6.88c2,0.42 3.95,-0.91 4.28,-2.92l3.41 -20.43c0.14,-0.85 -0.44,-1.63 -1.29,-1.77z"/>
   <path class="fil1" d="M176.89 18.88l0 -4.26c0,-1.21 1.21,-2.06 2.36,-1.63 15.37,5.85 29.12,8.75 41.29,8.69 15.51,-0.06 31.32,-3.09 47.48,-9.1 1.11,-0.4 2.22,0.54 1.98,1.69l-1.01 4.8c-0.28,1.37 -1.27,2.5 -2.6,2.98 -27.63,9.96 -59.1,7.97 -87.03,0.08 -1.45,-0.42 -2.46,-1.75 -2.46,-3.27zm-124.62 353.97c0.85,0.14 1.43,0.93 1.29,1.77l-3.41 20.43c-0.32,2.02 -2.28,3.35 -4.28,2.92l-32.63 -6.88c-1.55,-0.32 -2.56,-1.86 -2.22,-3.41l4.66 -22.17c0.2,-1.03 1.29,-1.59 2.28,-1.21 8.67,3.53 20.11,6.37 34.31,8.53zm344.27 22.73l-3.29 -19.16c-0.22,-1.23 0.54,-2.44 1.75,-2.78l32.33 -9.1c1.39,-0.4 2.84,0.5 3.09,1.96l3.65 21.34c0.22,1.31 -0.62,2.56 -1.92,2.82l-32.69 6.92c-1.37,0.28 -2.7,-0.62 -2.93,-2zm-25.94 -88.24c-2.44,-8.75 -3.67,-13.72 -3.71,-14.86 -0.02,-0.71 -0.18,-1.39 -0.46,-2.04 -5.57,-12.46 -7.58,-28.8 -10.91,-40.22 -3.09,-10.59 -5.77,-23.19 -8.07,-37.78 -2.02,-12.85 -8.03,-23.26 -9.3,-36.24 -0.14,-1.39 -0.12,-2.8 0.06,-4.2 1.47,-12.48 1.17,-21.88 -0.91,-28.2 -2.04,-6.23 -2.86,-11.29 -2.46,-15.19 1.71,-16.76 5.83,-35.38 12.34,-55.89 2.24,-7.08 5.18,-14.32 8.81,-21.74 0.5,-1.01 1.9,-1.15 2.56,-0.24 4.13,5.57 7.3,11.56 9.5,17.97 4.22,12.34 7.16,22.81 8.83,31.42 2.3,11.88 4.46,21.52 6.45,28.94 8.37,30.86 15.57,60.1 21.6,87.76 3.13,14.26 4.26,28.08 7.75,40.56 4.9,17.57 7.26,38.76 11.07,55.97 2.99,13.39 5.02,27.61 6.11,42.68 0.1,1.27 -0.77,2.42 -2.02,2.68l-34.91 7.38c-1.13,0.22 -2.3,-0.02 -3.23,-0.69 -2.56,-1.86 -4.24,-4.11 -4.98,-6.8 -4.2,-15.15 -7.91,-27.21 -11.11,-36.2 -0.38,-1.03 -0.65,-2.1 -0.81,-3.17 -0.93,-5.95 -1.67,-9.92 -2.22,-11.92zm-352.68 52.02c-2.06,-0.65 -2.8,-3.13 -2.26,-7.46 2.16,-16.84 4.4,-28.78 6.72,-35.86 0.28,-0.87 0.46,-1.73 0.54,-2.62 1.49,-15.93 3.77,-29.99 6.82,-42.15 2.72,-10.79 4.15,-17.04 4.32,-18.76 0.71,-7.24 3.71,-16.42 5.32,-25.11 5.3,-28.56 8.69,-45.06 10.13,-49.48 4.62,-14.22 7.58,-28.2 11.11,-39.61 1.8,-5.79 2.72,-10 2.78,-12.65 0.02,-0.59 0.5,-3.45 1.41,-8.59 1.37,-7.68 3,-11.86 6.07,-20.61 5.89,-16.84 4.2,-33.6 16.6,-45.82 0.97,-0.95 2.6,-0.65 3.17,0.6 10.35,23.15 17.2,47.58 20.59,73.25 0.18,1.33 0.12,2.66 -0.14,3.99 -3.17,15.69 -5,28.6 -2.64,45.52 0.34,2.52 0.16,4.94 -0.57,7.28 -4.74,15.31 -9.74,33.94 -14.97,55.89 -4.48,18.78 -9.04,36.77 -13.67,53.99 -4.54,16.8 -8.91,34.85 -13.13,54.13 -1.88,8.65 -4.09,12.4 -8.51,20.01 -0.69,1.19 -2.12,1.67 -3.39,1.17 -0.69,-0.26 -9.26,-2.26 -25.7,-5.97 -3.69,-0.83 -6.7,-1.17 -9.06,-0.99 -0.52,0.04 -1.07,-0.02 -1.55,-0.16zm204.92 -323.71c8.81,0 17.3,-0.89 25.49,-2.66 8.39,-1.8 15.71,-3.91 17.31,-3.15 0.69,0.34 1.03,1.13 0.83,1.86 -6.19,20.77 -16.32,39.59 -30.39,56.47 -3.97,4.78 -8.15,8.51 -12.52,11.15 -0.16,0.1 -0.36,0.14 -0.63,0.14 -0.26,0 -0.46,-0.04 -0.63,-0.14 -4.38,-2.64 -8.55,-6.35 -12.55,-11.11 -14.12,-16.84 -24.3,-35.66 -30.54,-56.41 -0.2,-0.73 0.14,-1.51 0.83,-1.86 1.59,-0.77 8.91,1.33 17.3,3.11 8.21,1.75 16.7,2.62 25.49,2.6zm-96.55 167.69c-0.1,-0.63 0.54,-1.13 1.13,-0.85l12.81 6.25c0.54,0.26 1.11,0.46 1.69,0.59 16.4,3.55 32.13,1.75 47.17,-5.41 1.51,-0.73 2.46,-2.28 2.38,-3.95l0 -0.16c-0.04,-1.33 -1.37,-2.24 -2.64,-1.8 -21.08,7.34 -36.22,11.7 -54.76,0.12 -15.03,-9.4 -20.59,-28.07 -19.66,-44.88 0.42,-7.87 2.62,-16.34 6.6,-25.39 0.48,-1.11 0.79,-3.53 0.93,-7.26 0.02,-0.73 -0.71,-1.25 -1.37,-0.97l-1.9 0.79c-0.81,0.34 -1.75,-0.08 -2.06,-0.91 -1.17,-3.19 -1.9,-5.95 -2.18,-8.31 -2.66,-22.73 -9.02,-44.31 -19.06,-64.74 -0.65,-1.29 0.02,-2.84 1.39,-3.29 7.93,-2.58 15.59,-4.46 23.68,-8.33 9.14,-4.38 18.74,-8.53 28.82,-12.42 1.21,-0.46 2.56,0.28 2.8,1.57 7.81,42.35 30.98,81.68 68.13,104.54 2.1,1.29 4.74,1.27 6.8,-0.08 15.51,-10.08 28.66,-22.53 39.43,-37.33 6.68,-9.18 12.53,-20.31 17.51,-33.42 5.12,-13.43 8.87,-25.41 11.23,-35.94 0.1,-0.48 0.63,-0.77 1.09,-0.56l52.08 21.94c1.98,0.83 2.82,3.19 1.84,5.08 -5.26,10.02 -9,19.58 -11.23,28.72 -4.01,16.34 -6.92,30.8 -8.75,43.36 -0.22,1.57 -2,2.4 -3.35,1.57 -1.63,-0.99 -3,-1.57 -4.15,-1.73 -0.97,-0.12 -1.67,0.87 -1.23,1.73 3.77,7.44 6.47,13.88 8.09,19.26 1.19,4.01 1.49,10.91 0.95,20.73 -0.81,13.98 -7.46,30.9 -21.1,37.51 -16.64,8.07 -33.02,7.58 -49.13,-1.47 -0.24,-0.14 -0.5,-0.2 -0.77,-0.22l-2.84 -0.26c-2.16,-0.18 -3.41,2.38 -1.96,3.97 7.52,8.27 30.72,10.17 41.49,9.86 10.27,-0.3 16.03,-4.52 22.95,-11.29 0.69,-0.67 1.83,-0.16 1.8,0.79 -0.12,3.47 -0.5,6.55 -1.61,10.08 -6.47,20.79 -8.15,42.11 -4.98,63.96 0.87,6.07 2.78,13.51 5.71,22.33 3.07,9.26 5.91,18.78 7.74,29.69 1.88,11.11 5.02,23.78 9.42,38.04 1.55,5.08 2.64,11.03 3.23,17.87 0.32,3.73 -1.13,5.79 -4.36,6.19 -7.74,1.01 -13.01,1.11 -19.38,2.32 -16.84,3.17 -28.68,3.83 -44.96,7.38 -5.51,1.19 -11.92,1.86 -19.22,1.98 -18.62,0.28 -34.67,0.18 -48.12,-0.3 -21.7,-0.79 -37.33,-2.1 -46.87,-3.97 -15.25,-2.98 -30.48,-5.3 -45.66,-6.98 -12.26,-1.35 -4.03,-14.86 -2.74,-21.42 1.31,-6.8 3.33,-14.48 6.03,-23.01 0.2,-0.65 0.3,-1.31 0.28,-1.98 -0.06,-2 -0.02,-3.19 0.12,-3.57 1.05,-2.92 2.48,-9.3 4.3,-19.1 1.51,-8.13 3.65,-16.84 6.41,-26.18 3.71,-12.53 5.83,-21.24 6.35,-26.16 1.27,-11.96 0.91,-23.6 -1.09,-34.89 -3.33,-18.82 -5.06,-28.7 -5.22,-29.69zm152.9 -188.96c0.06,-0.67 0.77,-1.09 1.39,-0.83l5.93 2.5c0.97,0.42 1.55,1.43 1.39,2.46 -1.47,10.08 -3.75,20.47 -6.82,31.18 -1.41,4.92 -4.38,11.15 -8.89,18.72 -5.59,9.38 -9.2,15.31 -10.83,17.79 -9.24,14.14 -21.1,25.86 -35.6,35.13 -3.47,2.24 -4.92,0.85 -8.11,-1.65 -18.01,-14.08 -31.42,-28.82 -40.24,-44.23 -6.84,-11.92 -12.65,-26.34 -17.43,-43.24 -0.2,-0.71 -0.59,-4.88 -1.17,-12.52 -0.1,-1.31 0.57,-2.56 1.69,-3.21l3.73 -2.16c1.03,-0.59 2.32,0.02 2.5,1.19 4.54,27.89 14.5,56.11 34.37,76.99 8.35,8.77 12.04,13.27 20.57,17.79 1.37,0.73 3.03,0.54 4.22,-0.44 12.65,-10.51 25.49,-23.3 33.88,-37.21 4.58,-7.58 8.73,-17.24 12.46,-28.98 3.93,-12.34 6.23,-22.11 6.94,-29.27z"/>
  </g>
 </g>
</svg>
