<?xml version="1.0" encoding="UTF-8"?>
<!DOCTYPE svg PUBLIC "-//W3C//DTD SVG 1.1//EN" "http://www.w3.org/Graphics/SVG/1.1/DTD/svg11.dtd">
<!-- Creator: CorelDRAW -->
<svg xmlns="http://www.w3.org/2000/svg" xml:space="preserve" width="75.2986mm" height="73.9979mm" version="1.1" style="shape-rendering:geometricPrecision; text-rendering:geometricPrecision; image-rendering:optimizeQuality; fill-rule:evenodd; clip-rule:evenodd"
viewBox="0 0 589.85 579.66"
 xmlns:xlink="http://www.w3.org/1999/xlink"
 xmlns:xodm="http://www.corel.com/coreldraw/odm/2003">
 <defs>
  <style type="text/css">
   <![CDATA[
    .fil0 {fill:black;fill-rule:nonzero}
    .fil1 {fill:#E88EA0;fill-rule:nonzero}
   ]]>
  </style>
 </defs>
 <g id="Camada_x0020_1">
  <metadata id="CorelCorpID_0Corel-Layer"/>
  <g id="_1890199156384">
   <path class="fil0" d="M442.9 289.41c-0.16,-0.78 -1.26,-0.78 -1.42,0 -1.79,8.77 -3.82,17.22 -6.07,25.37 -5,18.26 -8.26,43.77 -8.18,61.98 0.05,14.46 3.88,31.79 8.98,48.55 11.04,36.18 19.87,73.23 26.52,111.15 1.2,6.92 1.52,13.13 0.96,18.61 -0.08,0.83 -0.59,1.58 -1.34,1.98 -2.06,1.07 -6.1,2.41 -12.14,4.04 -24.57,6.6 -49.49,11.34 -74.76,14.14 -69.36,7.73 -138.1,5.35 -206.2,-7.17 -3.48,-0.61 -15.59,-3.66 -36.36,-9.12 -5.53,-1.47 -8.1,-4.73 -7.65,-9.79 1.31,-15.4 3.34,-29.04 6.1,-40.91 7.89,-34.2 16.55,-68.07 26.01,-101.63 4.76,-16.92 6.04,-33.82 3.85,-50.67 -2.78,-21.44 -7.11,-43.07 -12.97,-64.92 -0.19,-0.72 -1.2,-0.7 -1.39,0.03l-54.73 223.98c-0.4,1.6 -1.04,3.15 -1.9,4.6 -4.57,7.51 -7.01,11.95 -7.25,13.29 -3.1,16.98 -5.27,28.07 -6.5,33.31 -1.26,5.32 -5.03,7.57 -11.34,6.74 -8.48,-1.1 -29.28,-6.1 -62.38,-14.97 -1.02,-0.27 -1.79,-1.04 -2.09,-2.06 -2.35,-8.26 1.76,-22.43 5,-38.8 0.53,-2.67 0.72,-5.37 0.53,-8.07 -0.61,-9.25 -0.27,-17.97 1.1,-26.12 13.93,-84.01 31.07,-169.99 51.44,-257.96 7.78,-33.61 16.74,-63.47 25.75,-91.81 8.74,-27.4 18.34,-50.32 45.96,-61.68 15.72,-6.47 30.05,-12.7 42.97,-18.72 9.06,-4.22 16.26,-6.36 25.77,-9.73 1.44,-0.51 2.75,-1.28 3.9,-2.27 3.98,-3.53 6.66,-6.5 8.07,-8.93 6.68,-11.47 13.37,-20.77 20.05,-27.91 2.27,-2.43 5.35,-3.58 9.2,-3.5 23.21,0.56 57.54,0.4 102.99,-0.43 4.12,-0.08 7.57,0.29 10.32,1.12 8.66,2.59 9.38,10.43 13.05,15.08 6.71,8.5 12.3,15.99 16.76,22.43 4.87,7.01 8.61,3.29 14.68,6.02 6.71,3.02 26.95,11.63 60.67,25.88 19.49,8.26 27.41,18.74 36.71,38.5 5.48,11.6 10.08,24.04 13.85,37.27 19.52,68.85 35.67,137.96 48.45,207.37 2.22,12.03 6.07,26.12 7.67,36.02 4.68,28.9 10.05,58.21 16.12,87.91 2.19,10.67 2.94,19.2 2.25,25.64 -0.85,7.83 -0.91,13.29 -0.19,16.36 2.59,10.94 4.63,22 6.04,33.21 0.24,1.92 -0.91,3.72 -2.75,4.33 -20.72,6.82 -40.43,11.79 -59.17,14.97 -13.69,2.3 -14.25,-5.59 -16.87,-17.54 -0.86,-3.96 -2.17,-10.59 -3.9,-19.89 -0.51,-2.59 -1.42,-5.05 -2.7,-7.33 -4.04,-6.95 -6.58,-12.62 -7.65,-17 -4.52,-18.64 -13.16,-53.79 -25.91,-105.53 -11.31,-45.88 -21.26,-80.21 -27.97,-115.42zm-193.76 -254.43c0.32,1.12 1.34,1.9 2.51,1.9l84.27 0c1.15,0 2.17,-0.75 2.51,-1.84l5.37 -17.09c0.54,-1.68 -0.72,-3.4 -2.51,-3.4l-94.46 0c-1.74,0 -2.99,1.66 -2.51,3.34l4.81 17.08zm-16.9 -10.85c-0.43,-0.24 -0.99,-0.11 -1.28,0.35l-12.78 21.71c-1.42,2.38 -1.82,5.24 -1.1,7.91 5.62,21.23 13.82,40.61 24.6,58.15 0.86,1.44 2.73,1.9 4.14,1.02l31.39 -19.65c0.8,-0.51 0.94,-1.63 0.24,-2.3 -8.45,-8.21 -16.84,-17.57 -25.19,-28.15 -9.46,-12 -13.31,-23.85 -19.06,-38.26 -0.08,-0.19 -0.21,-0.35 -0.37,-0.45l-0.59 -0.32zm122.94 -0.35c-7.89,26.18 -21.68,48.31 -41.42,66.36 -1.23,1.12 -1.07,3.07 0.29,3.98l29.12 19.38c1.15,0.75 2.67,0.46 3.42,-0.69 12.65,-18.93 21.36,-39.49 26.12,-61.68 0.11,-0.45 0.03,-0.91 -0.21,-1.31l-16.71 -26.12c-0.16,-0.24 -0.54,-0.19 -0.62,0.08zm-60.48 23.96c-7.81,0.03 -18.96,0.03 -33.39,-0.03 -1.34,-0.03 -2.38,1.2 -2.17,2.54 0.13,0.86 0.77,1.98 1.95,3.37 9.76,11.87 19.65,22.43 29.68,31.68 1.18,1.12 2.54,1.68 4.06,1.66 1.55,0 2.91,-0.56 4.12,-1.68 9.92,-9.33 19.73,-19.97 29.44,-31.9 1.12,-1.42 1.76,-2.54 1.9,-3.4 0.21,-1.34 -0.83,-2.57 -2.19,-2.54 -14.44,0.19 -25.56,0.27 -33.39,0.3zm139.73 146.97c0.8,-0.32 1.34,-1.04 1.44,-1.9 3.61,-28.93 10.24,-57.43 19.87,-85.48 1.92,-5.59 4.44,-11.12 7.51,-16.6 0.8,-1.39 0.21,-3.18 -1.26,-3.85 -8.66,-3.9 -28.02,-12.38 -58.1,-25.43 -4.22,-1.84 -10.16,-3.29 -14.25,-3.93 -2.03,-0.32 -3.98,0.91 -4.57,2.86 -5.51,18.37 -13.29,36.47 -23.31,54.25 -6.5,11.5 -10.11,22.03 -23.66,12.67 -4.49,-3.1 -11.71,-8.58 -21.68,-16.44 -0.75,-0.59 -1.82,-0.05 -1.82,0.88l0 94.33c0,1.74 -1.28,3.21 -2.99,3.45 -11.42,1.63 -22.83,1.87 -34.25,0.72 -1.47,-0.13 -2.62,-1.36 -2.65,-2.83 -0.78,-34.17 -0.75,-65.83 0.11,-94.94 0.03,-0.64 -0.13,-1.2 -0.43,-1.66 -0.35,-0.51 -1.07,-0.59 -1.52,-0.16 -7.06,6.58 -14.89,11.92 -23.37,17.3 -8.9,5.64 -13.37,1.9 -18.37,-7.51 -2.17,-4.06 -5.72,-10.08 -10.62,-18.05 -2.91,-4.76 -7.35,-15.88 -13.32,-33.39 -1.98,-5.78 -3.21,-12.67 -9.92,-10.53 -14.06,4.49 -27.51,10.16 -40.32,17 -1.82,0.96 -3.72,1.74 -5.67,2.33 -9.33,2.83 -17.49,6.44 -24.44,10.83 -0.83,0.51 -1.12,1.58 -0.69,2.46 15.05,30.56 23.8,64.36 26.18,101.39 0.08,1.2 1.52,1.74 2.35,0.91l5.51 -5.51c1.66,-1.66 4.47,0 3.77,2.27 -7.17,23.45 -14.79,48.07 -6.18,72.62 3.24,9.17 3.8,11.5 10.4,17.89 7.27,7.03 12.89,12.06 23.1,14.81 10.94,2.94 22.27,2.94 34.04,0 10.51,-2.59 17.75,-5.19 21.71,-7.78 1.95,-1.26 4.52,0.08 4.57,2.41l0.03 0.24c0.03,0.64 -0.29,1.26 -0.8,1.63 -23.48,17.27 -64.22,19.12 -86.6,-1.82 -1.1,-1.04 -2.86,0.08 -2.38,1.52 10.88,32 15.16,64.81 12.78,98.39 -0.88,12.43 -3.98,27.59 -9.33,45.43 -8.64,28.69 -13.56,44.86 -14.79,48.53 -3.45,10.29 -5.51,19.62 -6.18,28.02 -0.37,4.68 -2.14,15.48 -5.27,32.41 -0.29,1.47 0.64,2.89 2.09,3.21 30.19,7.03 60.85,12.99 90.18,15.32 55.16,4.36 110.72,2.97 166.68,-4.14 9.6,-1.23 17.38,-2.78 23.4,-4.68 10.21,-3.18 15.29,-3.8 26.23,-6.34 1.26,-0.29 2.14,-1.47 2.01,-2.78 -1.26,-12.11 -3.21,-23.5 -5.86,-34.12 -2.99,-11.9 -4.89,-19.73 -5.69,-23.45 -4.47,-20.43 -10.27,-42.22 -17.41,-65.4 -5.61,-18.13 -7.73,-30.11 -7.51,-48.02 0.27,-21.47 2.38,-42.59 8.88,-62.62 2.49,-7.67 3.85,-14.04 4.04,-19.12 0.05,-1.47 -1.58,-2.41 -2.81,-1.6 -9.09,5.88 -15.78,11.23 -26.9,13.34 -20.96,3.96 -40.69,0.11 -59.17,-11.58 -1.47,-0.94 -1.76,-2.94 -0.64,-4.25l0.08 -0.11c1.26,-1.44 3.32,-1.9 5.03,-1.1 21.18,9.84 38.07,13.93 59.73,7.33 25.37,-7.73 36.52,-36.66 34.28,-60.77 -1.15,-12.33 -5,-26.84 -11.55,-43.55 -0.45,-1.12 0.4,-2.33 1.6,-2.33l1.18 0c1.95,0 3.74,1.12 4.57,2.91 1.36,2.97 2.35,4.36 2.94,4.12zm35.27 -98.74c-14.46,34.09 -23.37,69.92 -26.66,107.48 -0.32,3.61 0.62,11.18 2.78,22.7 0.08,0.4 0.11,0.78 0.11,1.18l0.11 21.18c0,0.19 0.03,0.35 0.05,0.51 3.88,16.71 7.59,30.53 11.18,41.5 3.37,10.35 5.27,21.84 9.04,34.86 3.69,12.78 5.08,26.15 8.32,39.06 5.59,22.24 11.5,45.32 17.67,69.2 3.32,12.75 6.02,24.25 8.13,34.46 0.56,2.83 3.07,14.38 7.54,34.68 1.31,5.94 3.85,11.28 7.67,16.02 0.75,0.94 1.98,1.39 3.15,1.15 9.6,-1.79 23.48,-4.87 41.58,-9.2 6.47,-1.55 10.51,-1.58 9.06,-9.14 -1.04,-5.37 -1.66,-10.08 -1.79,-14.12 -0.19,-5.48 -0.7,-10.21 -1.52,-14.25 -2.22,-10.94 -5.8,-31.79 -10.72,-62.57 -0.94,-5.77 -2.91,-14.57 -5.99,-26.36 -2.38,-9.2 -4.22,-18.02 -5.53,-26.44 -3.88,-24.79 -8.96,-50.19 -15.24,-76.25 -3.45,-14.36 -6.68,-28.69 -9.68,-42.94 -2.7,-12.89 -6.04,-27.19 -10.03,-42.91 -1.52,-6.02 -4.92,-11.55 -5.96,-16.95 -5.54,-29.28 -15.03,-56.92 -28.48,-82.99 -1.04,-2.01 -3.9,-1.9 -4.79,0.16zm-350.68 -0.08c-0.51,-0.51 -1.31,-0.48 -1.76,0.03 -6.42,6.76 -11.12,14.89 -13.58,24.6 -1.79,7.06 -5.16,13.29 -7.14,21.71 -2.86,12.3 -8.34,23.74 -10.53,35.75 -1.2,6.6 -3.82,16.26 -7.81,28.96 -0.29,0.94 -0.46,1.9 -0.48,2.86 -0.24,5.35 -1.04,9.97 -2.38,13.88 -0.48,1.39 -0.61,2.65 -0.4,3.77 0.48,2.41 -1.47,4.97 -2.25,7.78 -6.23,22.67 -9.36,34.12 -9.41,34.3 -4.62,14.97 -5.62,29.44 -10.03,45.85 -0.21,0.78 -0.32,1.6 -0.32,2.43 -0.03,2.81 -0.29,5.37 -0.8,7.67 -5.51,25.11 -11.15,48.05 -14.87,73.13 -3.96,26.76 -6.84,48.07 -15.16,70.24 -0.37,0.99 -0.59,2.03 -0.64,3.1l-1.95 35.05c-0.08,1.23 0.72,2.33 1.92,2.62l49.78 12.17c2.11,0.51 4.28,-0.59 5.08,-2.62 2.01,-5.03 4.17,-9.6 5.27,-15 1.68,-7.99 5.59,-25.61 11.71,-52.86 1.36,-6.07 3.24,-12.89 5.62,-20.48 2.06,-6.55 3.72,-13.85 5.03,-21.84 0,-0.03 0,-0.08 0.03,-0.13l38.47 -156.95c0.11,-0.4 0.13,-0.83 0.11,-1.26 -0.8,-10.77 0.29,-22.62 3.32,-35.56 0.45,-1.95 0.64,-3.96 0.56,-5.99 -1.74,-39.2 -10.67,-76.76 -26.79,-112.72 0,-0.03 -0.03,-0.05 -0.05,-0.08 -0.29,-0.21 -0.48,-0.35 -0.53,-0.4zm186.04 10.91c0,-2.01 -1.66,-3.66 -3.67,-3.64l-14.33 0c-2.03,0.03 -3.66,1.66 -3.66,3.69l0.16 90.31c0,2.01 1.66,3.67 3.67,3.66l14.33 -0.03c2.03,-0.01 3.66,-1.64 3.66,-3.67l-0.16 -90.33zm270.98 437.98c-1.15,-6.34 -2.22,-13.93 -3.24,-22.75 -0.69,-6.02 -3.88,-6.92 -9.36,-5.11 -14.92,4.92 -28.34,8.42 -40.24,10.51 -1.42,0.24 -2.35,1.6 -2.11,3.05l4.57 26.76c0.13,0.86 0.99,1.44 1.84,1.26l45.83 -9.71c1.84,-0.37 3.02,-2.17 2.7,-4.01zm-556.05 -26.28l-6.02 24.68c-0.61,2.49 0.88,5 3.37,5.67 10.56,2.81 24.47,6.07 41.74,9.73 4.06,0.86 6.42,-0.72 7.06,-4.71 1.47,-9.28 3.16,-17.25 5.08,-23.9 0.59,-2.01 -0.75,-4.06 -2.83,-4.39l-32.97 -4.92c-0.35,-0.05 -0.72,-0.13 -1.07,-0.24l-11.6 -3.5c-1.2,-0.37 -2.46,0.35 -2.75,1.58z"/>
   <path class="fil1" d="M249.13 34.98l-4.81 -17.08c-0.48,-1.68 0.77,-3.34 2.51,-3.34l94.46 0c1.79,0 3.05,1.71 2.51,3.4l-5.37 17.09c-0.35,1.1 -1.36,1.84 -2.51,1.84l-84.27 0c-1.18,0 -2.19,-0.78 -2.51,-1.9zm-226.41 481.93l11.6 3.5c0.35,0.11 0.72,0.19 1.07,0.24l32.97 4.92c2.08,0.32 3.42,2.38 2.83,4.39 -1.92,6.66 -3.61,14.62 -5.08,23.9 -0.64,3.98 -2.99,5.56 -7.06,4.71 -17.27,-3.66 -31.17,-6.92 -41.74,-9.73 -2.49,-0.67 -3.98,-3.18 -3.37,-5.67l6.02 -24.68c0.29,-1.23 1.55,-1.95 2.75,-1.58zm553.3 27.86c0.32,1.85 -0.86,3.64 -2.7,4.01l-45.83 9.71c-0.86,0.19 -1.71,-0.4 -1.84,-1.26l-4.57 -26.76c-0.24,-1.44 0.69,-2.81 2.11,-3.05 11.9,-2.09 25.32,-5.59 40.24,-10.51 5.48,-1.82 8.66,-0.91 9.36,5.11 1.02,8.82 2.09,16.42 3.24,22.75zm-270.82 -347.65c0,2.02 -1.63,3.66 -3.66,3.67l-14.33 0.03c-2.01,0.01 -3.67,-1.64 -3.67,-3.66l-0.16 -90.31c0,-2.03 1.63,-3.66 3.66,-3.69l14.33 0c2.01,-0.03 3.67,1.63 3.67,3.64l0.16 90.33zm-186.19 -101.23c0.05,0.05 0.24,0.19 0.53,0.4 0.03,0.03 0.05,0.05 0.05,0.08 16.12,35.96 25.05,73.53 26.79,112.72 0.08,2.03 -0.11,4.04 -0.56,5.99 -3.02,12.94 -4.12,24.79 -3.32,35.56 0.03,0.43 0,0.86 -0.11,1.26l-38.47 156.95c-0.03,0.05 -0.03,0.11 -0.03,0.13 -1.31,7.99 -2.97,15.29 -5.03,21.84 -2.38,7.59 -4.25,14.41 -5.62,20.48 -6.12,27.24 -10.03,44.86 -11.71,52.86 -1.1,5.4 -3.26,9.97 -5.27,15 -0.8,2.03 -2.97,3.13 -5.08,2.62l-49.78 -12.17c-1.2,-0.29 -2.01,-1.39 -1.92,-2.62l1.95 -35.05c0.05,-1.07 0.27,-2.11 0.64,-3.1 8.32,-22.16 11.2,-43.47 15.16,-70.24 3.72,-25.08 9.36,-48.02 14.87,-73.13 0.51,-2.3 0.78,-4.87 0.8,-7.67 0,-0.83 0.11,-1.66 0.32,-2.43 4.41,-16.42 5.4,-30.88 10.03,-45.85 0.05,-0.19 3.18,-11.63 9.41,-34.3 0.78,-2.81 2.73,-5.37 2.25,-7.78 -0.21,-1.12 -0.08,-2.38 0.4,-3.77 1.34,-3.9 2.14,-8.53 2.38,-13.88 0.03,-0.96 0.19,-1.92 0.48,-2.86 3.98,-12.7 6.6,-22.35 7.81,-28.96 2.19,-12 7.67,-23.45 10.53,-35.75 1.98,-8.42 5.35,-14.65 7.14,-21.71 2.46,-9.71 7.17,-17.83 13.58,-24.6 0.45,-0.51 1.26,-0.53 1.76,-0.03zm350.68 0.08c0.88,-2.06 3.74,-2.17 4.79,-0.16 13.45,26.07 22.94,53.71 28.48,82.99 1.04,5.4 4.44,10.94 5.96,16.95 3.98,15.72 7.33,30.03 10.03,42.91 2.99,14.25 6.23,28.58 9.68,42.94 6.28,26.07 11.36,51.47 15.24,76.25 1.31,8.42 3.16,17.25 5.53,26.44 3.07,11.79 5.05,20.59 5.99,26.36 4.92,30.77 8.5,51.63 10.72,62.57 0.83,4.04 1.34,8.77 1.52,14.25 0.13,4.04 0.75,8.74 1.79,14.12 1.44,7.57 -2.59,7.59 -9.06,9.14 -18.1,4.33 -31.98,7.41 -41.58,9.2 -1.18,0.24 -2.41,-0.21 -3.15,-1.15 -3.82,-4.73 -6.36,-10.08 -7.67,-16.02 -4.47,-20.29 -6.98,-31.84 -7.54,-34.68 -2.11,-10.21 -4.81,-21.71 -8.13,-34.46 -6.18,-23.88 -12.09,-46.95 -17.67,-69.2 -3.24,-12.91 -4.63,-26.28 -8.32,-39.06 -3.77,-13.02 -5.67,-24.52 -9.04,-34.86 -3.58,-10.96 -7.3,-24.79 -11.18,-41.5 -0.03,-0.16 -0.05,-0.32 -0.05,-0.51l-0.11 -21.18c0,-0.4 -0.03,-0.78 -0.11,-1.18 -2.17,-11.52 -3.1,-19.09 -2.78,-22.7 3.29,-37.57 12.19,-73.39 26.66,-107.48zm-35.27 98.74c-0.59,0.24 -1.58,-1.15 -2.94,-4.12 -0.83,-1.79 -2.62,-2.91 -4.57,-2.91l-1.18 0c-1.2,0 -2.06,1.2 -1.6,2.33 6.55,16.71 10.4,31.23 11.55,43.55 2.25,24.12 -8.9,53.05 -34.28,60.77 -21.66,6.6 -38.56,2.51 -59.73,-7.33 -1.71,-0.8 -3.77,-0.35 -5.03,1.1l-0.08 0.11c-1.12,1.31 -0.83,3.32 0.64,4.25 18.48,11.68 38.21,15.53 59.17,11.58 11.12,-2.11 17.81,-7.46 26.9,-13.34 1.23,-0.8 2.86,0.13 2.81,1.6 -0.19,5.08 -1.55,11.44 -4.04,19.12 -6.5,20.03 -8.61,41.15 -8.88,62.62 -0.21,17.91 1.9,29.89 7.51,48.02 7.14,23.18 12.94,44.97 17.41,65.4 0.8,3.72 2.7,11.55 5.69,23.45 2.65,10.62 4.6,22 5.86,34.12 0.13,1.31 -0.75,2.49 -2.01,2.78 -10.94,2.54 -16.01,3.16 -26.23,6.34 -6.02,1.9 -13.8,3.45 -23.4,4.68 -55.96,7.11 -111.52,8.5 -166.68,4.14 -29.33,-2.33 -60,-8.29 -90.18,-15.32 -1.44,-0.32 -2.38,-1.74 -2.09,-3.21 3.13,-16.92 4.89,-27.73 5.27,-32.41 0.67,-8.4 2.73,-17.73 6.18,-28.02 1.23,-3.66 6.15,-19.84 14.79,-48.53 5.35,-17.83 8.45,-32.99 9.33,-45.43 2.38,-33.58 -1.9,-66.39 -12.78,-98.39 -0.48,-1.44 1.28,-2.57 2.38,-1.52 22.38,20.93 63.13,19.09 86.6,1.82 0.51,-0.37 0.83,-0.99 0.8,-1.63l-0.03 -0.24c-0.05,-2.33 -2.62,-3.66 -4.57,-2.41 -3.96,2.59 -11.2,5.19 -21.71,7.78 -11.76,2.94 -23.1,2.94 -34.04,0 -10.21,-2.75 -15.83,-7.78 -23.1,-14.81 -6.6,-6.39 -7.17,-8.72 -10.4,-17.89 -8.61,-24.54 -0.99,-49.17 6.18,-72.62 0.69,-2.27 -2.11,-3.93 -3.77,-2.27l-5.51 5.51c-0.83,0.83 -2.27,0.29 -2.35,-0.91 -2.38,-37.03 -11.12,-70.83 -26.18,-101.39 -0.43,-0.88 -0.13,-1.95 0.69,-2.46 6.95,-4.38 15.11,-7.99 24.44,-10.83 1.95,-0.59 3.85,-1.36 5.67,-2.33 12.81,-6.84 26.26,-12.51 40.32,-17 6.71,-2.14 7.94,4.76 9.92,10.53 5.96,17.51 10.4,28.64 13.32,33.39 4.89,7.97 8.45,13.98 10.62,18.05 5,9.41 9.46,13.15 18.37,7.51 8.48,-5.37 16.31,-10.72 23.37,-17.3 0.45,-0.43 1.18,-0.35 1.52,0.16 0.29,0.46 0.46,1.02 0.43,1.66 -0.85,29.12 -0.88,60.77 -0.11,94.94 0.03,1.47 1.18,2.7 2.65,2.83 11.42,1.15 22.83,0.91 34.25,-0.72 1.71,-0.24 2.99,-1.71 2.99,-3.45l0 -94.33c0,-0.94 1.07,-1.47 1.82,-0.88 9.97,7.86 17.19,13.34 21.68,16.44 13.56,9.36 17.17,-1.18 23.66,-12.67 10.03,-17.78 17.81,-35.88 23.31,-54.25 0.59,-1.95 2.54,-3.18 4.57,-2.86 4.09,0.64 10.03,2.09 14.25,3.93 30.08,13.05 49.44,21.52 58.1,25.43 1.47,0.67 2.06,2.46 1.26,3.85 -3.07,5.48 -5.59,11.02 -7.51,16.6 -9.63,28.05 -16.26,56.55 -19.87,85.48 -0.11,0.86 -0.64,1.58 -1.44,1.9zm-139.73 -146.97c7.84,-0.03 18.96,-0.11 33.39,-0.3 1.36,-0.03 2.41,1.2 2.19,2.54 -0.13,0.86 -0.78,1.98 -1.9,3.4 -9.71,11.92 -19.52,22.57 -29.44,31.9 -1.2,1.12 -2.57,1.68 -4.12,1.68 -1.52,0.03 -2.89,-0.54 -4.06,-1.66 -10.03,-9.25 -19.92,-19.81 -29.68,-31.68 -1.18,-1.39 -1.82,-2.51 -1.95,-3.37 -0.21,-1.34 0.83,-2.57 2.17,-2.54 14.44,0.05 25.59,0.05 33.39,0.03zm60.48 -23.96c0.08,-0.27 0.46,-0.32 0.62,-0.08l16.71 26.12c0.24,0.4 0.32,0.86 0.21,1.31 -4.76,22.19 -13.48,42.75 -26.12,61.68 -0.75,1.15 -2.27,1.44 -3.42,0.69l-29.12 -19.38c-1.36,-0.91 -1.52,-2.86 -0.29,-3.98 19.73,-18.05 33.53,-40.18 41.42,-66.36zm-122.94 0.35l0.59 0.32c0.16,0.11 0.29,0.27 0.37,0.45 5.75,14.41 9.6,26.26 19.06,38.26 8.34,10.59 16.74,19.95 25.19,28.15 0.69,0.67 0.56,1.79 -0.24,2.3l-31.39 19.65c-1.42,0.88 -3.29,0.43 -4.14,-1.02 -10.77,-17.54 -18.98,-36.92 -24.6,-58.15 -0.72,-2.67 -0.32,-5.54 1.1,-7.91l12.78 -21.71c0.29,-0.46 0.86,-0.59 1.28,-0.35z"/>
  </g>
 </g>
</svg>
