<?xml version="1.0" encoding="UTF-8"?>
<!DOCTYPE svg PUBLIC "-//W3C//DTD SVG 1.1//EN" "http://www.w3.org/Graphics/SVG/1.1/DTD/svg11.dtd">
<!-- Creator: CorelDRAW -->
<svg xmlns="http://www.w3.org/2000/svg" xml:space="preserve" width="67.6167mm" height="73.6803mm" version="1.1" style="shape-rendering:geometricPrecision; text-rendering:geometricPrecision; image-rendering:optimizeQuality; fill-rule:evenodd; clip-rule:evenodd"
viewBox="0 0 594.6 647.92"
 xmlns:xlink="http://www.w3.org/1999/xlink"
 xmlns:xodm="http://www.corel.com/coreldraw/odm/2003">
 <defs>
  <style type="text/css">
   <![CDATA[
    .fil0 {fill:black;fill-rule:nonzero}
    .fil1 {fill:#E88EA0;fill-rule:nonzero}
   ]]>
  </style>
 </defs>
 <g id="Camada_x0020_1">
  <metadata id="CorelCorpID_0Corel-Layer"/>
  <g id="_1890199155184">
   <path class="fil0" d="M297.26 647.92c-60.15,0 -123.18,-5.79 -182.94,-20.77 -4.95,-1.23 -7.29,-4.32 -7.02,-9.21 1.41,-24.49 6.99,-51.38 14.71,-82.93 5.85,-23.95 19.24,-61.32 24.13,-97.82 3.84,-28.69 -1.14,-61.5 -8.82,-87.88 -8.61,-29.5 -13.51,-48.53 -14.71,-57.03 -0.15,-1.02 -1.47,-1.32 -2.04,-0.45l-9.57 14.38c-1.86,2.76 -5.31,3.99 -8.49,3.03 -7.11,-2.13 -12.79,-4.2 -17.05,-6.18 -28,-13.06 -52.25,-29.41 -72.81,-49.13 -7.05,-6.75 -10.87,-10.68 -11.5,-11.8 -2.97,-5.43 0.51,-11.82 3.48,-17.44 17.17,-32.36 36.83,-66.69 58.98,-102.98 13.75,-22.57 27.52,-35.45 49.8,-43.85 29.41,-11.08 56.34,-22.21 79.42,-30.8 1.77,-0.66 3.33,-1.83 4.5,-3.33 8.68,-11.56 16.15,-22.18 22.42,-31.91 6.3,-9.81 10.83,-11.86 22.78,-11.83 25.24,0.06 43.52,0.09 54.81,0.09 11.31,0 29.59,0 54.84,-0.06 11.95,-0.03 16.48,2.01 22.78,11.83 6.27,9.72 13.75,20.35 22.42,31.91 1.14,1.5 2.7,2.67 4.5,3.33 23.05,8.59 49.97,19.72 79.39,30.83 22.27,8.4 36.05,21.28 49.79,43.85 22.15,36.32 41.78,70.65 58.95,103.01 2.97,5.61 6.45,12.01 3.48,17.44 -0.63,1.11 -4.47,5.04 -11.5,11.8 -20.56,19.69 -44.84,36.08 -72.85,49.1 -4.26,1.98 -9.94,4.05 -17.05,6.18 -3.18,0.96 -6.63,-0.27 -8.49,-3.03l-9.57 -14.38c-0.57,-0.87 -1.89,-0.57 -2.04,0.45 -1.2,8.49 -6.09,27.49 -14.71,57 -7.68,26.38 -12.7,59.19 -8.85,87.88 4.89,36.5 18.25,73.9 24.1,97.85 7.71,31.54 13.3,58.44 14.68,82.93 0.3,4.89 -2.04,7.95 -7.02,9.21 -59.76,14.95 -122.79,20.71 -182.91,20.71zm-50.6 -609.05c0.57,1.44 1.95,2.4 3.51,2.4l93.01 0c1.65,0 3.09,-1.08 3.6,-2.64l5.49 -17.53c0.78,-2.43 -1.05,-4.92 -3.6,-4.92l-105.32 0c-2.64,0 -4.47,2.67 -3.51,5.16l6.81 17.53zm118.35 -15.88c-1.86,15.94 -7.5,30.58 -16.96,44 -7.53,10.72 -19.69,24.91 -31.34,35 -1.26,1.11 -1.08,3.12 0.39,3.96l34.01 19.63c2.1,1.2 4.8,0.48 6.03,-1.62 11.08,-19.06 20.5,-41.69 28.27,-67.92 0.42,-1.47 0.06,-3.03 -0.96,-4.14 -7.11,-7.98 -13.36,-17.65 -18.67,-29.02 -0.18,-0.39 -0.72,-0.3 -0.78,0.12zm-138.52 3.78c-0.51,-0.27 -1.14,-0.12 -1.44,0.39l-14.23 24.67c-1.56,2.7 -1.98,5.94 -1.14,8.94 6.57,23.92 16.06,45.74 28.39,65.43 0.99,1.62 3.12,2.1 4.71,1.08l35.24 -22.51c0.9,-0.57 1.02,-1.86 0.24,-2.61 -9.63,-9.15 -19.21,-19.66 -28.75,-31.51 -10.8,-13.48 -15.28,-26.8 -21.94,-43.01 -0.09,-0.21 -0.24,-0.39 -0.42,-0.51l-0.66 -0.36zm70.59 26.29c-8.85,0.09 -21.49,0.15 -37.82,0.15 -1.53,0 -2.7,1.38 -2.46,2.91 0.15,0.96 0.9,2.22 2.22,3.81 11.14,13.36 22.42,25.27 33.83,35.72 1.35,1.23 2.88,1.86 4.59,1.83 1.77,0 3.33,-0.66 4.65,-1.92 11.23,-10.66 22.27,-22.78 33.17,-36.35 1.29,-1.59 2.01,-2.88 2.13,-3.84 0.24,-1.53 -0.96,-2.88 -2.49,-2.85 -16.36,0.27 -28.96,0.45 -37.82,0.54zm-158.45 159.89c2.34,-1.83 4.74,-3.12 7.2,-3.93 1.77,-0.57 3.6,0.72 3.66,2.58 0.03,0.84 -0.18,1.77 -0.63,2.79 -8.31,18.73 -12.55,38.24 -12.7,58.56 -0.12,15.19 7.71,38.39 19.99,47.9 29.38,22.78 58.29,17.68 90.97,2.58 1.41,-0.63 3.06,0.03 3.6,1.47l0.3 0.78c0.75,1.92 0,4.08 -1.74,5.16 -15.79,9.64 -33.38,14.35 -52.76,14.14 -17.02,-0.21 -31.97,-5.97 -44.9,-17.23 -1.02,-0.9 -2.64,-0.15 -2.64,1.2 -0.03,3.24 0.57,6.54 1.86,9.94 3.57,9.45 5.91,17.17 6.96,23.14 5.25,29.68 7.62,58.89 4.14,88.15 -0.09,0.9 -0.27,1.77 -0.54,2.61 -1.44,4.62 -2.46,9.18 -3.09,13.66 -0.12,0.87 -0.33,1.74 -0.63,2.58 -5.31,15.07 -7.86,28.36 -12.64,43.82 -5.58,18.04 -10.18,35.93 -13.81,53.67 -1.86,9.1 -3.15,14.65 -3.84,16.72 -3.18,9.3 -4.59,20.86 -4.86,27.04 -0.12,2.37 1.56,4.44 3.9,4.83 12.25,2.01 22.63,2.49 34.58,5.61 37.37,9.79 83.92,8.92 117.57,10.9 22.3,1.32 40.76,1.32 55.41,-0.03 6.99,-0.63 24.85,-1.74 53.64,-3.3 28.87,-1.59 57.06,-8.67 81.1,-13.72 1.14,-0.24 1.92,-1.26 1.86,-2.43 -0.69,-13.6 -2.16,-25.21 -4.44,-34.85 -5.7,-24.25 -10.05,-49.64 -17.02,-70.68 -5.07,-15.34 -8.61,-27.04 -10.6,-35.12 -6.6,-26.65 -8.58,-53.13 -5.94,-79.39 1.8,-17.98 9.94,-42.98 13.39,-60.45 0.27,-1.47 -1.26,-2.58 -2.55,-1.86 -4.23,2.34 -8.7,5.04 -13.45,8.07 -17.41,11.14 -36.47,12.97 -57.18,5.55 -11.5,-4.11 -20.56,-8.4 -27.16,-12.91 -1.62,-1.11 -2.19,-3.27 -1.29,-5.01l0.06 -0.12c0.9,-1.77 3.06,-2.52 4.89,-1.68 8.52,3.9 15.31,6.81 20.32,8.73 20.35,7.77 45.2,7.83 62.34,-6.72 6.63,-5.64 13.21,-12.97 19.75,-21.97 10.93,-15.1 6.96,-39.65 4.77,-57.6 -1.56,-12.94 -5.16,-21.19 -10.8,-33.68 -1.11,-2.46 1.8,-4.77 3.93,-3.12l4.65 3.6c1.77,1.35 4.35,0.18 4.47,-2.04 2.13,-37.61 11.38,-73.9 27.76,-108.89 1.14,-2.43 0,-5.34 -2.52,-6.33l-81.97 -31.73c-1.65,-0.63 -3.51,0.3 -3.96,2.01 -6.72,24.34 -17.35,48.5 -31.87,72.42 -2.1,3.45 -4.38,6.27 -6.81,8.4 -0.78,0.66 -1.8,0.9 -2.76,0.63 -11.71,-3.27 -22.45,-12.82 -33.68,-21.31 -1.38,-1.05 -3.33,-0.03 -3.3,1.68 0.75,33.23 0.75,66.78 0,100.64 -0.09,4.56 -2.13,6.93 -6.09,7.11 -15.52,0.69 -27.01,0.75 -34.49,0.24 -2.73,-0.18 -4.86,-2.43 -4.86,-5.16l0 -102.8c0,-1.53 -1.56,-2.58 -2.97,-1.95 -2.4,1.08 -4.14,2.1 -5.19,3.06 -5.01,4.59 -12.07,10.05 -21.22,16.42 -4.17,2.88 -10.23,3.66 -13.3,-0.66 -17.41,-24.58 -29.05,-50.42 -34.97,-77.56 -0.51,-2.34 -2.97,-3.66 -5.19,-2.79l-80.53 31.27c-2.31,0.87 -3.39,3.51 -2.4,5.79 15.34,34.85 25,71.85 29.05,111.05 0.06,0.57 0.72,0.84 1.17,0.48zm-44.54 -107.57c-14.74,15.76 -23.14,35.18 -33.86,52.31 -7.2,11.5 -12.63,20.59 -16.27,27.31 -12.73,23.5 -19.9,36.89 -21.55,40.13 -2.1,4.2 -3.63,8.25 -4.59,12.13 -0.27,1.02 0.09,2.1 0.9,2.76 20.47,17.32 33.47,27.55 39.02,30.64 10.54,5.91 22.48,12.91 35.84,20.98 2.97,1.77 6.78,1.05 8.88,-1.68l17.65 -22.81c0.9,-1.2 1.5,-2.61 1.71,-4.08l2.58 -17.86c0.21,-1.47 0.57,-2.88 1.08,-4.26 2.4,-6.57 3.48,-11.98 3.27,-16.21 -2.07,-42.23 -11.77,-81.73 -29.11,-118.5 -1.02,-2.16 -3.9,-2.61 -5.55,-0.87zm482.15 130.98c-6.69,-16.51 -14.17,-31.51 -22.39,-45.05 -14.44,-23.68 -28.9,-49.16 -40.7,-69.18 -3.69,-6.24 -8.13,-11.44 -13.27,-15.58 -1.17,-0.96 -2.91,-0.63 -3.69,0.66 -5.85,9.87 -10.65,21.04 -14.41,33.47 -7.65,25.33 -13.09,52.98 -16.3,82.93 -0.03,0.42 -0.03,0.84 0.06,1.26l8.43 41.96c0.3,1.44 0.96,2.76 1.89,3.84l17.59 20.17c1.2,1.38 3.15,1.89 4.89,1.26 11.02,-3.99 24.76,-12.28 34.07,-19.24 14.44,-10.81 28.36,-20.8 41.81,-29.95 2.13,-1.44 2.97,-4.17 2.01,-6.54zm-288.83 -11.34l20.29 -0.06c1.29,0 2.31,-1.02 2.31,-2.31l-0.18 -99.05c0,-5.34 -3.72,-9.69 -8.28,-9.66l-8.34 0c-4.59,0.03 -8.28,4.35 -8.28,9.72l0.18 99.05c0,1.26 1.05,2.31 2.31,2.31z"/>
   <path class="fil1" d="M246.65 38.87l-6.81 -17.53c-0.96,-2.49 0.87,-5.16 3.51,-5.16l105.32 0c2.55,0 4.38,2.49 3.6,4.92l-5.49 17.53c-0.51,1.56 -1.95,2.64 -3.6,2.64l-93.01 0c-1.56,0 -2.94,-0.96 -3.51,-2.4zm40.76 186.15c-1.26,0 -2.31,-1.05 -2.31,-2.31l-0.18 -99.05c0,-5.37 3.69,-9.7 8.28,-9.72l8.34 0c4.56,-0.03 8.28,4.32 8.28,9.66l0.18 99.05c0,1.29 -1.02,2.31 -2.31,2.31l-20.29 0.06zm288.83 11.34c0.96,2.37 0.12,5.1 -2.01,6.54 -13.45,9.15 -27.37,19.15 -41.81,29.95 -9.31,6.96 -23.05,15.25 -34.07,19.24 -1.74,0.63 -3.69,0.12 -4.89,-1.26l-17.59 -20.17c-0.93,-1.08 -1.59,-2.4 -1.89,-3.84l-8.43 -41.96c-0.09,-0.42 -0.09,-0.84 -0.06,-1.26 3.21,-29.95 8.64,-57.6 16.3,-82.93 3.75,-12.43 8.55,-23.59 14.41,-33.47 0.78,-1.29 2.52,-1.62 3.69,-0.66 5.13,4.14 9.57,9.33 13.27,15.58 11.8,20.02 26.26,45.5 40.7,69.18 8.22,13.54 15.7,28.54 22.39,45.05zm-482.15 -130.98c1.65,-1.74 4.53,-1.29 5.55,0.87 17.35,36.77 27.04,76.27 29.11,118.5 0.21,4.23 -0.87,9.64 -3.27,16.21 -0.51,1.38 -0.87,2.79 -1.08,4.26l-2.58 17.86c-0.21,1.47 -0.81,2.88 -1.71,4.08l-17.65 22.81c-2.1,2.73 -5.91,3.45 -8.88,1.68 -13.36,-8.07 -25.3,-15.07 -35.84,-20.98 -5.55,-3.09 -18.55,-13.33 -39.02,-30.64 -0.81,-0.66 -1.17,-1.74 -0.9,-2.76 0.96,-3.87 2.49,-7.92 4.59,-12.13 1.65,-3.24 8.83,-16.63 21.55,-40.13 3.63,-6.72 9.06,-15.82 16.27,-27.31 10.72,-17.14 19.12,-36.56 33.86,-52.31zm44.54 107.57c-0.45,0.36 -1.11,0.09 -1.17,-0.48 -4.05,-39.2 -13.72,-76.21 -29.05,-111.05 -0.99,-2.28 0.09,-4.92 2.4,-5.79l80.53 -31.27c2.22,-0.87 4.68,0.45 5.19,2.79 5.91,27.13 17.56,52.97 34.97,77.56 3.06,4.32 9.12,3.54 13.3,0.66 9.15,-6.36 16.21,-11.83 21.22,-16.42 1.05,-0.96 2.79,-1.98 5.19,-3.06 1.41,-0.63 2.97,0.42 2.97,1.95l0 102.8c0,2.73 2.13,4.98 4.86,5.16 7.47,0.51 18.97,0.45 34.49,-0.24 3.96,-0.18 6,-2.55 6.09,-7.11 0.75,-33.86 0.75,-67.41 0,-100.64 -0.03,-1.71 1.92,-2.73 3.3,-1.68 11.22,8.49 21.97,18.04 33.68,21.31 0.96,0.27 1.98,0.03 2.76,-0.63 2.43,-2.13 4.71,-4.95 6.81,-8.4 14.53,-23.92 25.15,-48.08 31.87,-72.42 0.45,-1.71 2.31,-2.64 3.96,-2.01l81.97 31.73c2.52,0.99 3.66,3.9 2.52,6.33 -16.39,35 -25.63,71.28 -27.76,108.89 -0.12,2.22 -2.7,3.39 -4.47,2.04l-4.65 -3.6c-2.13,-1.65 -5.04,0.66 -3.93,3.12 5.64,12.49 9.24,20.74 10.8,33.68 2.19,17.95 6.15,42.5 -4.77,57.6 -6.54,9 -13.12,16.33 -19.75,21.97 -17.14,14.56 -41.99,14.5 -62.34,6.72 -5.01,-1.92 -11.8,-4.83 -20.32,-8.73 -1.83,-0.84 -3.99,-0.09 -4.89,1.68l-0.06 0.12c-0.9,1.74 -0.33,3.9 1.29,5.01 6.6,4.5 15.67,8.79 27.16,12.91 20.71,7.41 39.77,5.58 57.18,-5.55 4.74,-3.03 9.21,-5.73 13.45,-8.07 1.29,-0.72 2.82,0.39 2.55,1.86 -3.45,17.47 -11.58,42.47 -13.39,60.45 -2.64,26.26 -0.66,52.73 5.94,79.39 1.98,8.07 5.52,19.78 10.6,35.12 6.96,21.04 11.31,46.43 17.02,70.68 2.28,9.63 3.75,21.25 4.44,34.85 0.06,1.17 -0.72,2.19 -1.86,2.43 -24.04,5.04 -52.22,12.13 -81.1,13.72 -28.78,1.56 -46.64,2.67 -53.64,3.3 -14.65,1.35 -33.11,1.35 -55.41,0.03 -33.65,-1.98 -80.2,-1.11 -117.57,-10.9 -11.95,-3.12 -22.33,-3.6 -34.58,-5.61 -2.34,-0.39 -4.02,-2.46 -3.9,-4.83 0.27,-6.18 1.68,-17.74 4.86,-27.04 0.69,-2.07 1.98,-7.62 3.84,-16.72 3.63,-17.74 8.22,-35.63 13.81,-53.67 4.77,-15.46 7.32,-28.75 12.64,-43.82 0.3,-0.84 0.51,-1.71 0.63,-2.58 0.63,-4.47 1.65,-9.03 3.09,-13.66 0.27,-0.84 0.45,-1.71 0.54,-2.61 3.48,-29.26 1.11,-58.47 -4.14,-88.15 -1.05,-5.97 -3.39,-13.69 -6.96,-23.14 -1.29,-3.39 -1.89,-6.69 -1.86,-9.94 0,-1.35 1.62,-2.1 2.64,-1.2 12.94,11.26 27.88,17.02 44.9,17.23 19.39,0.21 36.98,-4.5 52.76,-14.14 1.74,-1.08 2.49,-3.24 1.74,-5.16l-0.3 -0.78c-0.54,-1.44 -2.19,-2.1 -3.6,-1.47 -32.69,15.1 -61.59,20.2 -90.97,-2.58 -12.28,-9.51 -20.11,-32.72 -19.99,-47.9 0.15,-20.32 4.38,-39.83 12.7,-58.56 0.45,-1.02 0.66,-1.95 0.63,-2.79 -0.06,-1.86 -1.89,-3.15 -3.66,-2.58 -2.46,0.81 -4.86,2.1 -7.2,3.93zm158.81 -115.46c-1.71,0.03 -3.24,-0.6 -4.59,-1.83 -11.4,-10.45 -22.69,-22.36 -33.83,-35.72 -1.32,-1.59 -2.07,-2.85 -2.22,-3.81 -0.24,-1.53 0.93,-2.91 2.46,-2.91 16.33,0 28.96,-0.06 37.82,-0.15 8.85,-0.09 21.46,-0.27 37.82,-0.54 1.53,-0.03 2.73,1.32 2.49,2.85 -0.12,0.96 -0.84,2.25 -2.13,3.84 -10.9,13.57 -21.94,25.69 -33.17,36.35 -1.32,1.26 -2.88,1.92 -4.65,1.92zm-70.95 -70.71l0.66 0.36c0.18,0.12 0.33,0.3 0.42,0.51 6.66,16.21 11.14,29.53 21.94,43.01 9.54,11.86 19.12,22.36 28.75,31.51 0.78,0.75 0.66,2.04 -0.24,2.61l-35.24 22.51c-1.59,1.02 -3.72,0.54 -4.71,-1.08 -12.34,-19.69 -21.82,-41.51 -28.39,-65.43 -0.84,-3 -0.42,-6.24 1.14,-8.94l14.23 -24.67c0.3,-0.51 0.93,-0.66 1.44,-0.39zm138.52 -3.78c0.06,-0.42 0.6,-0.51 0.78,-0.12 5.31,11.38 11.56,21.04 18.67,29.02 1.02,1.11 1.38,2.67 0.96,4.14 -7.77,26.23 -17.2,48.86 -28.27,67.92 -1.23,2.1 -3.93,2.82 -6.03,1.62l-34.01 -19.63c-1.47,-0.84 -1.65,-2.85 -0.39,-3.96 11.65,-10.08 23.8,-24.28 31.34,-35 9.45,-13.42 15.1,-28.06 16.96,-44z"/>
  </g>
 </g>
</svg>
