<?xml version="1.0" encoding="UTF-8"?>
<!DOCTYPE svg PUBLIC "-//W3C//DTD SVG 1.1//EN" "http://www.w3.org/Graphics/SVG/1.1/DTD/svg11.dtd">
<!-- Creator: CorelDRAW -->
<svg xmlns="http://www.w3.org/2000/svg" xml:space="preserve" width="64.9247mm" height="70.7451mm" version="1.1" style="shape-rendering:geometricPrecision; text-rendering:geometricPrecision; image-rendering:optimizeQuality; fill-rule:evenodd; clip-rule:evenodd"
viewBox="0 0 546.28 595.26"
 xmlns:xlink="http://www.w3.org/1999/xlink"
 xmlns:xodm="http://www.corel.com/coreldraw/odm/2003">
 <defs>
  <style type="text/css">
   <![CDATA[
    .fil0 {fill:black;fill-rule:nonzero}
    .fil1 {fill:#E88EA0;fill-rule:nonzero}
   ]]>
  </style>
 </defs>
 <g id="Camada_x0020_1">
  <metadata id="CorelCorpID_0Corel-Layer"/>
  <g id="_1890199164736">
   <path class="fil0" d="M273.21 14.45c24.07,0.03 45.55,-5.34 67.55,-13.87 1.87,-0.72 3.96,-0.69 5.8,0.09 25.39,10.8 58.16,24.01 98.3,39.63 22.34,8.7 35.41,22.77 48.02,44.51 20.51,35.3 36.88,66.69 49.14,94.14 2.01,4.51 3.39,8.53 4.14,12.09 0.4,1.95 -0.17,3.99 -1.58,5.43 -26.28,27.2 -57.32,46.9 -93.13,59.07 -10.91,3.73 -11.34,-6.43 -15.91,-10.94 -0.69,-0.69 -1.9,-0.26 -1.98,0.75 -0.17,2.38 -4.34,19.53 -12.52,51.49 -10.8,42.22 -9.94,84.17 2.58,125.87 13.21,43.97 22.37,87.42 27.51,130.38 0.66,5.54 0.43,9.71 -0.69,12.44 -0.49,1.21 -1.44,2.21 -2.64,2.76 -14.7,6.86 -33.89,12.29 -57.58,16.28 -42.45,7.15 -81.53,10.71 -117.23,10.68 -35.73,0 -74.78,-3.59 -117.23,-10.77 -23.69,-4.02 -42.88,-9.45 -57.58,-16.34 -1.21,-0.55 -2.13,-1.55 -2.64,-2.76 -1.12,-2.73 -1.35,-6.89 -0.66,-12.43 5.17,-42.96 14.36,-86.42 27.6,-130.35 12.58,-41.7 13.47,-83.66 2.7,-125.87 -8.16,-31.97 -12.32,-49.14 -12.49,-51.52 -0.06,-0.98 -1.26,-1.44 -1.98,-0.75 -4.57,4.51 -5,14.68 -15.91,10.94 -35.78,-12.21 -66.83,-31.94 -93.08,-59.16 -1.41,-1.44 -1.98,-3.48 -1.58,-5.43 0.75,-3.56 2.13,-7.58 4.14,-12.09 12.29,-27.43 28.69,-58.82 49.22,-94.08 12.64,-21.74 25.7,-35.81 48.05,-44.49 40.18,-15.59 72.95,-28.78 98.36,-39.55 1.84,-0.78 3.91,-0.8 5.8,-0.09 21.97,8.56 43.45,13.93 67.52,13.93zm-0.75 73.61c31.05,0.09 64.07,-15.02 78.6,-44.17 2.35,-4.74 4.97,-10.8 7.84,-18.15 0.8,-2.04 -0.17,-4.37 -2.18,-5.2l-5.92 -2.5c-2.44,-1.01 -5.2,0.43 -5.74,2.99 -7.64,35.47 -38.23,52.84 -72.54,52.73 -34.35,-0.12 -64.82,-17.69 -72.2,-53.19 -0.55,-2.58 -3.3,-4.05 -5.74,-3.05l-5.92 2.47c-2.04,0.83 -3.02,3.13 -2.24,5.17 2.84,7.38 5.4,13.44 7.73,18.18 14.33,29.26 47.27,44.6 78.32,44.72zm-56.03 -64.62c5,15.08 13.99,25.33 28.69,31.22 33.34,13.3 74.12,2.58 89.46,-31.88 0.43,-0.98 -0.23,-2.1 -1.29,-2.21 -2.61,-0.29 -5.14,-0.09 -7.58,0.63 -21.97,6.52 -42.99,9.3 -63.12,8.3 -15.54,-0.75 -30.61,-6.29 -44,-8.59 -1.44,-0.26 -2.61,1.12 -2.15,2.53zm-88.57 151.55l3.73 -3.73c1.21,-1.21 3.3,-0.23 3.1,1.49 -0.32,2.9 -1.72,7.21 -4.25,12.92 -13.44,30.41 -3.27,58.73 6.2,91.67 7.87,27.31 11.34,57.78 10.4,91.36 -0.46,16.57 -5.54,42.53 -8.41,56.23 -1,4.85 -2.44,9.76 -4.25,14.73 -11.14,30.24 -18.09,61.29 -20.85,93.14 -0.09,0.95 -0.26,1.87 -0.52,2.76 -1.67,5.94 -2.67,12.12 -3.04,18.55 -0.09,1.69 0.95,3.24 2.53,3.85 6.2,2.27 9.77,3.5 10.71,3.7 6.46,1.32 24.78,5.23 55.02,11.69 3.3,0.72 12.61,2.24 27.89,4.62 8.99,1.41 18.38,2.18 28.12,2.36 31.65,0.6 58.87,0.49 81.65,-0.32 10.77,-0.4 19.59,-1.35 26.39,-2.87 13.41,-3.02 21.97,-4.68 25.7,-5 21.31,-1.9 41.64,-5.83 61,-11.83 10.68,-3.3 5.43,-10.02 4.6,-16.66 -3.13,-24.73 -6.49,-45.26 -10.05,-61.57 -2.56,-11.6 -5.97,-23.98 -10.28,-37.13 -4.22,-12.89 -6.92,-22.89 -8.1,-29.95 -3.3,-20.05 -4.97,-30.27 -5.03,-30.64 -5.6,-37.16 0.57,-75.56 11.29,-112.12 6.58,-22.46 15.51,-55.08 7.9,-75.67 -5.54,-14.96 -8.39,-22.97 -8.59,-23.98 -0.34,-1.9 1.64,-3.36 3.36,-2.47 1.87,1 3.42,2.33 4.71,4.02 0.83,1.06 2.53,0.57 2.64,-0.78 2.84,-36.9 12.23,-72.6 28.17,-107.09 0.89,-1.9 3.25,-4.25 3.59,-5.8 0.2,-1 -0.32,-1.98 -1.26,-2.35l-81.25 -31.45c-1.26,-0.49 -2.7,0.2 -3.1,1.49 -3.3,11.06 -8.36,21.63 -15.19,31.68 -23.12,33.89 -80.59,47.36 -118.26,31.3 -28.49,-12.15 -47.3,-33.14 -56.43,-62.92 -0.32,-1.06 -1.46,-1.61 -2.5,-1.21l-77.2 29.95c-2.1,0.83 -3.02,3.25 -2.04,5.26 16.51,33.69 26.08,70.88 28.72,111.57 0.09,1.61 2.04,2.36 3.19,1.21zm331.59 -107.9c-12.69,27.28 -21.97,56.58 -27.86,87.91 -5.66,29.98 0.17,57.47 17.49,82.45 1.15,1.67 3.3,2.21 5.11,1.35 6.98,-3.36 14.62,-5.49 22.23,-9.94 18.06,-10.57 35.3,-22.95 51.69,-37.13 1.09,-0.92 1.41,-2.47 0.8,-3.73 -7.32,-15.48 -12.92,-30.82 -21.63,-46.41 -9.31,-16.66 -18.55,-33.46 -27.74,-50.4 -4.85,-8.93 -10.54,-17.12 -17,-24.55 -0.89,-1.01 -2.53,-0.77 -3.1,0.46zm-374.58 0.98c-1.64,0.89 -3.07,2.15 -4.31,3.82 -9.59,12.75 -15.74,20.91 -22.95,36.62 -7.06,15.45 -11.63,24.55 -13.67,27.34 -6.78,9.13 -11.03,15.65 -12.75,19.56 -7.93,18.06 -12.44,28.14 -13.56,30.3 -0.49,0.98 -0.55,2.12 -0.12,3.13 1.52,3.7 3.73,6.63 6.61,8.85 18.93,14.59 38.02,27.05 57.29,37.36 4.16,2.24 8.19,3.59 12,4.02 1.72,0.2 3.42,-0.49 4.51,-1.84 6.95,-8.62 11.52,-16.77 13.67,-24.44 2.9,-10.34 5.4,-22.6 4.25,-35.5 -3.36,-37.56 -12.12,-73.41 -26.28,-107.55 -0.78,-1.84 -2.96,-2.61 -4.71,-1.67z"/>
   <path class="fil1" d="M272.52 73.75c34.32,0.11 64.9,-17.26 72.54,-52.73 0.55,-2.56 3.3,-3.99 5.74,-2.99l5.92 2.5c2.01,0.83 2.99,3.16 2.18,5.2 -2.87,7.35 -5.49,13.41 -7.84,18.15 -14.53,29.15 -47.56,44.26 -78.6,44.17 -31.04,-0.12 -63.99,-15.45 -78.32,-44.72 -2.33,-4.74 -4.88,-10.8 -7.73,-18.18 -0.77,-2.04 0.2,-4.34 2.24,-5.17l5.92 -2.47c2.44,-1 5.2,0.46 5.74,3.05 7.38,35.5 37.85,53.07 72.2,53.19zm-187.65 -5.69c1.75,-0.95 3.93,-0.17 4.71,1.67 14.16,34.15 22.92,69.99 26.28,107.55 1.15,12.89 -1.35,25.16 -4.25,35.5 -2.15,7.67 -6.72,15.82 -13.67,24.44 -1.09,1.35 -2.79,2.04 -4.51,1.84 -3.82,-0.43 -7.84,-1.78 -12,-4.02 -19.27,-10.31 -38.37,-22.77 -57.29,-37.36 -2.87,-2.21 -5.08,-5.14 -6.61,-8.85 -0.43,-1.01 -0.37,-2.15 0.12,-3.13 1.12,-2.15 5.63,-12.23 13.56,-30.3 1.72,-3.91 5.97,-10.43 12.75,-19.56 2.04,-2.79 6.61,-11.89 13.67,-27.34 7.21,-15.71 13.36,-23.87 22.95,-36.62 1.24,-1.67 2.67,-2.93 4.31,-3.82zm374.58 -0.98c0.57,-1.23 2.21,-1.46 3.1,-0.46 6.46,7.44 12.15,15.62 17,24.55 9.19,16.94 18.44,33.74 27.74,50.4 8.7,15.59 14.3,30.93 21.63,46.41 0.6,1.26 0.29,2.81 -0.8,3.73 -16.4,14.19 -33.63,26.56 -51.69,37.13 -7.61,4.45 -15.25,6.58 -22.23,9.94 -1.81,0.86 -3.96,0.32 -5.11,-1.35 -17.32,-24.98 -23.15,-52.47 -17.49,-82.45 5.89,-31.33 15.16,-60.63 27.86,-87.91zm-331.59 107.9c-1.15,1.15 -3.1,0.4 -3.19,-1.21 -2.64,-40.69 -12.2,-77.89 -28.72,-111.57 -0.98,-2.01 -0.06,-4.42 2.04,-5.26l77.2 -29.95c1.03,-0.4 2.18,0.14 2.5,1.21 9.13,29.78 27.94,50.78 56.43,62.92 37.68,16.05 95.15,2.58 118.26,-31.3 6.84,-10.05 11.89,-20.62 15.19,-31.68 0.4,-1.29 1.84,-1.98 3.1,-1.49l81.25 31.45c0.95,0.37 1.46,1.35 1.26,2.35 -0.34,1.55 -2.7,3.91 -3.59,5.8 -15.94,34.49 -25.33,70.19 -28.17,107.09 -0.11,1.35 -1.81,1.84 -2.64,0.78 -1.29,-1.69 -2.84,-3.02 -4.71,-4.02 -1.72,-0.89 -3.7,0.57 -3.36,2.47 0.2,1.01 3.04,9.02 8.59,23.98 7.61,20.59 -1.32,53.22 -7.9,75.67 -10.71,36.56 -16.89,74.96 -11.29,112.12 0.06,0.37 1.72,10.6 5.03,30.64 1.18,7.06 3.88,17.06 8.1,29.95 4.31,13.15 7.73,25.53 10.28,37.13 3.56,16.31 6.92,36.85 10.05,61.57 0.83,6.63 6.09,13.35 -4.6,16.66 -19.36,6 -39.69,9.94 -61,11.83 -3.73,0.32 -12.29,1.98 -25.7,5 -6.81,1.52 -15.62,2.47 -26.39,2.87 -22.77,0.8 -50,0.92 -81.65,0.32 -9.74,-0.17 -19.13,-0.95 -28.12,-2.36 -15.28,-2.38 -24.58,-3.91 -27.89,-4.62 -30.24,-6.46 -48.56,-10.37 -55.02,-11.69 -0.95,-0.2 -4.51,-1.44 -10.71,-3.7 -1.58,-0.6 -2.61,-2.15 -2.53,-3.85 0.37,-6.43 1.38,-12.61 3.04,-18.55 0.26,-0.89 0.43,-1.81 0.52,-2.76 2.76,-31.85 9.71,-62.89 20.85,-93.14 1.81,-4.97 3.25,-9.88 4.25,-14.73 2.87,-13.7 7.96,-39.66 8.41,-56.23 0.95,-33.57 -2.53,-64.04 -10.4,-91.36 -9.48,-32.94 -19.64,-61.26 -6.2,-91.67 2.53,-5.71 3.93,-10.02 4.25,-12.92 0.2,-1.72 -1.89,-2.7 -3.1,-1.49l-3.73 3.73zm88.57 -151.55c-0.46,-1.41 0.72,-2.79 2.15,-2.53 13.38,2.3 28.46,7.84 44,8.59 20.13,1 41.15,-1.78 63.12,-8.3 2.44,-0.72 4.97,-0.92 7.58,-0.63 1.06,0.11 1.72,1.23 1.29,2.21 -15.34,34.46 -56.12,45.17 -89.46,31.88 -14.7,-5.89 -23.69,-16.14 -28.69,-31.22z"/>
  </g>
 </g>
</svg>
