<?xml version="1.0" encoding="UTF-8"?>
<!DOCTYPE svg PUBLIC "-//W3C//DTD SVG 1.1//EN" "http://www.w3.org/Graphics/SVG/1.1/DTD/svg11.dtd">
<!-- Creator: CorelDRAW -->
<svg xmlns="http://www.w3.org/2000/svg" xml:space="preserve" width="76.1314mm" height="73.93mm" version="1.1" style="shape-rendering:geometricPrecision; text-rendering:geometricPrecision; image-rendering:optimizeQuality; fill-rule:evenodd; clip-rule:evenodd"
viewBox="0 0 603.49 586.04"
 xmlns:xlink="http://www.w3.org/1999/xlink"
 xmlns:xodm="http://www.corel.com/coreldraw/odm/2003">
 <defs>
  <style type="text/css">
   <![CDATA[
    .fil1 {fill:black;fill-rule:nonzero}
    .fil0 {fill:#6699FF;fill-rule:nonzero}
   ]]>
  </style>
 </defs>
 <g id="Camada_x0020_1">
  <metadata id="CorelCorpID_0Corel-Layer"/>
  <g id="_1889579745840">
   <path class="fil0" d="M301.4 75.9c21.23,0.06 39.74,-8.25 55.59,-24.94 9.23,-9.7 11.63,-20.19 15.44,-31.4 0.56,-1.68 2.43,-2.52 4.05,-1.79l7.07 3.19c1.57,0.73 2.38,2.49 1.85,4.14 -12.7,40.8 -40.41,63.65 -84.03,63.54 -43.6,-0.11 -71.23,-23.1 -83.73,-63.95 -0.5,-1.65 0.31,-3.44 1.9,-4.14l7.07 -3.16c1.62,-0.7 3.5,0.14 4.06,1.82 3.75,11.24 6.1,21.73 15.27,31.49 15.77,16.75 34.26,25.17 55.45,25.22zm-0.59 488.54c30.09,0.06 55.99,-0.89 75.67,-1.87 14.01,-0.7 37.42,-4.03 70.22,-10.01 2.18,-0.42 4.17,1.4 3.97,3.61l0 0.17c-0.22,2.57 -2.15,4.7 -4.7,5.17 -19.44,3.69 -32.8,5.87 -40.1,6.54 -42.23,3.83 -69.16,6.24 -105.09,6.15 -35.93,-0.11 -62.86,-2.63 -105.06,-6.68 -7.3,-0.7 -20.64,-2.96 -40.07,-6.74 -2.54,-0.5 -4.45,-2.63 -4.67,-5.2l0 -0.17c-0.2,-2.21 1.79,-4 4,-3.58 32.77,6.15 56.15,9.59 70.16,10.35 19.69,1.06 45.58,2.18 75.67,2.26zm-226.82 -26.01c1.57,0.31 2.57,1.87 2.18,3.44l-6.74 26.99c-0.42,1.76 -2.13,2.94 -3.92,2.68 -12.67,-1.71 -28.22,-4.47 -46.67,-8.25 -2.99,-0.62 -4.47,-3.38 -4.45,-8.28 0.06,-4.67 0.81,-12.33 2.24,-23.02 0.31,-2.15 2.43,-3.55 4.53,-2.94 9.9,2.88 15.6,4.19 17.09,3.92 1.2,-0.22 7.77,0.64 19.77,2.63 4.75,0.78 10.07,1.73 15.97,2.82zm514.3 20.02c0.42,2.68 -1.4,5.23 -4.11,5.68l-43.43 7.02c-5.82,0.95 -11.02,-1.2 -11.58,-4.78l-3.69 -22.79c-0.59,-3.58 3.66,-7.27 9.48,-8.19l43.43 -7.05c2.68,-0.42 5.23,1.4 5.68,4.11l4.22 26.01zm-507.05 -30.93c-0.42,1.34 -1.73,2.21 -3.16,2.07 -19.6,-1.93 -39.23,-5.51 -58.84,-10.71 -1.43,-0.39 -2.4,-1.65 -2.43,-3.13 -0.14,-12.86 0.25,-24.89 2.18,-38.34 4.22,-29.73 9.73,-62.64 16.53,-98.69 3.78,-20.08 8.11,-44.3 12.95,-72.68 5.65,-33.03 13.03,-65.55 22.18,-97.6 4.61,-16.16 6.66,-33.84 9.4,-46.56 0.2,-0.87 0.45,-1.73 0.78,-2.55 2.41,-5.9 4.39,-12.44 5.93,-19.63 0.03,-0.25 0.11,-0.47 0.22,-0.7l3.83 -8.28c0.06,-0.11 0.11,-0.22 0.14,-0.36 4.19,-19.27 11.21,-37.11 21.03,-53.5 0.62,-1.03 2.13,-1.06 2.77,-0.03 4.73,7.55 8.42,15.77 11.1,24.69 7.58,25.28 12.64,46.14 15.16,62.59 0.84,5.45 2.04,14.49 3.61,27.13 1.76,14.23 2.6,28.19 2.52,41.84 -0.06,8.19 -1.59,17.81 -4.61,28.8 -4.45,16.19 -10.43,38.73 -17.93,67.62 -0.56,2.15 -0.78,4 -0.67,5.54 0.08,0.81 -0.08,1.65 -0.42,2.43 -1.03,2.24 -3.92,15.13 -8.64,38.7 -4.28,21.42 -10.54,49.39 -18.74,83.89 -5.15,21.67 -8.39,46.62 -14.88,67.45zm408.42 -452.44c4.95,6.6 9.45,14.79 13.48,24.58 3.78,9.12 7.63,20.75 11.58,34.93 4.81,17.25 9.65,31.63 13.93,50.39 10.35,45.72 19.3,87.33 26.85,124.83 5.26,26.09 8.03,57.94 15.32,83.64 0.08,0.34 0.14,0.67 0.17,1.03l0.45 10.68c0.03,0.53 0.08,1.06 0.17,1.59l10.85 71.87c0.03,0.36 0.06,0.7 0.03,1.06 -0.64,12 0.08,23.46 2.13,34.4 0.5,2.63 -1.09,5.2 -3.66,5.93 -18.9,5.4 -37.89,8.67 -56.96,9.84 -1.31,0.08 -2.52,-0.81 -2.82,-2.1l-4.98 -20.3c-0.03,-0.14 -0.06,-0.31 -0.08,-0.45 -0.39,-8.25 -2.27,-15.41 -5.65,-21.53 -0.53,-0.92 -0.87,-1.93 -1.06,-2.96 -6.99,-38.84 -11.63,-63.76 -13.9,-74.69 -2.6,-12.5 -8.36,-30.34 -10.49,-44.52 -1.31,-8.56 -4.73,-16.64 -6.66,-25.98 -4.42,-21.28 -10.71,-47.9 -18.88,-79.81 -2.6,-10.24 -3.66,-20.83 -3.16,-31.82 0.81,-17.17 2.13,-32.55 3.94,-46.17 1.99,-14.85 3.05,-22.76 3.19,-23.77 0.98,-8.22 2.43,-16.08 4.36,-23.57 5.45,-21.34 12.19,-40.33 20.16,-56.94 0.34,-0.67 1.26,-0.75 1.71,-0.17zm-336.25 470.17c-1.2,-0.28 -2.01,-1.4 -1.87,-2.63 2.52,-25.31 4.87,-45.75 5.06,-70.95 0.08,-13.7 0.5,-23.63 1.23,-29.81 0.98,-8.39 1.17,-18.29 0.62,-29.73 -1.15,-23.41 2.15,-49.92 1.51,-73.27 -1.54,-54.53 -2.88,-90.86 -3.97,-108.98 -0.25,-4.05 -0.42,-6.52 -0.45,-7.38 -1.9,-31.52 -5.82,-60.35 -11.77,-86.44 -5.28,-23.24 -12.92,-45.5 -22.85,-66.78 -0.47,-0.98 -0.03,-2.18 0.95,-2.66l85.63 -41.44c1.45,-0.7 3.19,0.03 3.72,1.54 2.52,6.99 4.42,15.6 7.75,21.36 21.92,38.12 55.79,52.99 97.9,48.1 38.37,-4.45 66.39,-33.14 75.67,-70.44 0.25,-1.01 1.4,-1.51 2.32,-1.03 20.05,10.18 40.38,19.41 61.02,27.68 10.12,4.03 18.12,9.96 26.87,14.71 0.62,0.34 0.84,1.12 0.47,1.71 -14.29,23.8 -19.8,48.74 -26.82,77.35 -3.44,14.04 -5.43,25.73 -5.98,35.07 -0.5,8.33 -1.54,19.77 -3.1,34.28 -0.87,7.94 -1.48,19.38 -1.87,34.34 -2.54,98.55 -0.78,197.09 5.34,295.61 0.06,0.95 -0.62,1.76 -1.57,1.87 -20.39,2.26 -41.11,4.05 -63.4,6.8 -48.71,5.93 -94.19,6.99 -143.18,2.07 -33.03,-3.3 -60.57,-4.22 -89.24,-10.96zm148.41 -518.38c19.27,0.03 40.91,-4.31 57.66,-7.33 1.12,-0.2 2.01,0.89 1.62,1.96 -5.01,12.86 -44.18,15.74 -59.31,15.72 -15.1,-0.03 -54.28,-3.05 -59.23,-15.91 -0.42,-1.06 0.47,-2.15 1.59,-1.96 16.75,3.08 38.37,7.49 57.66,7.52z"/>
   <path class="fil1" d="M458.45 308.23c-0.11,-0.39 -0.48,-0.64 -0.87,-0.59 -0.39,0.06 -0.7,0.39 -0.7,0.78 0.22,82.89 5.51,182.13 7.58,251.46 0.22,8.08 -3.86,10.77 -11.44,12.44 -15.52,3.38 -24.75,5.28 -27.74,5.65 -70.72,9.14 -141.5,10.51 -212.36,4.11 -15.94,-1.43 -32.24,-3.52 -48.88,-6.26 -7.35,-1.2 -14.21,-3.33 -20.55,-6.35 -2.85,-1.37 -4.67,-4.25 -4.64,-7.41 0.2,-23.77 1.2,-56.66 3.02,-98.69 2.38,-54.78 3.78,-98.6 4.19,-131.43 0.14,-9.42 -0.03,-17.03 -0.5,-22.82 -0.03,-0.36 -0.34,-0.67 -0.7,-0.7 -0.36,-0.06 -0.73,0.2 -0.81,0.56 -10.04,38.34 -18.68,77.13 -25.87,116.36 -5.56,30.26 -11.35,52.27 -19.6,88.7 -2.15,9.51 -4.78,18.01 -7.91,25.48 -0.14,0.31 -0.22,0.62 -0.31,0.95l-8.81 38.06c-0.64,2.82 -3.16,4.81 -6.04,4.78 -24.02,-0.06 -47.71,-3.66 -71,-10.79 -2.41,-0.76 -4.14,-2.88 -4.33,-5.4 -0.84,-10.21 1.65,-20.97 3.8,-32.24 0.67,-3.5 0.81,-9.68 0.42,-18.57 -0.39,-9.09 -0.08,-17.65 0.95,-25.67 6.8,-53.05 15.24,-108.92 25.34,-167.56 4.25,-24.64 8.36,-45.64 12.36,-63 12.58,-54.67 23.63,-102.01 40.35,-152.8 6.38,-19.38 17.98,-44.27 36.02,-54.59 25.73,-14.71 63.82,-28.8 111.72,-52.18 1.34,-0.64 2.88,-0.67 4.22,-0.08 42.93,18.79 86.27,18.82 130.09,0.11 1.45,-0.62 3.08,-0.56 4.47,0.11 15.46,7.47 43.99,20.05 85.57,37.75 6.46,2.74 15.46,6.99 26.96,12.72 23.49,11.72 31.15,37.44 40.24,66.78 4.11,13.28 11.07,38.03 20.86,74.22 3.69,13.67 6.66,26.37 8.87,38.03 2.82,14.96 7.91,33.17 11.24,50.95 8.56,45.89 16.92,95.28 25.11,148.18 4.67,30.17 8.03,56.04 9.03,86.3 0.45,13.26 2.29,29.17 5.51,47.71 0.5,2.88 -0.03,5.2 -1.59,6.96 -1.06,1.2 -3.22,2.27 -6.43,3.19 -18.04,5.17 -38.34,8.64 -60.93,10.43 -8.14,0.64 -13.17,-2.99 -15.07,-10.96 -5.31,-22.06 -11.02,-41.14 -15.02,-59.17 -16.78,-75.7 -29.05,-132.33 -36.83,-169.89 -0.31,-1.48 -3.3,-13.34 -8.98,-35.63zm-157.08 -219.61c43.62,0.11 71.34,-22.74 84.03,-63.54 0.53,-1.65 -0.28,-3.41 -1.85,-4.14l-7.07 -3.19c-1.62,-0.73 -3.5,0.11 -4.05,1.79 -3.8,11.21 -6.21,21.7 -15.44,31.4 -15.86,16.7 -34.37,25 -55.59,24.94 -21.2,-0.06 -39.68,-8.47 -55.45,-25.22 -9.17,-9.76 -11.52,-20.25 -15.27,-31.49 -0.56,-1.68 -2.43,-2.52 -4.06,-1.82l-7.07 3.16c-1.59,0.7 -2.41,2.49 -1.9,4.14 12.5,40.86 40.13,63.84 83.73,63.95zm0.42 -51.4c15.13,0.03 54.31,-2.85 59.31,-15.72 0.39,-1.06 -0.5,-2.15 -1.62,-1.96 -16.75,3.02 -38.4,7.35 -57.66,7.33 -19.3,-0.03 -40.91,-4.45 -57.66,-7.52 -1.12,-0.2 -2.01,0.89 -1.59,1.96 4.95,12.86 44.13,15.88 59.23,15.91zm-148.38 508.03c28.66,6.74 56.21,7.66 89.24,10.96 48.99,4.92 94.46,3.86 143.18,-2.07 22.29,-2.74 43.01,-4.53 63.4,-6.8 0.95,-0.11 1.62,-0.92 1.57,-1.87 -6.12,-98.52 -7.89,-197.07 -5.34,-295.61 0.39,-14.96 1.01,-26.4 1.87,-34.34 1.57,-14.51 2.6,-25.95 3.1,-34.28 0.56,-9.34 2.55,-21.03 5.98,-35.07 7.02,-28.61 12.53,-53.55 26.82,-77.35 0.36,-0.59 0.14,-1.37 -0.47,-1.71 -8.75,-4.75 -16.75,-10.68 -26.87,-14.71 -20.64,-8.28 -40.97,-17.51 -61.02,-27.68 -0.92,-0.48 -2.07,0.03 -2.32,1.03 -9.28,37.31 -37.3,66 -75.67,70.44 -42.12,4.89 -75.98,-9.98 -97.9,-48.1 -3.33,-5.76 -5.23,-14.37 -7.75,-21.36 -0.53,-1.51 -2.26,-2.24 -3.72,-1.54l-85.63 41.44c-0.98,0.47 -1.43,1.68 -0.95,2.66 9.93,21.28 17.56,43.54 22.85,66.78 5.96,26.09 9.87,54.92 11.77,86.44 0.03,0.87 0.2,3.33 0.45,7.38 1.09,18.12 2.43,54.45 3.97,108.98 0.64,23.35 -2.66,49.86 -1.51,73.27 0.56,11.44 0.36,21.34 -0.62,29.73 -0.73,6.18 -1.15,16.11 -1.23,29.81 -0.2,25.2 -2.54,45.64 -5.06,70.95 -0.14,1.23 0.67,2.35 1.87,2.63zm336.25 -470.17c-0.45,-0.59 -1.37,-0.5 -1.71,0.17 -7.97,16.61 -14.71,35.6 -20.16,56.94 -1.93,7.49 -3.38,15.35 -4.36,23.57 -0.14,1.01 -1.2,8.92 -3.19,23.77 -1.82,13.62 -3.13,29 -3.94,46.17 -0.5,10.99 0.56,21.59 3.16,31.82 8.17,31.91 14.46,58.53 18.88,79.81 1.93,9.34 5.34,17.42 6.66,25.98 2.13,14.18 7.89,32.02 10.49,44.52 2.26,10.93 6.91,35.85 13.9,74.69 0.2,1.03 0.53,2.04 1.06,2.96 3.38,6.12 5.26,13.28 5.65,21.53 0.03,0.14 0.06,0.31 0.08,0.45l4.98 20.3c0.31,1.29 1.51,2.18 2.82,2.1 19.07,-1.17 38.06,-4.45 56.96,-9.84 2.57,-0.73 4.17,-3.3 3.66,-5.93 -2.04,-10.93 -2.77,-22.4 -2.13,-34.4 0.03,-0.36 0,-0.7 -0.03,-1.06l-10.85 -71.87c-0.08,-0.53 -0.14,-1.06 -0.17,-1.59l-0.45 -10.68c-0.03,-0.36 -0.08,-0.7 -0.17,-1.03 -7.3,-25.7 -10.07,-57.55 -15.32,-83.64 -7.55,-37.5 -16.5,-79.11 -26.85,-124.83 -4.28,-18.76 -9.12,-33.14 -13.93,-50.39 -3.94,-14.18 -7.8,-25.81 -11.58,-34.93 -4.03,-9.79 -8.53,-17.98 -13.48,-24.58zm-408.42 452.44c6.49,-20.83 9.73,-45.78 14.88,-67.45 8.19,-34.51 14.46,-62.47 18.74,-83.89 4.73,-23.57 7.61,-36.47 8.64,-38.7 0.34,-0.78 0.5,-1.62 0.42,-2.43 -0.11,-1.54 0.11,-3.38 0.67,-5.54 7.49,-28.89 13.48,-51.43 17.93,-67.62 3.02,-10.99 4.56,-20.61 4.61,-28.8 0.08,-13.65 -0.76,-27.6 -2.52,-41.84 -1.57,-12.64 -2.77,-21.67 -3.61,-27.13 -2.52,-16.44 -7.58,-37.31 -15.16,-62.59 -2.68,-8.92 -6.38,-17.14 -11.1,-24.69 -0.64,-1.03 -2.15,-1.01 -2.77,0.03 -9.82,16.39 -16.84,34.23 -21.03,53.5 -0.03,0.14 -0.08,0.25 -0.14,0.36l-3.83 8.28c-0.11,0.22 -0.2,0.45 -0.22,0.7 -1.54,7.19 -3.52,13.73 -5.93,19.63 -0.34,0.81 -0.59,1.68 -0.78,2.55 -2.74,12.72 -4.78,30.4 -9.4,46.56 -9.14,32.05 -16.53,64.57 -22.18,97.6 -4.84,28.38 -9.17,52.6 -12.95,72.68 -6.8,36.05 -12.3,68.96 -16.53,98.69 -1.93,13.45 -2.32,25.48 -2.18,38.34 0.03,1.48 1.01,2.74 2.43,3.13 19.6,5.2 39.23,8.78 58.84,10.71 1.43,0.14 2.74,-0.73 3.16,-2.07zm507.05 30.93l-4.22 -26.01c-0.45,-2.71 -2.99,-4.53 -5.68,-4.11l-43.43 7.05c-5.82,0.92 -10.07,4.61 -9.48,8.19l3.69 22.79c0.56,3.58 5.76,5.73 11.58,4.78l43.43 -7.02c2.71,-0.45 4.53,-2.99 4.11,-5.68zm-514.3 -20.02c-5.9,-1.09 -11.21,-2.04 -15.97,-2.82 -12,-1.99 -18.57,-2.85 -19.77,-2.63 -1.48,0.28 -7.19,-1.03 -17.09,-3.92 -2.1,-0.62 -4.22,0.78 -4.53,2.94 -1.43,10.68 -2.18,18.34 -2.24,23.02 -0.03,4.89 1.45,7.66 4.45,8.28 18.46,3.77 34,6.54 46.67,8.25 1.79,0.25 3.5,-0.92 3.92,-2.68l6.74 -26.99c0.39,-1.57 -0.62,-3.13 -2.18,-3.44zm226.79 35.77c35.93,0.08 62.86,-2.32 105.09,-6.15 7.3,-0.67 20.67,-2.85 40.1,-6.54 2.55,-0.48 4.47,-2.6 4.7,-5.17l0 -0.17c0.2,-2.21 -1.79,-4.03 -3.97,-3.61 -32.8,5.98 -56.21,9.31 -70.22,10.01 -19.69,0.98 -45.58,1.93 -75.67,1.87 -30.09,-0.08 -55.99,-1.2 -75.67,-2.26 -14.01,-0.76 -37.39,-4.19 -70.16,-10.35 -2.21,-0.42 -4.19,1.37 -4,3.58l0 0.17c0.22,2.57 2.13,4.7 4.67,5.2 19.44,3.77 32.77,6.04 40.07,6.74 42.2,4.05 69.13,6.57 105.06,6.68z"/>
  </g>
 </g>
</svg>
