<?xml version="1.0" encoding="UTF-8"?>
<!DOCTYPE svg PUBLIC "-//W3C//DTD SVG 1.1//EN" "http://www.w3.org/Graphics/SVG/1.1/DTD/svg11.dtd">
<!-- Creator: CorelDRAW -->
<svg xmlns="http://www.w3.org/2000/svg" xml:space="preserve" width="69.2883mm" height="78.2282mm" version="1.1" style="shape-rendering:geometricPrecision; text-rendering:geometricPrecision; image-rendering:optimizeQuality; fill-rule:evenodd; clip-rule:evenodd"
viewBox="0 0 411.3 464.36"
 xmlns:xlink="http://www.w3.org/1999/xlink"
 xmlns:xodm="http://www.corel.com/coreldraw/odm/2003">
 <defs>
  <style type="text/css">
   <![CDATA[
    .fil0 {fill:black;fill-rule:nonzero}
    .fil1 {fill:#6699FF;fill-rule:nonzero}
   ]]>
  </style>
 </defs>
 <g id="Camada_x0020_1">
  <metadata id="CorelCorpID_0Corel-Layer"/>
  <g id="_1889177761088">
   <path class="fil0" d="M324.9 217.25c-0.52,-0.9 -1.88,-0.57 -1.95,0.46 -3.92,61.9 3.87,139.82 6.66,209.74 0.11,2.79 -1.53,5.34 -4.08,6.43 -21.13,8.94 -34.43,15.5 -50.13,20.27 -34.34,10.45 -69.5,12.88 -105.46,7.27 -29.92,-4.65 -58.53,-15.68 -85.25,-29.4 -1.86,-0.94 -3.04,-2.87 -3.04,-4.96 0.02,-8.4 0.29,-17.03 0.82,-25.9 4.04,-68.29 6.24,-112.89 6.62,-133.77 0.27,-14.85 -0.17,-31.43 -1.3,-49.78 -0.04,-0.73 -0.98,-0.96 -1.38,-0.36l-6.14 9.7c-1.17,1.84 -3.37,2.79 -5.51,2.32 -4.13,-0.86 -8.31,-2.39 -12.54,-4.59 -22.18,-11.45 -41.99,-24.29 -59.39,-38.51 -3.02,-2.47 -3.62,-5.47 -1.8,-8.96 14.09,-27.43 30.26,-57.19 48.46,-89.27 4.17,-7.31 9.78,-14.18 16.84,-20.58 0.77,-0.73 1.65,-1.34 2.6,-1.82 25.15,-13.05 53.19,-24.98 69.84,-31.75 1.11,-0.46 2.07,-1.21 2.76,-2.22 5.68,-8.31 9.51,-14.11 11.45,-17.42 4.02,-6.76 9.15,-9.59 16.19,-10.91 17.97,-3.35 37.34,-4.1 58.11,-2.24 9.97,0.9 25.05,3.37 30.55,12.33 4.1,6.66 8.65,17.21 15.43,20.19 13.57,5.93 20.77,9.32 34.01,14.66 12.04,4.86 23.58,10.51 34.66,16.96 4.23,2.47 7.56,5.42 10.01,8.86 9.38,13.26 16.25,24.17 20.63,32.73 11.08,21.67 19.66,36.19 33.99,63.12 1.68,3.16 3.23,6.81 4.63,10.97 0.23,0.65 0.13,1.38 -0.27,1.95 -1.7,2.41 -3.6,4.42 -5.68,5.99 -17.53,13.34 -37.04,25.78 -58.51,37.32 -3.75,2.01 -7.22,3.14 -10.43,3.39 -2.55,0.19 -4.98,-1.09 -6.24,-3.31l-5.15 -8.9zm-114.19 158.31c0.55,2.37 -1.51,4.88 -4.59,5.6 -3.1,0.72 -6.03,-0.62 -6.59,-3 -0.55,-2.37 1.51,-4.88 4.59,-5.6 3.1,-0.72 6.03,0.62 6.59,3zm-0.9 -59.69c0.58,2.16 -0.99,4.47 -3.5,5.16 -2.53,0.69 -5.04,-0.51 -5.63,-2.68 -0.58,-2.16 0.99,-4.46 3.5,-5.16 2.53,-0.69 5.04,0.51 5.63,2.68zm-6.35 -63.15c2.24,-0.49 4.52,1.27 5.08,3.92 0.57,2.65 -0.79,5.18 -3.03,5.66 -2.24,0.49 -4.53,-1.27 -5.08,-3.92 -0.57,-2.65 0.79,-5.18 3.03,-5.66zm4.01 -59.84c1.85,1.18 2.18,3.92 0.77,6.17 -1.42,2.23 -4.08,3.09 -5.91,1.93 -1.85,-1.18 -2.18,-3.92 -0.77,-6.17 1.42,-2.23 4.08,-3.09 5.91,-1.93zm-1.53 -60.41c2.37,0.42 3.88,3 3.39,5.74 -0.5,2.75 -2.82,4.63 -5.18,4.2 -2.37,-0.42 -3.88,-3 -3.39,-5.74 0.5,-2.75 2.82,-4.63 5.18,-4.2zm0.12 -57.76c1.88,0.36 3.05,2.58 2.59,4.99 -0.46,2.39 -2.35,4.05 -4.24,3.7 -1.88,-0.36 -3.05,-2.58 -2.59,-4.99 0.46,-2.39 2.35,-4.05 4.24,-3.7zm-0.65 -49.75c9.28,0.02 19.87,0.94 31.75,2.76 1.36,0.21 2.7,-0.57 3.23,-1.86l3.87 -9.97c0.31,-0.82 -0.17,-1.72 -1.03,-1.88 -13.57,-2.76 -26.16,-4.17 -37.78,-4.19 -11.62,-0.04 -24.23,1.28 -37.8,3.94 -0.86,0.19 -1.34,1.07 -1.05,1.88l3.81 9.99c0.52,1.32 1.84,2.09 3.22,1.88 11.89,-1.74 22.47,-2.58 31.77,-2.55zm38.22 67.58c6.62,-16.79 13.95,-33.36 18.64,-50.8 0.48,-1.78 0.17,-3.66 -0.84,-5.19l-10.01 -15.24c-0.63,-0.94 -2.07,-0.73 -2.39,0.36 -5.23,17.44 -16.92,32.33 -30.59,44.06 -0.86,0.73 -0.8,2.09 0.15,2.74l5 3.46c0.15,0.08 0.29,0.19 0.4,0.34l18.28 20.54c0.4,0.46 1.13,0.31 1.36,-0.25zm-84.37 -70.99c-1.3,0.44 -6.78,9.42 -10.66,14.87 -0.46,0.65 -0.67,1.47 -0.57,2.28 2.35,17.59 10.58,33.48 18.8,52.04 0.4,0.9 1.59,1.11 2.28,0.42l24.82 -24.82c0.88,-0.88 0.67,-2.37 -0.42,-2.97 -4.92,-2.72 -9.21,-6.22 -12.9,-10.47 -8.52,-9.82 -16.27,-19.12 -19.94,-30.62 -0.19,-0.61 -0.82,-0.92 -1.42,-0.73zm73.86 12.19c-18.11,-1.99 -36.65,-2.07 -55.62,-0.27 -1.01,0.11 -1.68,1.09 -1.4,2.05 0.27,0.98 0.94,2.09 2.01,3.33 7.37,8.61 17.92,18.8 29.59,22.13 0.9,0.25 1.88,0.02 2.6,-0.63 7.89,-7.33 13.69,-12.52 17.42,-15.6 3.14,-2.58 5.44,-5.32 6.91,-8.21 0.61,-1.21 -0.17,-2.66 -1.51,-2.81zm-43.68 46.87c-4.94,5.55 -10.09,11.27 -15.48,17.15 -1.86,2.03 -3.77,3.66 -5.68,4.86 -1.68,1.05 -3.87,0.4 -4.73,-1.38 -7.06,-14.6 -13.19,-29.32 -18.41,-44.19 -1.91,-5.4 -2.85,-9.86 -2.87,-13.38 0,-0.92 -0.96,-1.53 -1.8,-1.15 -6.49,2.91 -14.89,8.17 -21.8,11.2 -17.23,7.54 -31.24,13.86 -42.03,18.99 -1.11,0.52 -1.7,1.76 -1.38,2.93 1.28,5.07 1.93,8.23 3.18,11.43 8.56,22.13 12.69,43.54 16.23,66.61 0.75,4.82 1.28,10.66 1.55,17.55 0.86,20.06 0.59,36.54 2.12,58.72 1.32,19.37 1.4,40.31 0.25,62.82 -2.95,57.63 -4.75,93.63 -5.4,107.99 -0.36,7.77 -1.38,13 -1.68,20.33 -0.1,3.04 1.13,5.11 3.71,6.24 12.8,5.63 27.62,11.33 44.5,17.13 12.63,4.34 28.84,7.43 48.62,9.28 0.65,0.06 1.24,-0.4 1.34,-1.05 0.57,-3.48 0.86,-7.58 0.88,-12.29 0.25,-50.78 0.15,-91.47 -0.31,-122.06 -0.8,-53 0.61,-96.22 0.08,-154.59 -0.21,-24.98 0.5,-53.78 -0.11,-82.86 0,-0.42 -0.52,-0.61 -0.8,-0.29zm30.8 1.07c-0.57,15.41 -0.78,30.09 -0.63,44.06 0.25,23.71 0.34,38.38 0.27,44.04 -0.46,35.77 -1.17,58.19 -0.25,84.62 0.75,21.38 -0.21,39.12 0.13,61.94 0.61,43.14 0.73,88.81 0.4,137.04 0,0.44 0.38,0.8 0.82,0.78 7.6,-0.27 15.22,-1.17 22.91,-2.68 24.92,-4.88 49.55,-13.26 73.88,-25.15 0.82,-0.38 1.36,-1.19 1.4,-2.09 0.27,-6.45 0.25,-12.04 -0.06,-16.79 -1.95,-29.09 -3.81,-58.4 -5.57,-87.95 -2.05,-34.26 -2.58,-60.08 -1.59,-77.48 1.11,-19.12 2.22,-40.94 3.35,-65.42 0.75,-16.23 2.97,-33.49 6.66,-51.81 3.29,-16.29 10.51,-36.16 15.35,-49.57 0.21,-0.57 -0.04,-1.21 -0.57,-1.51 -12.59,-6.93 -23.75,-12.29 -33.44,-16.08 -11.41,-4.46 -21.49,-10.91 -32.6,-13.63 -0.94,-0.23 -1.93,0.33 -2.22,1.28 -6.18,20.06 -12.31,39.49 -21.76,56.92 -0.78,1.42 -2.7,1.7 -3.85,0.54l-21.49 -21.49c-0.42,-0.4 -1.11,-0.13 -1.13,0.44zm-21.84 373l13.69 0c0.8,0 1.42,-0.63 1.42,-1.42l0 -372.5c0,-6.26 -2.93,-11.35 -6.55,-11.35l-3.43 0c-3.62,0 -6.55,5.09 -6.55,11.35l0 372.5c0,0.8 0.63,1.42 1.42,1.42zm-127.34 -375.37c-0.48,-1.55 -2.58,-1.82 -3.43,-0.44 -17.55,27.94 -34.38,60.65 -49.97,87.93 -0.52,0.9 -0.27,2.03 0.54,2.66 18.05,13.63 36.71,25.59 55.97,35.87 1.36,0.73 3.04,2.74 4.71,3.48 0.63,0.27 1.36,0.13 1.86,-0.36 4.71,-4.61 7.69,-9.65 8.9,-15.14 0.11,-0.46 -0.02,-6.39 -0.36,-17.78 -0.52,-18.05 -2.51,-34.93 -5.97,-50.64 -3.2,-14.68 -7.31,-29.88 -12.27,-45.59zm270.08 -0.23c-0.44,2.62 -2.43,9.47 -5.97,20.54 -2.24,6.97 -4.1,13.86 -5.59,20.67 -5.36,24.38 -7.87,49.73 -7.54,76.06 0,0.21 0.08,0.44 0.21,0.61l6.93 9.28c1.17,1.57 3.31,2.05 5.03,1.13 21.15,-11.12 40.77,-23.62 58.89,-37.46 0.78,-0.59 0.94,-1.68 0.42,-2.47 -8.08,-12.42 -13.93,-26.8 -20.71,-38.99 -12.54,-22.57 -19.2,-34.49 -19.96,-35.75 -3.43,-5.67 -6.81,-10.37 -10.09,-14.07 -0.52,-0.59 -1.49,-0.31 -1.61,0.46zm-300.5 122.46c6.09,3.75 16.35,9.13 30.83,16.15 0.8,0.38 1.7,0.38 2.49,0.02 1.63,-0.73 2.66,-2.14 3.06,-4.17 0.17,-0.8 -0.23,-1.61 -0.98,-1.95 -10.72,-4.96 -20.54,-10.81 -30.97,-17.23 -10.41,-6.43 -20.04,-12.59 -29.3,-19.96 -0.63,-0.52 -1.53,-0.52 -2.16,-0.02 -1.65,1.28 -2.43,2.81 -2.37,4.61 0.04,0.86 0.46,1.68 1.15,2.22 12.73,9.78 22.16,16.56 28.25,20.33zm354.11 -27.08c-13.46,10.51 -25.59,16.56 -39.43,26.47 -5.38,3.87 -11.64,7.33 -18.78,10.39 -1.65,0.71 -1.84,3.02 -0.31,3.98l1.55 0.98c1.59,1.01 3.58,1.13 5.3,0.31 5.03,-2.43 13.67,-7.08 25.97,-13.93 10.58,-5.91 19.08,-13.72 29.84,-20.94 0.94,-0.63 1.24,-1.91 0.67,-2.89l-2.24 -3.9c-0.52,-0.9 -1.72,-1.13 -2.55,-0.48z"/>
   <path class="fil1" d="M205.41 24.97c-9.3,-0.02 -19.87,0.82 -31.77,2.55 -1.38,0.21 -2.7,-0.57 -3.22,-1.88l-3.81 -9.99c-0.29,-0.82 0.19,-1.7 1.05,-1.88 13.57,-2.66 26.18,-3.98 37.8,-3.94 11.62,0.02 24.21,1.42 37.78,4.19 0.86,0.17 1.34,1.07 1.03,1.88l-3.87 9.97c-0.52,1.3 -1.86,2.07 -3.23,1.86 -11.87,-1.82 -22.47,-2.74 -31.75,-2.76zm189.33 149.5c0.84,-0.65 2.03,-0.42 2.55,0.48l2.24 3.9c0.57,0.98 0.27,2.26 -0.67,2.89 -10.76,7.22 -19.27,15.04 -29.84,20.94 -12.29,6.85 -20.94,11.5 -25.97,13.93 -1.72,0.82 -3.71,0.69 -5.3,-0.31l-1.55 -0.98c-1.53,-0.96 -1.34,-3.27 0.31,-3.98 7.14,-3.06 13.4,-6.51 18.78,-10.39 13.84,-9.91 25.97,-15.96 39.43,-26.47zm-354.11 27.08c-6.09,-3.77 -15.52,-10.55 -28.25,-20.33 -0.69,-0.54 -1.11,-1.36 -1.15,-2.22 -0.06,-1.8 0.71,-3.33 2.37,-4.61 0.63,-0.5 1.53,-0.5 2.16,0.02 9.26,7.37 18.89,13.53 29.3,19.96 10.43,6.43 20.25,12.27 30.97,17.23 0.75,0.33 1.15,1.15 0.98,1.95 -0.4,2.03 -1.42,3.43 -3.06,4.17 -0.8,0.36 -1.7,0.36 -2.49,-0.02 -14.47,-7.02 -24.73,-12.4 -30.83,-16.15zm300.5 -122.46c0.13,-0.77 1.09,-1.05 1.61,-0.46 3.29,3.71 6.66,8.4 10.09,14.07 0.75,1.26 7.41,13.17 19.96,35.75 6.78,12.19 12.63,26.57 20.71,38.99 0.52,0.8 0.36,1.88 -0.42,2.47 -18.11,13.84 -37.74,26.34 -58.89,37.46 -1.72,0.92 -3.85,0.44 -5.03,-1.13l-6.93 -9.28c-0.13,-0.17 -0.21,-0.4 -0.21,-0.61 -0.34,-26.32 2.18,-51.68 7.54,-76.06 1.49,-6.81 3.35,-13.7 5.59,-20.67 3.54,-11.08 5.53,-17.93 5.97,-20.54zm-270.08 0.23c4.96,15.71 9.07,30.91 12.27,45.59 3.46,15.71 5.45,32.58 5.97,50.64 0.33,11.39 0.46,17.32 0.36,17.78 -1.21,5.49 -4.19,10.53 -8.9,15.14 -0.5,0.48 -1.24,0.63 -1.86,0.36 -1.68,-0.73 -3.35,-2.74 -4.71,-3.48 -19.27,-10.28 -37.92,-22.24 -55.97,-35.87 -0.82,-0.63 -1.07,-1.76 -0.54,-2.66 15.58,-27.29 32.42,-60 49.97,-87.93 0.86,-1.38 2.95,-1.11 3.43,0.44zm127.34 375.37c-0.8,0 -1.42,-0.63 -1.42,-1.42l0 -372.5c0,-6.26 2.93,-11.35 6.55,-11.35l3.43 0c3.62,0 6.55,5.09 6.55,11.35l0 372.5c0,0.8 -0.63,1.42 -1.42,1.42l-13.69 0zm7.67 -379.96c-1.89,-0.35 -3.77,1.3 -4.24,3.7 -0.46,2.4 0.71,4.62 2.59,4.99 1.89,0.35 3.77,-1.3 4.24,-3.7 0.46,-2.4 -0.71,-4.62 -2.59,-4.99zm-0.12 57.76c-2.36,-0.44 -4.68,1.45 -5.18,4.2 -0.49,2.74 1.02,5.32 3.39,5.74 2.36,0.44 4.68,-1.45 5.18,-4.2 0.49,-2.74 -1.02,-5.32 -3.39,-5.74zm1.53 60.41c-1.84,-1.16 -4.5,-0.31 -5.91,1.93 -1.41,2.25 -1.08,4.99 0.77,6.17 1.84,1.16 4.5,0.31 5.91,-1.93 1.41,-2.25 1.08,-4.99 -0.77,-6.17zm-4.01 59.84c-2.24,0.48 -3.6,3.01 -3.03,5.66 0.56,2.65 2.84,4.41 5.08,3.92 2.24,-0.48 3.6,-3.01 3.03,-5.66 -0.56,-2.65 -2.84,-4.41 -5.08,-3.92zm6.35 63.15c-0.59,-2.17 -3.1,-3.37 -5.63,-2.68 -2.52,0.7 -4.09,3 -3.5,5.16 0.59,2.17 3.1,3.37 5.63,2.68 2.52,-0.7 4.09,-3 3.5,-5.16zm0.9 59.69c-0.56,-2.39 -3.5,-3.73 -6.59,-3 -3.08,0.72 -5.13,3.24 -4.59,5.6 0.56,2.39 3.5,3.73 6.59,3 3.08,-0.72 5.13,-3.24 4.59,-5.6zm9.53 -293.88c0.02,-0.57 0.71,-0.84 1.13,-0.44l21.49 21.49c1.15,1.15 3.08,0.88 3.85,-0.54 9.44,-17.42 15.58,-36.86 21.76,-56.92 0.29,-0.94 1.28,-1.51 2.22,-1.28 11.12,2.72 21.19,9.17 32.6,13.63 9.7,3.79 20.86,9.15 33.44,16.08 0.52,0.29 0.77,0.94 0.57,1.51 -4.84,13.4 -12.06,33.27 -15.35,49.57 -3.69,18.32 -5.91,35.58 -6.66,51.81 -1.13,24.48 -2.24,46.3 -3.35,65.42 -0.98,17.4 -0.46,43.22 1.59,77.48 1.76,29.55 3.62,58.87 5.57,87.95 0.31,4.75 0.33,10.34 0.06,16.79 -0.04,0.9 -0.59,1.72 -1.4,2.09 -24.33,11.89 -48.96,20.27 -73.88,25.15 -7.69,1.51 -15.31,2.41 -22.91,2.68 -0.44,0.02 -0.82,-0.34 -0.82,-0.78 0.34,-48.23 0.21,-93.9 -0.4,-137.04 -0.33,-22.83 0.63,-40.56 -0.13,-61.94 -0.92,-26.43 -0.21,-48.86 0.25,-84.62 0.06,-5.65 -0.02,-20.33 -0.27,-44.04 -0.15,-13.97 0.06,-28.65 0.63,-44.06zm-30.8 -1.07c0.27,-0.31 0.8,-0.13 0.8,0.29 0.61,29.09 -0.1,57.88 0.11,82.86 0.52,58.36 -0.88,101.58 -0.08,154.59 0.46,30.59 0.57,71.28 0.31,122.06 -0.02,4.71 -0.31,8.82 -0.88,12.29 -0.1,0.65 -0.69,1.11 -1.34,1.05 -19.79,-1.84 -36,-4.94 -48.62,-9.28 -16.88,-5.8 -31.7,-11.5 -44.5,-17.13 -2.58,-1.13 -3.81,-3.2 -3.71,-6.24 0.29,-7.33 1.32,-12.56 1.68,-20.33 0.65,-14.37 2.45,-50.36 5.4,-107.99 1.15,-22.51 1.07,-43.45 -0.25,-62.82 -1.53,-22.18 -1.26,-38.66 -2.12,-58.72 -0.27,-6.89 -0.8,-12.73 -1.55,-17.55 -3.54,-23.08 -7.66,-44.48 -16.23,-66.61 -1.26,-3.2 -1.91,-6.37 -3.18,-11.43 -0.31,-1.17 0.27,-2.41 1.38,-2.93 10.78,-5.13 24.79,-11.45 42.03,-18.99 6.91,-3.04 15.31,-8.29 21.8,-11.2 0.84,-0.38 1.8,0.23 1.8,1.15 0.02,3.52 0.96,7.98 2.87,13.38 5.21,14.87 11.35,29.59 18.41,44.19 0.86,1.78 3.06,2.43 4.73,1.38 1.91,-1.19 3.81,-2.83 5.68,-4.86 5.38,-5.88 10.53,-11.6 15.48,-17.15zm43.68 -46.87c1.34,0.15 2.12,1.59 1.51,2.81 -1.47,2.89 -3.77,5.63 -6.91,8.21 -3.73,3.08 -9.53,8.27 -17.42,15.6 -0.71,0.65 -1.7,0.88 -2.6,0.63 -11.66,-3.33 -22.22,-13.53 -29.59,-22.13 -1.07,-1.24 -1.74,-2.35 -2.01,-3.33 -0.27,-0.96 0.4,-1.95 1.4,-2.05 18.97,-1.8 37.5,-1.72 55.62,0.27zm-73.86 -12.19c0.61,-0.19 1.24,0.13 1.42,0.73 3.66,11.5 11.41,20.79 19.94,30.62 3.69,4.25 7.98,7.75 12.9,10.47 1.09,0.61 1.3,2.09 0.42,2.97l-24.82 24.82c-0.69,0.69 -1.88,0.48 -2.28,-0.42 -8.23,-18.55 -16.46,-34.45 -18.8,-52.04 -0.11,-0.82 0.1,-1.63 0.57,-2.28 3.87,-5.44 9.36,-14.43 10.66,-14.87zm84.37 70.99c-0.23,0.57 -0.96,0.71 -1.36,0.25l-18.28 -20.54c-0.1,-0.15 -0.25,-0.25 -0.4,-0.34l-5 -3.46c-0.94,-0.65 -1.01,-2.01 -0.15,-2.74 13.67,-11.73 25.36,-26.62 30.59,-44.06 0.31,-1.09 1.76,-1.3 2.39,-0.36l10.01 15.24c1,1.53 1.32,3.41 0.84,5.19 -4.69,17.44 -12.02,34.01 -18.64,50.8z"/>
  </g>
 </g>
</svg>
