<?xml version="1.0" encoding="UTF-8"?>
<!DOCTYPE svg PUBLIC "-//W3C//DTD SVG 1.1//EN" "http://www.w3.org/Graphics/SVG/1.1/DTD/svg11.dtd">
<!-- Creator: CorelDRAW -->
<svg xmlns="http://www.w3.org/2000/svg" xml:space="preserve" width="76.8856mm" height="72.0868mm" version="1.1" style="shape-rendering:geometricPrecision; text-rendering:geometricPrecision; image-rendering:optimizeQuality; fill-rule:evenodd; clip-rule:evenodd"
viewBox="0 0 434.77 407.64"
 xmlns:xlink="http://www.w3.org/1999/xlink"
 xmlns:xodm="http://www.corel.com/coreldraw/odm/2003">
 <defs>
  <style type="text/css">
   <![CDATA[
    .fil0 {fill:black;fill-rule:nonzero}
    .fil1 {fill:#6699FF;fill-rule:nonzero}
   ]]>
  </style>
 </defs>
 <g id="Camada_x0020_1">
  <metadata id="CorelCorpID_0Corel-Layer"/>
  <g id="_1853399500272">
   <path class="fil0" d="M328.34 215.87c0.3,47.68 2.47,103.26 6.5,166.75 0.18,2.81 0.26,5.59 0.24,8.32 -0.02,0.76 -0.28,1.5 -0.78,2.07 -2.63,3.15 -5.09,4.93 -7.38,5.33 -70.6,12.03 -141.48,12.39 -212.61,1.06 -4.01,-0.64 -7.62,-1.88 -10.87,-3.69 -1.94,-1.08 -3.11,-3.13 -3.03,-5.35 0.9,-30.36 0.76,-44.37 3.07,-70.24 0.84,-9.4 1.38,-21.17 1.64,-35.33 0.34,-19.21 0.98,-41.55 1.88,-66.99 0.02,-0.28 -0.2,-0.54 -0.48,-0.58 -0.3,-0.04 -0.56,0.14 -0.64,0.42 -7.24,26.51 -13.76,52.39 -19.61,77.62 -6.16,26.63 -11.49,48.4 -15.98,65.25 -0.9,3.37 -2.53,7.26 -4.91,11.65 -0.18,0.3 -0.3,0.64 -0.38,0.98l-7.12 30.34c-0.42,1.8 -1.84,3.17 -3.63,3.53 -1.42,0.3 -3.73,0.16 -6.92,-0.42 -16.86,-3.01 -30.88,-5.96 -42.09,-8.82 -7.16,-1.82 -5.21,-7.22 -4.21,-13.92 0.14,-1.06 1.38,-7.18 3.71,-18.41 0.26,-1.24 0.4,-2.49 0.42,-3.75 0.22,-13.05 0.48,-20.57 0.78,-22.56 9.67,-63.02 22,-124.36 36.07,-187.84 5.07,-22.86 9.85,-37.84 17.65,-64.73 3.19,-10.99 7.6,-22.04 13.23,-33.15 6.9,-13.61 16.28,-17.12 31.62,-24.26 12.63,-5.88 18.97,-8.92 29.78,-13.21 10.63,-4.21 21.58,-9.06 32.84,-14.54 1.3,-0.64 2.79,-0.66 4.11,-0.08 31.44,13.75 62.52,13.41 93.22,-1.06 0.72,-0.34 1.52,-0.34 2.23,-0.04 27.91,12.15 53.64,23.48 77.16,34.01 14.16,6.34 21.01,20.63 25.89,34.41 8.2,23.2 18.39,58.05 24.58,87.42 5.27,24.94 9.75,42.25 13.84,65.27 5.69,32.06 14.82,78.14 20.69,120.49 1.16,8.36 -0.3,17.53 1,24.8 0.68,3.85 2.29,11.91 4.83,24.2 0.52,2.55 -0.9,5.11 -3.35,5.98 -6.78,2.43 -14.54,2.89 -20.83,4.63 -7.78,2.13 -16.28,3.93 -25.47,5.41 -4.45,0.72 -7.18,-1 -8.18,-5.17 -4.05,-16.94 -6.32,-26.59 -6.82,-28.95 -0.28,-1.32 -0.76,-2.59 -1.42,-3.75 -2.17,-3.85 -3.59,-7.24 -4.25,-10.13 -4.23,-18.95 -8.8,-37.72 -13.68,-56.32 -4.77,-18.11 -6.08,-23.18 -3.95,-15.2 0.02,0.06 0.08,0.08 0.12,0.08 0.06,-0.02 0.1,-0.08 0.08,-0.14l-18.21 -71.44c-0.02,-0.08 -0.1,-0.14 -0.2,-0.14 -0.1,0.02 -0.16,0.08 -0.16,0.18zm-57.41 -204.16c-1.5,-0.58 -3.11,0.42 -3.27,2 -0.98,10.47 -2.75,18.03 -5.31,22.7 -8,14.72 -16.12,26.93 -24.36,36.61 -5.47,6.42 -12.37,11.57 -20.71,15.46 -0.62,0.28 -1.32,0.26 -1.9,-0.08 -20.85,-12.29 -37.06,-36.59 -45.5,-59.29 -0.64,-1.72 -1.44,-6.3 -2.41,-13.74 -0.2,-1.56 -1.72,-2.59 -3.23,-2.21l-3.61 0.92c-1.84,0.48 -2.93,2.37 -2.41,4.19 2.55,9.06 6,22.16 11.11,31.54 10.97,20.25 26.15,36.73 45.56,49.45 1.5,0.98 3.45,0.94 4.91,-0.14 8.32,-6.12 17.12,-13.45 26.37,-21.96 16.6,-15.22 24.58,-37.24 31.78,-59.05 0.6,-1.82 -0.34,-3.77 -2.11,-4.47l-4.91 -1.92zm-53.56 15.96c12.25,-0.02 24.34,-1.91 36.27,-5.69 4.05,-1.28 6.26,-3.31 6.78,-7.22 0.14,-0.94 -0.8,-1.7 -1.7,-1.36 -13.73,5.01 -26.25,6.02 -41.37,6.04 -15.12,0.04 -27.65,-0.94 -41.39,-5.9 -0.9,-0.32 -1.84,0.42 -1.7,1.38 0.54,3.91 2.75,5.94 6.8,7.2 11.95,3.73 24.06,5.59 36.31,5.55zm-108.16 351.78c6.48,-0.16 10.27,-0.44 16.98,0.68 18.17,3.03 28.97,4.67 32.42,4.91 55.08,3.97 110.02,1.92 164.86,-6.14 0.54,-0.08 0.94,-0.56 0.92,-1.1 -0.58,-23.88 -1.66,-48.22 -3.19,-73.05 -3.61,-58.47 -2.63,-116.52 2.95,-174.13 2.99,-30.7 7.88,-55.66 21.23,-81.43 0.58,-1.14 0.14,-2.53 -1,-3.13 -13.23,-6.82 -19.23,-10.61 -30.44,-14.96 -10.61,-4.13 -20.15,-8.28 -28.59,-12.47 -1.44,-0.72 -3.13,0.18 -3.37,1.78 -1.52,10.07 -4.53,19.45 -9.02,28.13 -12.45,24.04 -29.58,44.81 -53.42,58.13 -1.32,0.72 -2.89,0.74 -4.21,0.06 -4.01,-2.05 -7.86,-4.57 -11.55,-7.58 -6.66,-5.47 -13.39,-10.53 -18.37,-16.14 -16.16,-18.15 -27.09,-38.98 -32.8,-62.48 -0.26,-1.06 -1.42,-1.58 -2.37,-1.1 -12.21,6.24 -25.73,10.69 -37.12,16.88 -7.4,4.03 -15.06,6.42 -20.61,8.62 -1.82,0.74 -2.65,2.81 -1.86,4.59 8,17.71 13.43,36.11 16.28,55.18 2.79,18.73 4.79,34.47 6,47.22 0.34,3.53 0.96,14.6 1.86,33.21 0.78,15.96 -0.42,32.64 1.62,49.63 0.86,7.04 0.22,15.54 0.48,20.79 0.2,3.81 -0.04,9.02 -0.72,15.62 -2.27,22.12 -3.15,43.83 -2.61,65.15 0.1,4.53 -1.02,10.85 -1,15.34 0.02,0.66 -0.08,1.32 -0.28,1.96 -1.2,3.77 -1.83,6.84 -1.89,9.22 -0.14,4.97 -2.63,9.7 -2.45,15.4 0.02,0.7 0.6,1.26 1.3,1.24zm-23.86 -327.96c-0.46,-0.04 -0.78,0.1 -0.98,0.44 -6.54,10.55 -10.61,19.73 -12.89,31.42 -1.7,8.66 -3.65,15.68 -5.84,21.05 -2.81,6.86 -5.07,13.76 -6.76,20.73 -3.81,15.6 -6.64,28.13 -8.5,37.58 -1.34,6.72 -3.27,12.01 -4.53,19.37 -0.46,2.67 -1.64,7.5 -3.57,14.5 -2.97,10.87 -5.01,23.14 -6.1,36.85 -0.42,5.17 -1.96,12.17 -4.61,21.01 -0.2,0.64 -0.34,1.28 -0.4,1.94 -0.72,5.84 -1.52,10.11 -2.41,12.77 -3.01,8.9 -3.91,19.33 -6.46,28.59 -0.42,1.52 -0.66,3.05 -0.72,4.61 -0.42,12.15 -1.82,23.5 -4.19,34.05 -0.18,0.76 -0.26,1.52 -0.28,2.29 -0.1,3.81 -0.76,8.24 -2.01,13.29 -0.68,2.69 1.04,5.43 3.77,5.98l28.27 5.77c0.18,0.04 0.36,0.1 0.54,0.16l7.88 2.85c0.98,0.36 2.07,-0.04 2.59,-0.96 3.01,-5.27 5.07,-10.77 6.14,-16.54 0.62,-3.25 3.69,-17.62 9.26,-43.07 2.27,-10.41 8,-22.94 9.48,-32.3 2.33,-14.98 5.37,-30.18 9.1,-45.56 1.64,-6.76 3.87,-14.08 6.7,-21.96 2.05,-5.75 4.35,-13.07 6.86,-21.94 1.58,-5.53 2.07,-11.63 1.54,-18.29 -2.23,-27.15 -2.85,-52.84 -9.54,-78.72 -3.29,-12.79 -7.1,-24.52 -11.39,-35.19 -0.18,-0.44 -0.5,-0.68 -0.94,-0.7zm264.48 -0.1c-0.28,-0.32 -0.82,-0.22 -0.96,0.18 -2.43,6.72 -5.09,14.56 -7.98,23.5 -0.4,1.22 -3.17,13.9 -8.32,38.04 -3.93,18.43 -4.43,40.8 -4.43,56.97 0,2.69 0.32,5.41 0.96,8.1 6.7,28.59 12.49,51.19 17.37,67.85 5.99,20.37 8.66,35.71 14.44,61.72 1.58,7.04 3.93,15.06 7.02,24.04 2.95,8.52 5.33,18.61 7.1,30.28 0.46,3.09 2.23,4.43 5.31,4.01 11.67,-1.62 23.48,-4.29 35.45,-8.06 1.54,-0.48 2.65,-1.82 2.87,-3.43 0.64,-4.95 0.66,-10.17 0.08,-15.7 -1.3,-12.13 -3.19,-23.5 -5.69,-34.09 -0.84,-3.57 -1.92,-10.85 -3.23,-21.88 -0.94,-7.84 -2.41,-15.04 -4.43,-21.62 -1.08,-3.49 -2.47,-11.99 -4.21,-25.45 -0.56,-4.31 -4.03,-21.01 -10.39,-50.11 -1.9,-8.64 -3.01,-14.3 -3.37,-16.96 -0.9,-6.36 -2.19,-11.99 -3.93,-16.84 -3.57,-9.99 -4.41,-16.96 -7.62,-26.01 -1.42,-3.99 -2.95,-10.59 -4.65,-19.81 -2.17,-11.81 -7.26,-26.77 -15.26,-44.9 -1.62,-3.67 -3.67,-6.94 -6.14,-9.82zm-341.05 334.78c-0.42,1.66 0.64,3.33 2.31,3.69l35.29 7.22c1.6,0.32 3.13,-0.66 3.53,-2.21l4.91 -19.63c0.42,-1.66 -0.64,-3.33 -2.31,-3.69l-35.29 -7.22c-1.6,-0.32 -3.13,0.66 -3.53,2.21l-4.91 19.63zm416.51 2.09l-5.59 -21.9c-0.32,-1.3 -1.6,-2.09 -2.91,-1.86 -14.34,2.65 -25.26,4.69 -32.7,6.12 -3.09,0.58 -4.37,2.29 -3.83,5.13 1.18,6.16 2.79,11.81 4.83,16.94 0.72,1.8 2.57,2.85 4.47,2.55l34.55 -5.21c0.84,-0.12 1.4,-0.96 1.18,-1.78zm-103.1 -6.2c-7.16,2.25 -15.46,3.81 -24.86,4.65 -32.3,2.85 -60.7,4.45 -85.22,4.81 -28.01,0.4 -59.55,-2.85 -88.31,-5.96 -4.71,-0.5 -8.62,-1.66 -13.15,-1.92 -1.2,-0.08 -2.13,1.04 -1.86,2.21l0.12 0.52c0.34,1.52 1.58,2.67 3.13,2.89 10.91,1.54 36.03,6.18 54.68,6.9 0.1,0 7.2,0.48 21.29,1.42 22.44,1.5 46.82,1.52 73.11,0.04 6.6,-0.38 17,-1.74 31.14,-4.11 10.99,-1.85 21.76,-2.99 32.32,-3.43 0.74,-0.04 1.26,-0.76 1.04,-1.46l-1.76 -5.69c-0.22,-0.7 -0.98,-1.1 -1.68,-0.88z"/>
   <path class="fil1" d="M270.93 11.71l4.91 1.92c1.78,0.7 2.71,2.65 2.11,4.47 -7.2,21.8 -15.18,43.83 -31.78,59.05 -9.26,8.52 -18.05,15.84 -26.37,21.96 -1.46,1.08 -3.41,1.12 -4.91,0.14 -19.41,-12.73 -34.59,-29.21 -45.56,-49.45 -5.11,-9.38 -8.56,-22.48 -11.11,-31.54 -0.52,-1.82 0.58,-3.71 2.41,-4.19l3.61 -0.92c1.52,-0.38 3.03,0.66 3.23,2.21 0.98,7.44 1.78,12.03 2.41,13.74 8.44,22.7 24.66,47 45.5,59.29 0.58,0.34 1.28,0.36 1.9,0.08 8.34,-3.89 15.24,-9.04 20.71,-15.46 8.24,-9.68 16.36,-21.88 24.36,-36.61 2.55,-4.67 4.33,-12.23 5.31,-22.7 0.16,-1.58 1.78,-2.57 3.27,-2zm51.27 370.35c0.7,-0.22 1.46,0.18 1.68,0.88l1.76 5.69c0.22,0.7 -0.3,1.42 -1.04,1.46 -10.55,0.44 -21.33,1.58 -32.32,3.43 -14.14,2.37 -24.54,3.73 -31.14,4.11 -26.29,1.48 -50.67,1.46 -73.11,-0.04 -14.08,-0.94 -21.19,-1.42 -21.29,-1.42 -18.65,-0.72 -43.77,-5.37 -54.68,-6.9 -1.56,-0.22 -2.79,-1.38 -3.13,-2.89l-0.12 -0.52c-0.28,-1.18 0.66,-2.29 1.86,-2.21 4.53,0.26 8.44,1.42 13.15,1.92 28.77,3.11 60.31,6.36 88.31,5.96 24.52,-0.36 52.92,-1.96 85.22,-4.81 9.4,-0.84 17.69,-2.39 24.86,-4.65zm103.1 6.2c0.22,0.82 -0.34,1.66 -1.18,1.78l-34.55 5.21c-1.89,0.3 -3.75,-0.76 -4.47,-2.55 -2.03,-5.13 -3.65,-10.77 -4.83,-16.94 -0.54,-2.83 0.74,-4.55 3.83,-5.13 7.44,-1.44 18.35,-3.47 32.7,-6.12 1.32,-0.24 2.59,0.56 2.91,1.86l5.59 21.9zm-416.51 -2.09l4.91 -19.63c0.4,-1.56 1.94,-2.53 3.53,-2.21l35.29 7.22c1.68,0.36 2.73,2.03 2.31,3.69l-4.91 19.63c-0.4,1.56 -1.94,2.53 -3.53,2.21l-35.29 -7.22c-1.68,-0.36 -2.73,-2.04 -2.31,-3.69zm341.05 -334.78c2.47,2.87 4.53,6.14 6.14,9.82 8,18.13 13.09,33.1 15.26,44.9 1.7,9.22 3.23,15.82 4.65,19.81 3.21,9.06 4.05,16.02 7.62,26.01 1.74,4.85 3.03,10.47 3.93,16.84 0.36,2.65 1.48,8.32 3.37,16.96 6.36,29.11 9.83,45.8 10.39,50.11 1.74,13.47 3.13,21.96 4.21,25.45 2.01,6.58 3.49,13.78 4.43,21.62 1.32,11.03 2.39,18.31 3.23,21.88 2.49,10.59 4.39,21.96 5.69,34.09 0.58,5.53 0.56,10.75 -0.08,15.7 -0.22,1.62 -1.34,2.95 -2.87,3.43 -11.97,3.77 -23.78,6.44 -35.45,8.06 -3.07,0.42 -4.85,-0.92 -5.31,-4.01 -1.78,-11.67 -4.15,-21.76 -7.1,-30.28 -3.09,-8.98 -5.45,-17 -7.02,-24.04 -5.79,-26.01 -8.46,-41.35 -14.44,-61.72 -4.89,-16.66 -10.67,-39.26 -17.37,-67.85 -0.64,-2.69 -0.96,-5.41 -0.96,-8.1 0,-16.18 0.5,-38.54 4.43,-56.97 5.15,-24.14 7.92,-36.83 8.32,-38.04 2.89,-8.94 5.55,-16.78 7.98,-23.5 0.14,-0.4 0.68,-0.5 0.96,-0.18zm-264.48 0.1c0.44,0.02 0.76,0.26 0.94,0.7 4.29,10.67 8.1,22.4 11.39,35.19 6.68,25.87 7.3,51.57 9.54,78.72 0.54,6.66 0.04,12.77 -1.54,18.29 -2.51,8.88 -4.81,16.2 -6.86,21.94 -2.83,7.88 -5.07,15.2 -6.7,21.96 -3.73,15.38 -6.76,30.58 -9.1,45.56 -1.48,9.36 -7.2,21.88 -9.48,32.3 -5.57,25.45 -8.64,39.82 -9.26,43.07 -1.08,5.77 -3.13,11.27 -6.14,16.54 -0.52,0.92 -1.62,1.32 -2.59,0.96l-7.88 -2.85c-0.18,-0.06 -0.36,-0.12 -0.54,-0.16l-28.27 -5.77c-2.73,-0.56 -4.45,-3.29 -3.77,-5.98 1.26,-5.05 1.92,-9.48 2.01,-13.29 0.02,-0.78 0.1,-1.54 0.28,-2.29 2.37,-10.55 3.77,-21.9 4.19,-34.05 0.06,-1.56 0.3,-3.09 0.72,-4.61 2.55,-9.26 3.45,-19.69 6.46,-28.59 0.9,-2.65 1.7,-6.92 2.41,-12.77 0.06,-0.66 0.2,-1.3 0.4,-1.94 2.65,-8.84 4.19,-15.84 4.61,-21.01 1.1,-13.7 3.13,-25.97 6.1,-36.85 1.94,-7 3.11,-11.83 3.57,-14.5 1.26,-7.36 3.19,-12.65 4.53,-19.37 1.86,-9.46 4.69,-21.98 8.5,-37.58 1.7,-6.96 3.95,-13.86 6.76,-20.73 2.19,-5.37 4.15,-12.39 5.84,-21.05 2.27,-11.69 6.34,-20.87 12.89,-31.42 0.2,-0.34 0.52,-0.48 0.98,-0.44zm22.56 326.72c-0.18,-5.71 2.31,-10.43 2.45,-15.4 0.06,-2.37 0.7,-5.45 1.89,-9.22 0.2,-0.64 0.3,-1.3 0.28,-1.96 -0.02,-4.49 1.1,-10.81 1,-15.34 -0.54,-21.33 0.34,-43.03 2.61,-65.15 0.68,-6.6 0.92,-11.81 0.72,-15.62 -0.26,-5.25 0.38,-13.74 -0.48,-20.79 -2.04,-17 -0.84,-33.67 -1.62,-49.63 -0.9,-18.61 -1.52,-29.68 -1.86,-33.21 -1.22,-12.75 -3.21,-28.49 -6,-47.22 -2.85,-19.07 -8.28,-37.46 -16.28,-55.18 -0.8,-1.78 0.04,-3.85 1.86,-4.59 5.55,-2.19 13.21,-4.59 20.61,-8.62 11.39,-6.18 24.92,-10.63 37.12,-16.88 0.96,-0.48 2.11,0.04 2.37,1.1 5.71,23.5 16.64,44.33 32.8,62.48 4.99,5.61 11.71,10.67 18.37,16.14 3.69,3.01 7.54,5.53 11.55,7.58 1.32,0.68 2.89,0.66 4.21,-0.06 23.84,-13.33 40.97,-34.09 53.42,-58.13 4.49,-8.68 7.5,-18.05 9.02,-28.13 0.24,-1.6 1.94,-2.49 3.37,-1.78 8.44,4.19 17.97,8.34 28.59,12.47 11.21,4.35 17.22,8.14 30.44,14.96 1.14,0.6 1.58,2 1,3.13 -13.35,25.77 -18.23,50.73 -21.23,81.43 -5.59,57.61 -6.56,115.66 -2.95,174.13 1.54,24.84 2.61,49.17 3.19,73.05 0.02,0.54 -0.38,1.02 -0.92,1.1 -54.84,8.06 -109.78,10.11 -164.86,6.14 -3.45,-0.24 -14.24,-1.88 -32.42,-4.91 -6.7,-1.12 -10.49,-0.84 -16.98,-0.68 -0.7,0.02 -1.28,-0.54 -1.3,-1.24zm109.46 -350.54c-12.25,0.04 -24.36,-1.82 -36.31,-5.55 -4.05,-1.26 -6.26,-3.29 -6.8,-7.2 -0.14,-0.96 0.8,-1.7 1.7,-1.38 13.74,4.97 26.27,5.94 41.39,5.9 15.12,-0.02 27.65,-1.04 41.37,-6.04 0.9,-0.34 1.83,0.42 1.7,1.36 -0.52,3.91 -2.73,5.94 -6.78,7.22 -11.93,3.77 -24.02,5.67 -36.27,5.69z"/>
  </g>
 </g>
</svg>
