<?xml version="1.0" encoding="UTF-8"?>
<!DOCTYPE svg PUBLIC "-//W3C//DTD SVG 1.1//EN" "http://www.w3.org/Graphics/SVG/1.1/DTD/svg11.dtd">
<!-- Creator: CorelDRAW -->
<svg xmlns="http://www.w3.org/2000/svg" xml:space="preserve" width="70.327mm" height="72.1158mm" version="1.1" style="shape-rendering:geometricPrecision; text-rendering:geometricPrecision; image-rendering:optimizeQuality; fill-rule:evenodd; clip-rule:evenodd"
viewBox="0 0 424.1 434.88"
 xmlns:xlink="http://www.w3.org/1999/xlink"
 xmlns:xodm="http://www.corel.com/coreldraw/odm/2003">
 <defs>
  <style type="text/css">
   <![CDATA[
    .fil0 {fill:black;fill-rule:nonzero}
    .fil1 {fill:#6699FF;fill-rule:nonzero}
   ]]>
  </style>
 </defs>
 <g id="Camada_x0020_1">
  <metadata id="CorelCorpID_0Corel-Layer"/>
  <g id="_1889177762192">
   <path class="fil0" d="M212.01 434.88c-37.12,0 -73.97,-2.94 -110.54,-8.81 -4.43,-0.7 -8.7,-1.96 -12.85,-3.77 -2.04,-0.89 -3.36,-2.91 -3.36,-5.15 0.04,-10.85 0.34,-20.59 0.92,-29.21 4.32,-65.86 8.42,-129.39 5.51,-194.21 -0.02,-0.62 -0.83,-0.85 -1.19,-0.34l-7.3 10.17c-1.19,1.66 -3.09,2.66 -5.13,2.7 -2.32,0.04 -5.36,-0.85 -9.08,-2.66 -22.12,-10.83 -43.89,-24.74 -65.27,-41.74 -4.11,-3.26 -4.81,-7.28 -2.11,-12.04 25.61,-45.04 39.44,-69.33 41.46,-72.88 3.36,-5.83 7.53,-12.34 12.49,-19.51 5.47,-7.93 9.4,-12.89 11.76,-14.89 2.19,-1.85 7.62,-4.79 16.27,-8.83 0.23,-0.11 22.55,-9.83 66.91,-29.17 3.02,-1.32 5.64,-2.68 7.83,-4.06 1.06,-0.68 2.45,-0.66 3.49,0.06 2.68,1.85 5.51,3.32 8.51,4.4 11.72,4.25 28.02,7.93 41.74,7.93 13.7,0 30,-3.68 41.72,-7.93 3,-1.08 5.83,-2.55 8.51,-4.38 1.04,-0.72 2.43,-0.77 3.49,-0.06 2.21,1.38 4.81,2.74 7.83,4.06 44.36,19.34 66.67,29.06 66.91,29.17 8.66,4.06 14.08,7 16.27,8.85 2.36,2 6.28,6.96 11.76,14.89 4.96,7.17 9.13,13.68 12.47,19.51 2.04,3.55 15.85,27.85 41.46,72.88 2.7,4.77 2,8.79 -2.11,12.04 -21.4,17 -43.16,30.91 -65.29,41.74 -3.72,1.81 -6.77,2.7 -9.08,2.64 -2.04,-0.02 -3.94,-1.04 -5.13,-2.7l-7.3 -10.17c-0.36,-0.51 -1.17,-0.28 -1.19,0.34 -2.94,64.82 1.17,128.34 5.47,194.21 0.57,8.64 0.87,18.36 0.91,29.21 0,2.23 -1.32,4.26 -3.36,5.15 -4.15,1.81 -8.42,3.06 -12.85,3.77 -36.57,5.85 -73.42,8.79 -110.56,8.79zm59.95 -421.39c-2.02,-0.96 -4.4,0.3 -4.77,2.51 -3.68,22.42 -18.38,45.5 -33.7,61.91 -5.98,6.4 -12.53,11.68 -19.66,15.83 -0.94,0.55 -2.11,0.62 -3.13,0.15 -5.45,-2.53 -10.59,-6.13 -15.44,-10.76 -20.02,-19.15 -32.95,-41.46 -38.76,-66.95 -0.38,-1.7 -2.21,-2.64 -3.83,-1.98l-2.98 1.21c-1.7,0.68 -2.57,2.57 -2,4.32 5.7,17.08 9.47,27.42 11.32,31.04 11.47,22.49 27.8,40.59 49.04,54.27 2.4,1.55 5,1.4 7.79,-0.47 29.72,-19.91 51.33,-48.53 59.8,-84.1 0.64,-2.74 -0.7,-5.55 -3.25,-6.76l-0.43 -0.21zm-60.18 16.61c13.04,0.04 25.91,-1.91 38.63,-5.85 4.32,-1.34 6.68,-3.49 7.25,-7.66 0.15,-1 -0.83,-1.81 -1.81,-1.45 -14.62,5.25 -27.95,6.28 -44.04,6.21 -16.1,-0.04 -29.42,-1.15 -44.02,-6.51 -0.96,-0.36 -1.96,0.45 -1.83,1.45 0.57,4.17 2.91,6.34 7.21,7.7 12.7,4.02 25.55,6.06 38.59,6.11zm-70.97 -9.23c-21.93,8.53 -42.95,18.21 -63.08,29.04 -0.94,0.51 -1.32,1.64 -0.89,2.6 11.57,27.06 19.13,55.61 22.64,85.63 2.32,19.72 0.85,40.02 2.19,60.23 0.85,12.79 1.21,27.85 1.08,45.19 -0.32,42.25 -2.08,85.07 -5.34,128.45 -0.83,11.25 -1.17,20.7 -1,28.32 0.02,0.77 0.55,1.43 1.32,1.6 15.68,3.21 28.46,5.51 38.38,6.89 10.23,1.43 23.23,2.47 38.95,3.13 50.38,2.11 101.03,-0.81 151.98,-8.74 0.72,-0.13 1.26,-0.74 1.28,-1.47 0.36,-15.04 -1.11,-30.57 -1.91,-44.38 -3.32,-56.63 -4.98,-85.14 -5,-85.54 -0.66,-12.59 -0.49,-19.25 -0.4,-33.83 0.04,-6.91 1.02,-34.55 2.94,-82.95 1.42,-36 9.59,-70.46 24.51,-103.41 0.57,-1.28 0,-2.79 -1.28,-3.36l-63.76 -28.72c-0.64,-0.28 -1.36,0.09 -1.51,0.77 -7.36,33.1 -24.98,61.52 -51.89,81.99 -6.83,5.19 -11.76,8.81 -14.83,10.85 -1.98,1.32 -4.55,1.3 -6.53,-0.04 -15.53,-10.66 -30,-21.59 -40.85,-36.53 -12.4,-17.1 -21.04,-35.48 -25.89,-55.12 -0.13,-0.49 -0.64,-0.77 -1.11,-0.57zm201.99 164.17c6.13,-3.23 18.81,-10.76 38.02,-22.59 9.81,-6.02 17.78,-11.93 23.95,-17.72 1.02,-0.96 1.21,-2.51 0.47,-3.68 -5.74,-9.02 -9.79,-18.76 -14.87,-26.89 -12.79,-20.4 -20.04,-32.85 -21.81,-37.34 -2.32,-5.89 -4.4,-9.76 -6.25,-11.62 -3.51,-3.49 -4.96,-8 -8.19,-11.45 -1,-1.06 -2.77,-0.6 -3.11,0.81 -1.53,6.49 -4.68,13.34 -6.64,19.68 -3.85,12.53 -6.85,25.98 -9.02,40.36 -1.17,7.85 -2.32,15.66 -3.4,23.44 -1.45,10.3 -1.62,19 -1.3,28.19 0.21,6.4 5.94,13.76 10.21,18.47 0.49,0.53 1.28,0.68 1.94,0.34zm-271.16 -130.26c-0.21,-0.6 -1.02,-0.68 -1.34,-0.15 -2.98,4.91 -7.25,11.4 -12.83,19.51 -6.4,9.3 -17.06,27.78 -32,55.48 -2.51,4.66 -5.47,8.3 -8.04,12.85 -0.36,0.64 -0.23,1.45 0.3,1.94 7.21,6.74 17.64,11.72 23.93,16.17 12.34,8.72 22.29,13.89 39.06,24.02 1.13,0.68 2.59,0.51 3.53,-0.43 4.91,-4.91 9.98,-10.19 9.91,-17.98 -0.06,-7.06 -0.23,-14.08 -0.53,-21.06 -0.57,-13.49 -5.42,-30.46 -7.06,-41.14 -2.59,-16.98 -9.57,-34.19 -14.93,-49.21zm-56.67 93.86c-3.87,3.04 -4.21,5.98 -1.02,8.79 7.23,6.36 14.96,9.42 23.12,15.4 11.42,8.36 20.49,15.13 35.55,21.51 2.13,0.89 4.57,0.13 5.81,-1.83l0.09 -0.15c1.17,-1.85 0.53,-4.32 -1.4,-5.36 -6.7,-3.66 -14.49,-7.83 -23.32,-12.49 -13.62,-7.19 -26,-15.81 -37.12,-25.83 -0.47,-0.43 -1.19,-0.45 -1.7,-0.04zm330.3 43.44l0.51 0.68c1.64,2.17 4.64,2.77 6.98,1.38 15.32,-9.04 26.89,-15.59 34.7,-19.66 8.21,-4.25 14.42,-10.38 23.53,-17.74 1.32,-1.06 1.55,-2.98 0.53,-4.34l-0.98 -1.3c-0.89,-1.21 -2.57,-1.55 -3.89,-0.81 -9.08,5.21 -19,12 -29.76,20.4 -7.13,5.55 -17.27,11.21 -30.44,16.98 -1.72,0.74 -2.3,2.89 -1.17,4.4zm-17.61 215.55c-62.35,10.21 -125.05,12.34 -188.04,6.4 -13.76,-1.3 -28,-5.25 -41.4,-5.94 -1.7,-0.09 -3.13,1.34 -3.04,3.04l0.02 0.17c0.09,1.98 1.51,3.66 3.45,4.06 15.19,3.15 30.27,3.7 45.95,5.68 8.91,1.11 16.08,0.66 23.66,1.83 6.59,1 12.49,1.62 17.68,1.89 26.53,1.38 50.89,1.04 73.03,-1.04 20.74,-1.96 43.55,-4.55 68.37,-7.79 1.55,-0.21 2.72,-1.53 2.72,-3.11l0 -3.17c0,-1.28 -1.15,-2.23 -2.4,-2.04z"/>
   <path class="fil1" d="M271.96 13.49l0.43 0.21c2.55,1.21 3.89,4.02 3.25,6.76 -8.47,35.57 -30.08,64.18 -59.8,84.1 -2.79,1.87 -5.38,2.02 -7.79,0.47 -21.23,-13.68 -37.57,-31.78 -49.04,-54.27 -1.85,-3.62 -5.62,-13.96 -11.32,-31.04 -0.57,-1.74 0.3,-3.64 2,-4.32l2.98 -1.21c1.62,-0.66 3.45,0.28 3.83,1.98 5.81,25.49 18.74,47.8 38.76,66.95 4.85,4.64 10,8.23 15.44,10.76 1.02,0.47 2.19,0.4 3.13,-0.15 7.13,-4.15 13.68,-9.42 19.66,-15.83 15.32,-16.4 30.02,-39.48 33.7,-61.91 0.36,-2.21 2.74,-3.47 4.77,-2.51zm55.69 394.14c1.26,-0.19 2.4,0.77 2.4,2.04l0 3.17c0,1.57 -1.17,2.89 -2.72,3.11 -24.83,3.23 -47.63,5.83 -68.37,7.79 -22.15,2.08 -46.5,2.43 -73.03,1.04 -5.19,-0.28 -11.08,-0.89 -17.68,-1.89 -7.57,-1.17 -14.74,-0.72 -23.66,-1.83 -15.68,-1.98 -30.76,-2.53 -45.95,-5.68 -1.94,-0.4 -3.36,-2.08 -3.45,-4.06l-0.02 -0.17c-0.09,-1.7 1.34,-3.13 3.04,-3.04 13.4,0.68 27.64,4.64 41.4,5.94 62.99,5.94 125.69,3.81 188.04,-6.4zm18.79 -219.95c13.17,-5.77 23.32,-11.42 30.44,-16.98 10.76,-8.4 20.68,-15.19 29.76,-20.4 1.32,-0.74 3,-0.4 3.89,0.81l0.98 1.3c1.02,1.36 0.79,3.28 -0.53,4.34 -9.1,7.36 -15.32,13.49 -23.53,17.74 -7.81,4.06 -19.38,10.62 -34.7,19.66 -2.34,1.38 -5.34,0.79 -6.98,-1.38l-0.51 -0.68c-1.13,-1.51 -0.55,-3.66 1.17,-4.4zm-331.47 -39.04c0.51,-0.4 1.23,-0.38 1.7,0.04 11.13,10.02 23.51,18.64 37.12,25.83 8.83,4.66 16.61,8.83 23.32,12.49 1.94,1.04 2.57,3.51 1.4,5.36l-0.09 0.15c-1.23,1.96 -3.68,2.72 -5.81,1.83 -15.06,-6.38 -24.13,-13.15 -35.55,-21.51 -8.17,-5.98 -15.89,-9.04 -23.12,-15.4 -3.19,-2.81 -2.85,-5.74 1.02,-8.79zm56.67 -93.86c5.36,15.02 12.34,32.23 14.93,49.21 1.64,10.68 6.49,27.66 7.06,41.14 0.3,6.98 0.47,14 0.53,21.06 0.06,7.79 -5,13.06 -9.91,17.98 -0.94,0.94 -2.4,1.11 -3.53,0.43 -16.76,-10.13 -26.72,-15.3 -39.06,-24.02 -6.3,-4.45 -16.72,-9.42 -23.93,-16.17 -0.53,-0.49 -0.66,-1.3 -0.3,-1.94 2.57,-4.55 5.53,-8.19 8.04,-12.85 14.93,-27.7 25.59,-46.19 32,-55.48 5.57,-8.11 9.85,-14.59 12.83,-19.51 0.32,-0.53 1.13,-0.45 1.34,0.15zm271.16 130.26c-0.66,0.34 -1.45,0.19 -1.94,-0.34 -4.28,-4.7 -10,-12.06 -10.21,-18.47 -0.32,-9.19 -0.15,-17.89 1.3,-28.19 1.09,-7.79 2.23,-15.59 3.4,-23.44 2.17,-14.38 5.17,-27.83 9.02,-40.36 1.96,-6.34 5.11,-13.19 6.64,-19.68 0.34,-1.4 2.11,-1.87 3.11,-0.81 3.23,3.45 4.68,7.96 8.19,11.45 1.85,1.85 3.94,5.72 6.25,11.62 1.77,4.49 9.02,16.93 21.81,37.34 5.08,8.13 9.13,17.87 14.87,26.89 0.74,1.17 0.55,2.72 -0.47,3.68 -6.17,5.79 -14.15,11.7 -23.95,17.72 -19.21,11.83 -31.89,19.36 -38.02,22.59zm-201.99 -164.17c0.47,-0.19 0.98,0.09 1.11,0.57 4.85,19.64 13.49,38.02 25.89,55.12 10.85,14.93 25.32,25.87 40.85,36.53 1.98,1.34 4.55,1.36 6.53,0.04 3.06,-2.04 8,-5.66 14.83,-10.85 26.91,-20.47 44.53,-48.89 51.89,-81.99 0.15,-0.68 0.87,-1.04 1.51,-0.77l63.76 28.72c1.28,0.57 1.85,2.08 1.28,3.36 -14.91,32.95 -23.08,67.42 -24.51,103.41 -1.91,48.4 -2.89,76.03 -2.94,82.95 -0.09,14.57 -0.26,21.23 0.4,33.83 0.02,0.4 1.68,28.91 5,85.54 0.81,13.81 2.28,29.34 1.91,44.38 -0.02,0.72 -0.55,1.34 -1.28,1.47 -50.95,7.93 -101.6,10.85 -151.98,8.74 -15.72,-0.66 -28.72,-1.7 -38.95,-3.13 -9.91,-1.38 -22.7,-3.68 -38.38,-6.89 -0.77,-0.17 -1.3,-0.83 -1.32,-1.6 -0.17,-7.62 0.17,-17.06 1,-28.32 3.25,-43.38 5.02,-86.2 5.34,-128.45 0.13,-17.34 -0.23,-32.4 -1.08,-45.19 -1.34,-20.21 0.13,-40.51 -2.19,-60.23 -3.51,-30.02 -11.06,-58.57 -22.64,-85.63 -0.43,-0.96 -0.04,-2.09 0.89,-2.6 20.12,-10.83 41.14,-20.51 63.08,-29.04zm70.97 9.23c-13.04,-0.04 -25.89,-2.08 -38.59,-6.11 -4.3,-1.36 -6.64,-3.53 -7.21,-7.7 -0.13,-1 0.87,-1.81 1.83,-1.45 14.59,5.36 27.91,6.47 44.02,6.51 16.08,0.06 29.42,-0.96 44.04,-6.21 0.98,-0.36 1.96,0.45 1.81,1.45 -0.57,4.17 -2.94,6.32 -7.25,7.66 -12.72,3.94 -25.59,5.89 -38.63,5.85z"/>
  </g>
 </g>
</svg>
