<?xml version="1.0" encoding="UTF-8"?>
<!DOCTYPE svg PUBLIC "-//W3C//DTD SVG 1.1//EN" "http://www.w3.org/Graphics/SVG/1.1/DTD/svg11.dtd">
<!-- Creator: CorelDRAW -->
<svg xmlns="http://www.w3.org/2000/svg" xml:space="preserve" width="70.7878mm" height="75.9414mm" version="1.1" style="shape-rendering:geometricPrecision; text-rendering:geometricPrecision; image-rendering:optimizeQuality; fill-rule:evenodd; clip-rule:evenodd"
viewBox="0 0 654.38 702.02"
 xmlns:xlink="http://www.w3.org/1999/xlink"
 xmlns:xodm="http://www.corel.com/coreldraw/odm/2003">
 <defs>
  <style type="text/css">
   <![CDATA[
    .fil0 {fill:black;fill-rule:nonzero}
    .fil1 {fill:#6699FF;fill-rule:nonzero}
   ]]>
  </style>
 </defs>
 <g id="Camada_x0020_1">
  <metadata id="CorelCorpID_0Corel-Layer"/>
  <g id="_1853399487552">
   <path class="fil0" d="M142.45 325.56c0,-0.65 -0.78,-0.95 -1.21,-0.46l-18.62 22.05c-2.51,3 -6.69,3.98 -10.27,2.45 -7.31,-3.1 -13.21,-5.9 -17.68,-8.35 -29.48,-16.21 -57.17,-34.73 -83.03,-55.5 -5.64,-4.53 -9.29,-8.32 -10.89,-11.41 -0.49,-0.98 -0.75,-2.02 -0.75,-3.1 0.06,-3.95 1.17,-7.79 3.29,-11.54 35.78,-63.17 62.78,-108.99 81.04,-137.46 4.21,-6.56 10.47,-13.27 18.72,-20.12 6.03,-4.99 13.92,-9.55 23.74,-13.66 28.57,-11.97 56.74,-23.32 84.56,-34.05 4.05,-1.57 7.57,-4.24 10.14,-7.73 7.6,-10.24 15.1,-21.56 22.44,-33.98 5.22,-8.84 13.08,-13.08 23.58,-12.65 41.51,1.6 83.32,1.73 125.42,0.39 6.62,-0.23 11.87,2.84 15.75,9.2 11.22,18.36 20.81,38.74 32.84,43.63 46.08,18.62 76.87,31.28 92.39,37.96 22.11,9.49 32.48,25.11 46.41,48.33 23.45,39.1 47.22,80.03 71.32,122.81 6.98,12.43 -0.49,16.18 -10.18,23.68 -19.24,14.94 -33.95,27.46 -54.75,39.75 -16.89,10.01 -31.5,18 -43.86,23.97 -2.87,1.37 -6.29,0.72 -8.48,-1.6l-20.51 -21.98c-0.68,-0.75 -1.96,-0.26 -1.96,0.75 -1.66,116.72 5.32,237.51 10.76,344.54 0.46,8.64 -1.27,12.88 -9.85,15.16 -10.63,2.84 -22.14,5.02 -34.57,6.49 -90.17,10.66 -180.99,11.74 -272.47,3.23 -14.06,-1.3 -30.69,-3.62 -49.86,-6.91 -6.69,-1.14 -12.68,-3.23 -18.07,-6.26 -3.69,-2.09 -5.87,-6.1 -5.64,-10.34 4.66,-80.78 7.99,-161.95 9.98,-243.54 0.95,-39.49 1.04,-74.06 0.26,-103.74zm193.19 -124.54c2.02,4.27 -0.13,9.55 -4.83,11.79 -4.69,2.23 -10.17,0.57 -12.19,-3.7 -2.02,-4.27 0.13,-9.56 4.84,-11.79 4.69,-2.23 10.17,-0.57 12.19,3.71zm-16.17 -45.95c1.03,-4.47 5.8,-7.17 10.63,-6.03 4.82,1.11 7.89,5.67 6.83,10.14 -1.03,4.47 -5.8,7.18 -10.63,6.03 -4.82,-1.11 -7.89,-5.67 -6.83,-10.14zm67.53 -131.65c0.68,-2.67 -1.4,-5.22 -4.14,-5.12 -38.58,1.5 -75.89,1.04 -111.92,-1.4 -3.85,-0.26 -6.85,3.29 -5.97,7.04l3.59 15.33c1.01,4.24 4.79,7.24 9.16,7.24l97.57 0c3.52,0 6.56,-2.38 7.4,-5.77l4.31 -17.32zm11.45 0.52c-2.48,18.26 -5.35,33 -16.79,48.3 -8.84,11.84 -19.01,24.3 -30.52,37.31 -1.27,1.43 -0.98,3.68 0.65,4.73l34.18 21.65c1.6,1.01 3.72,0.75 4.99,-0.65 1.5,-1.6 2.84,-3.52 3.98,-5.81 12.2,-23.9 21.88,-45.85 29.02,-65.91 1.01,-2.84 0.2,-6 -2.05,-7.99 -10.14,-8.84 -17.38,-19.47 -21.69,-31.83 -0.33,-0.91 -1.63,-0.75 -1.76,0.2zm-148.41 5.8l-16.66 28.83c-1.4,2.45 -1.76,5.38 -0.94,8.12 7.14,24.2 17.54,47.68 31.27,70.41 0.75,1.24 2.35,1.63 3.62,0.91 13.86,-8.02 23.38,-13.96 28.63,-17.84 2.25,-1.63 5.74,-3.26 10.53,-4.89 1.3,-0.42 1.73,-2.09 0.75,-3.1 -15.23,-15.52 -27.91,-30.43 -38.12,-44.68 -5.97,-8.38 -11.28,-20.84 -15.88,-37.37 -0.42,-1.5 -2.41,-1.73 -3.2,-0.39zm101.03 104.36l0 111.89c0,3.65 -2.97,6.62 -6.62,6.62l-35.25 0c-3.55,0 -6.46,-2.87 -6.46,-6.42l0 -108.56c0,-1.47 -1.57,-2.38 -2.84,-1.66l-34.18 19.73c-2.54,1.47 -5.71,1.27 -8.02,-0.55 -5.8,-4.53 -7.92,-9.16 -11.45,-15.26 -12.39,-21.49 -21.72,-43.76 -28.01,-66.79 -0.49,-1.83 -2.41,-2.8 -4.17,-2.15 -23.12,8.74 -37.57,14.54 -43.31,17.41 -5.64,2.8 -14.74,6.23 -27.3,10.27 -8.77,2.84 -17.64,6.88 -26.54,12.13 -0.85,0.49 -1.04,1.6 -0.46,2.38 6.1,7.86 10.96,17.12 14.58,27.75 9.88,29.12 17.38,62.12 22.54,98.98 1.86,13.14 2.8,25.89 2.9,38.22 0.2,22.4 0.42,35.22 0.65,38.45 1.5,21.13 -0.06,42.56 1.34,63.07 1.14,16.79 1.37,32.55 0.72,47.29 -1.14,25.89 -1.96,52.6 -2.51,80.16 -0.03,0.68 -0.75,10.83 -2.22,30.39 -0.68,9.3 -1.17,19.44 -1.47,30.46 -1.04,39.95 -1.86,68.19 -2.45,84.73 -0.06,1.4 1.01,2.58 2.41,2.64 9.06,0.49 17.9,2.97 26.9,3.72 25.4,2.09 43.5,3.75 54.3,4.99 16.96,1.92 31.24,1.34 52.14,2.54 27.59,1.6 57.23,1.63 88.93,0.06 30.72,-1.53 47.25,-2.41 49.6,-2.58 28.99,-2.28 52.21,-5.9 78.33,-7.73 1.76,-0.1 3.07,-1.6 2.97,-3.36 -2.71,-44.81 -4.53,-85.12 -5.51,-120.92 -0.36,-13.89 -2.74,-30.92 -2.77,-41.97 -0.1,-93.4 -0.26,-152.88 1.83,-220.81 1.6,-51.62 11.97,-109.41 36.72,-154.68 0.59,-1.04 0.29,-2.35 -0.65,-3.07 -9.36,-6.98 -21.33,-11.25 -32.51,-16.34 -21.56,-9.82 -42.13,-18.26 -61.67,-25.4 -2.22,-0.82 -4.66,0.36 -5.41,2.61 -8.84,26.64 -20.22,52.37 -34.21,77.19 -3,5.35 -7.5,8.94 -13.5,5.71 -3.42,-1.86 -8.84,-3.85 -12.91,-6.98 -9.1,-6.95 -16.66,-12.03 -22.63,-15.23 -0.85,-0.42 -1.83,0.16 -1.83,1.08zm-244.42 -15.78c-2.77,2.71 -5.32,6.16 -7.66,10.4 -7.96,14.32 -19.21,33.43 -33.79,57.36 -13.7,22.53 -25.76,43.11 -36.17,61.67 -1.63,2.94 -0.82,6.62 1.89,8.58 17.87,13.04 42.1,32.16 65.48,45.66 8.74,5.05 17.15,10.92 25.21,17.61 1.76,1.47 4.34,1.37 6,-0.23 7.17,-6.95 12.52,-14.64 16.08,-23.12 0.91,-2.19 1.4,-4.5 1.47,-6.85 1.57,-47.45 -6.1,-96.33 -22.99,-146.65 -3.95,-11.71 -7.99,-19.83 -12.13,-24.33 -0.91,-0.98 -2.45,-1.01 -3.39,-0.1zm425.48 202.58l14.38 -7.34c0.95,-0.49 1.83,-1.04 2.64,-1.73 23.06,-19.14 48.33,-37.08 75.85,-53.78 1.99,-1.21 2.77,-3.72 1.83,-5.84 -4.11,-9.39 -9.62,-19.86 -16.5,-31.37 -11.58,-19.34 -24.07,-40.14 -37.44,-62.39 -4.01,-6.69 -9.1,-15.56 -15.26,-26.64 -2.9,-5.25 -6.13,-9.26 -9.69,-12 -1.47,-1.17 -3.65,-0.88 -4.79,0.65 -1.79,2.41 -3.36,5.19 -4.63,8.35 -18.49,44.78 -28.31,92.06 -29.42,141.8 -0.29,12 0.88,21.03 3.52,27.07 3.03,6.91 8.02,14.35 15,22.34 1.14,1.27 2.97,1.66 4.5,0.88zm-194.76 -78.59c2.22,0 4.01,-1.79 4.01,-4.01l0 -109.28c0,-3.82 -4.86,-5.48 -7.21,-2.41l-18.95 24.69c-0.52,0.68 -0.81,1.57 -0.81,2.45l0 84.56c0,2.22 1.79,4.01 4.01,4.01l18.95 0zm-18.49 -117.04c-4.73,-2.12 -7.63,1.83 -7.96,5.97 -0.36,4.6 0.2,7.21 1.73,7.93 1.34,0.59 3.62,-0.75 6.82,-4.04 2.9,-2.97 3.98,-7.76 -0.59,-9.85zm310.13 135.27c-18.98,17.64 -38.68,32.55 -59.06,44.68 -11.19,6.62 -21.03,12.82 -29.61,18.65 -1.47,0.98 -2.19,1.5 -2.22,1.57 -1.73,2.8 0.68,6.33 3.95,5.74 12.69,-2.31 24.03,-8.58 36.1,-18.03 13.08,-10.27 30.33,-22.76 51.79,-37.47 1.99,-1.37 4.11,-3.29 6.33,-5.81 1.04,-1.17 1.14,-2.94 0.2,-4.17l-3.59 -4.79c-0.95,-1.24 -2.74,-1.4 -3.88,-0.36zm-512.29 64.86c-12.82,-6.82 -22.6,-12.39 -33.33,-20.9 -12.1,-9.55 -25.6,-19.14 -40.5,-28.83 -5.61,-3.62 -11.41,-8.19 -17.42,-13.66 -1.73,-1.57 -4.47,-0.98 -5.41,1.14l-0.52 1.11c-1.27,2.8 -0.26,6.13 2.35,7.79 13.01,8.28 22.5,19.83 36.17,28.83 19.11,12.62 35.48,22.21 49.11,28.73 4.63,2.22 8.05,1.76 10.24,-1.37 0.68,-0.98 0.36,-2.31 -0.68,-2.84zm211.71 361.92c26.71,0 42.26,-0.13 46.73,-0.42 33.13,-2.15 57.01,-3.85 71.58,-5.05 18.88,-1.57 42.72,-6.39 55.83,-8.94 2.19,-0.42 3.78,-2.25 3.91,-4.47l0.26 -3.75c0.1,-1.83 -1.57,-3.23 -3.33,-2.84 -13.8,3.07 -32.87,5.64 -57.3,7.7 -38.77,3.26 -78.01,4.89 -117.69,4.86 -39.69,-0.06 -78.92,-1.73 -117.66,-5.05 -24.43,-2.12 -43.5,-4.7 -57.3,-7.79 -1.76,-0.42 -3.42,1.01 -3.33,2.84l0.26 3.75c0.13,2.18 1.73,4.04 3.91,4.47 13.08,2.58 36.92,7.44 55.8,9.03 14.58,1.24 38.45,2.97 71.58,5.19 4.47,0.29 20.02,0.46 46.73,0.49z"/>
   <path class="fil1" d="M387 23.41l-4.31 17.32c-0.85,3.39 -3.88,5.77 -7.4,5.77l-97.57 0c-4.37,0 -8.15,-3 -9.16,-7.24l-3.59 -15.33c-0.88,-3.75 2.12,-7.31 5.97,-7.04 36.04,2.45 73.34,2.9 111.92,1.4 2.74,-0.1 4.83,2.45 4.14,5.12zm-58.57 650.99c39.69,0.03 78.92,-1.6 117.69,-4.86 24.43,-2.05 43.5,-4.63 57.3,-7.7 1.76,-0.39 3.42,1.01 3.33,2.84l-0.26 3.75c-0.13,2.22 -1.73,4.04 -3.91,4.47 -13.11,2.54 -36.95,7.37 -55.83,8.94 -14.58,1.21 -38.45,2.9 -71.58,5.05 -4.47,0.29 -20.02,0.42 -46.73,0.42 -26.71,-0.03 -42.26,-0.2 -46.73,-0.49 -33.13,-2.22 -57,-3.95 -71.58,-5.19 -18.88,-1.6 -42.72,-6.46 -55.8,-9.03 -2.18,-0.42 -3.78,-2.28 -3.91,-4.47l-0.26 -3.75c-0.1,-1.83 1.57,-3.26 3.33,-2.84 13.8,3.1 32.87,5.67 57.3,7.79 38.74,3.33 77.97,4.99 117.66,5.05zm-211.03 -346.17c-2.19,3.13 -5.61,3.59 -10.24,1.37 -13.63,-6.52 -30,-16.11 -49.11,-28.73 -13.67,-9 -23.15,-20.55 -36.17,-28.83 -2.61,-1.66 -3.62,-4.99 -2.35,-7.79l0.52 -1.11c0.94,-2.12 3.68,-2.71 5.41,-1.14 6,5.48 11.8,10.04 17.42,13.66 14.9,9.69 28.4,19.27 40.5,28.83 10.73,8.51 20.51,14.09 33.33,20.9 1.04,0.52 1.37,1.86 0.68,2.84zm511.61 -67.7c1.14,-1.04 2.94,-0.88 3.88,0.36l3.59 4.79c0.95,1.24 0.85,3 -0.2,4.17 -2.22,2.51 -4.34,4.44 -6.33,5.81 -21.46,14.71 -38.71,27.2 -51.79,37.47 -12.07,9.46 -23.41,15.72 -36.1,18.03 -3.26,0.59 -5.68,-2.94 -3.95,-5.74 0.03,-0.07 0.75,-0.59 2.22,-1.57 8.58,-5.84 18.43,-12.03 29.61,-18.65 20.38,-12.13 40.08,-27.03 59.06,-44.68zm-310.13 -135.27c4.56,2.09 3.49,6.88 0.59,9.85 -3.2,3.29 -5.48,4.63 -6.82,4.04 -1.53,-0.72 -2.09,-3.33 -1.73,-7.93 0.33,-4.14 3.23,-8.09 7.96,-5.97zm18.49 117.04l-18.95 0c-2.22,0 -4.01,-1.79 -4.01,-4.01l0 -84.56c0,-0.88 0.29,-1.76 0.81,-2.45l18.95 -24.69c2.35,-3.07 7.21,-1.4 7.21,2.41l0 109.28c0,2.22 -1.79,4.01 -4.01,4.01zm-17.89 -87.24c-1.05,4.47 2.01,9.03 6.83,10.14 4.83,1.14 9.59,-1.57 10.63,-6.03 1.05,-4.47 -2.01,-9.03 -6.83,-10.14 -4.83,-1.14 -9.59,1.57 -10.63,6.03zm16.17 45.95c-2.02,-4.27 -7.5,-5.94 -12.19,-3.71 -4.7,2.24 -6.86,7.52 -4.84,11.79 2.03,4.27 7.5,5.93 12.19,3.7 4.7,-2.24 6.86,-7.52 4.83,-11.79zm196.48 119.88c-1.53,0.78 -3.36,0.39 -4.5,-0.88 -6.98,-7.99 -11.97,-15.42 -15,-22.34 -2.64,-6.03 -3.82,-15.07 -3.52,-27.07 1.11,-49.73 10.92,-97.02 29.42,-141.8 1.27,-3.16 2.84,-5.94 4.63,-8.35 1.14,-1.53 3.33,-1.83 4.79,-0.65 3.55,2.74 6.78,6.75 9.69,12 6.16,11.09 11.25,19.96 15.26,26.64 13.37,22.24 25.86,43.05 37.44,62.39 6.88,11.51 12.39,21.98 16.5,31.37 0.95,2.12 0.16,4.63 -1.83,5.84 -27.52,16.7 -52.8,34.63 -75.85,53.78 -0.82,0.68 -1.7,1.24 -2.64,1.73l-14.38 7.34zm-422.09 -202.49c4.14,4.5 8.19,12.62 12.13,24.33 16.89,50.32 24.56,99.2 22.99,146.65 -0.07,2.35 -0.55,4.66 -1.47,6.85 -3.55,8.48 -8.9,16.18 -16.08,23.12 -1.66,1.6 -4.24,1.7 -6,0.23 -8.05,-6.69 -16.47,-12.56 -25.21,-17.61 -23.38,-13.5 -47.61,-32.61 -65.48,-45.66 -2.71,-1.96 -3.52,-5.64 -1.89,-8.58 10.4,-18.56 22.47,-39.13 36.17,-61.67 14.58,-23.94 25.83,-43.05 33.79,-57.36 2.35,-4.24 4.89,-7.7 7.66,-10.4 0.94,-0.91 2.48,-0.88 3.39,0.1zm241.03 15.69c0,-0.91 0.98,-1.5 1.83,-1.08 5.97,3.2 13.53,8.28 22.63,15.23 4.08,3.13 9.49,5.12 12.91,6.98 6,3.23 10.5,-0.36 13.5,-5.71 13.99,-24.82 25.37,-50.55 34.21,-77.19 0.75,-2.25 3.2,-3.42 5.41,-2.61 19.53,7.14 40.11,15.59 61.67,25.4 11.19,5.09 23.15,9.36 32.51,16.34 0.95,0.72 1.24,2.02 0.65,3.07 -24.75,45.27 -35.12,103.05 -36.72,154.68 -2.09,67.93 -1.92,127.41 -1.83,220.81 0.03,11.06 2.41,28.08 2.77,41.97 0.98,35.81 2.8,76.11 5.51,120.92 0.1,1.76 -1.21,3.26 -2.97,3.36 -26.12,1.83 -49.34,5.45 -78.33,7.73 -2.35,0.16 -18.88,1.04 -49.6,2.58 -31.7,1.57 -61.34,1.53 -88.93,-0.06 -20.9,-1.21 -35.19,-0.62 -52.14,-2.54 -10.8,-1.24 -28.89,-2.9 -54.3,-4.99 -9,-0.75 -17.84,-3.23 -26.9,-3.72 -1.4,-0.07 -2.48,-1.24 -2.41,-2.64 0.59,-16.53 1.4,-44.78 2.45,-84.73 0.29,-11.02 0.78,-21.16 1.47,-30.46 1.47,-19.57 2.18,-29.71 2.22,-30.39 0.55,-27.56 1.37,-54.27 2.51,-80.16 0.65,-14.74 0.42,-30.49 -0.72,-47.29 -1.4,-20.51 0.16,-41.94 -1.34,-63.07 -0.23,-3.23 -0.46,-16.05 -0.65,-38.45 -0.1,-12.33 -1.04,-25.08 -2.9,-38.22 -5.15,-36.85 -12.65,-69.85 -22.54,-98.98 -3.62,-10.63 -8.48,-19.89 -14.58,-27.75 -0.59,-0.78 -0.39,-1.89 0.46,-2.38 8.9,-5.25 17.77,-9.29 26.54,-12.13 12.56,-4.04 21.65,-7.47 27.3,-10.27 5.74,-2.87 20.19,-8.67 43.31,-17.41 1.76,-0.65 3.69,0.33 4.17,2.15 6.29,23.02 15.62,45.3 28.01,66.79 3.52,6.1 5.64,10.73 11.45,15.26 2.32,1.83 5.48,2.02 8.02,0.55l34.18 -19.73c1.27,-0.72 2.84,0.2 2.84,1.66l0 108.56c0,3.55 2.9,6.42 6.46,6.42l35.25 0c3.65,0 6.62,-2.97 6.62,-6.62l0 -111.89zm-101.03 -104.36c0.78,-1.34 2.77,-1.11 3.2,0.39 4.6,16.53 9.91,28.99 15.88,37.37 10.21,14.25 22.89,29.15 38.12,44.68 0.98,1.01 0.55,2.67 -0.75,3.1 -4.79,1.63 -8.28,3.26 -10.53,4.89 -5.25,3.88 -14.77,9.82 -28.63,17.84 -1.27,0.72 -2.87,0.33 -3.62,-0.91 -13.73,-22.73 -24.13,-46.21 -31.27,-70.41 -0.82,-2.74 -0.46,-5.68 0.94,-8.12l16.66 -28.83zm148.41 -5.8c0.13,-0.95 1.44,-1.11 1.76,-0.2 4.31,12.36 11.55,22.99 21.69,31.83 2.25,1.99 3.07,5.15 2.05,7.99 -7.14,20.06 -16.83,42 -29.02,65.91 -1.14,2.28 -2.48,4.21 -3.98,5.81 -1.27,1.4 -3.39,1.66 -4.99,0.65l-34.18 -21.65c-1.63,-1.04 -1.92,-3.29 -0.65,-4.73 11.51,-13.01 21.69,-25.47 30.52,-37.31 11.45,-15.29 14.32,-30.04 16.79,-48.3z"/>
  </g>
 </g>
</svg>
