<?xml version="1.0" encoding="UTF-8"?>
<!DOCTYPE svg PUBLIC "-//W3C//DTD SVG 1.1//EN" "http://www.w3.org/Graphics/SVG/1.1/DTD/svg11.dtd">
<!-- Creator: CorelDRAW -->
<svg xmlns="http://www.w3.org/2000/svg" xml:space="preserve" width="76.4604mm" height="76.2494mm" version="1.1" style="shape-rendering:geometricPrecision; text-rendering:geometricPrecision; image-rendering:optimizeQuality; fill-rule:evenodd; clip-rule:evenodd"
viewBox="0 0 608.93 607.25"
 xmlns:xlink="http://www.w3.org/1999/xlink"
 xmlns:xodm="http://www.corel.com/coreldraw/odm/2003">
 <defs>
  <style type="text/css">
   <![CDATA[
    .fil0 {fill:black;fill-rule:nonzero}
    .fil1 {fill:#6699FF;fill-rule:nonzero}
   ]]>
  </style>
 </defs>
 <g id="Camada_x0020_1">
  <metadata id="CorelCorpID_0Corel-Layer"/>
  <g id="_1853399438784">
   <path class="fil0" d="M461.44 335.21c-0.06,0.14 -0.08,1.69 -0.06,4.61 0.95,84.06 3.43,164.95 7.42,242.68 0.14,2.67 -0.95,5.23 -2.98,6.97 -3.26,2.81 -7.98,4.75 -14.19,5.79 -25.82,4.33 -51.72,7.3 -77.71,8.96 -57.29,3.68 -110.92,2.92 -160.84,-2.25 -17.39,-1.77 -36.27,-3.06 -53.89,-6.88 -5.98,-1.29 -11.15,-3.34 -15.54,-6.15 -2.08,-1.32 -3.31,-3.62 -3.34,-6.1 -0.14,-12.45 0.2,-24.92 1.01,-37.45 4.41,-69.42 6.49,-140.33 6.29,-212.76 0,-0.42 -0.31,-0.79 -0.73,-0.84 -0.42,-0.03 -0.81,0.22 -0.93,0.65 -8.74,34.67 -20.31,86.53 -42.03,182.67 -3.62,16.07 -8.01,33.52 -13.09,52.37 -2.5,9.36 -4.86,18.49 -7.05,27.42 -1.04,4.33 -2.02,7.47 -2.92,9.44 -0.93,1.99 -3.06,3.18 -5.25,2.87 -22.59,-3.15 -40.6,-6.27 -54,-9.36 -7.78,-1.8 -14.13,-3.76 -18.99,-5.87 -1.63,-0.7 -2.67,-2.36 -2.61,-4.13 0.25,-8.37 1.32,-17.17 3.18,-26.35 3.6,-17.76 1.63,-29.28 3.68,-46.53 2.98,-25.17 6.21,-50.15 9.72,-74.9 2.95,-20.96 13.09,-74.65 30.4,-161.1 1.21,-6.07 4.49,-15.11 5.93,-22.28 5.7,-28.69 13.09,-57.82 22.17,-87.43 8.85,-28.83 16.38,-53.83 30.23,-74.45 4.75,-7.05 13.18,-13.15 25.26,-18.29 32,-13.63 55.12,-23.32 69.31,-29.02 5.76,-2.3 9.61,-4.13 11.6,-5.48 1.21,-0.84 2.22,-1.91 2.95,-3.18 2.89,-5.03 8.51,-13.91 16.8,-26.66 2.33,-3.62 5.06,-6.94 8.12,-9.89 0.67,-0.65 1.55,-1.04 2.44,-1.12 6.21,-0.59 10.06,-0.84 11.57,-0.73 34.84,2.61 69.14,2.53 102.88,-0.31 12.17,-1.01 17.03,4.52 21.77,14.33 0.11,0.2 0.22,0.42 0.36,0.62l20.17 26.94c0.08,0.14 0.22,0.22 0.36,0.28 32.28,12.59 61.89,25.34 88.89,38.29 9.36,4.49 16.01,10.73 19.98,18.74 10.56,21.41 17.9,39.7 21.97,54.87 6.41,23.8 12.33,43.29 18.15,67.57 19.36,80.55 35.65,164.89 48.94,252.97 1.97,13.09 3.46,24.72 4.44,34.92 1.01,10.42 1.49,18.21 1.46,23.35 -0.14,16.15 3.62,37.37 5.82,48.77 1.55,8.04 -1.99,10.62 -9.3,12.64 -19.53,5.42 -39.42,9.33 -59.62,11.72 -3.23,0.37 -6.15,0.31 -8.77,-0.17 -2.64,-0.48 -4.75,-2.5 -5.37,-5.11l-62.76 -265.56c-0.14,-0.67 -1.07,-0.73 -1.32,-0.08zm-148.87 -159.41c0.33,3.9 -2.76,7.36 -6.89,7.7 -4.12,0.33 -7.75,-2.56 -8.06,-6.47 -0.33,-3.9 2.76,-7.36 6.89,-7.7 4.12,-0.33 7.75,2.56 8.06,6.47zm0.22 -41.13c0,4.13 -3.37,7.5 -7.5,7.5 -4.13,0 -7.5,-3.37 -7.5,-7.5 0,-4.13 3.37,-7.5 7.5,-7.5 4.13,0 7.5,3.37 7.5,7.5zm-56.02 -94.6c0.14,0.48 0.59,0.79 1.07,0.79l92.1 0c0.51,0 0.95,-0.36 1.1,-0.84l5.48 -22c0.17,-0.73 -0.37,-1.4 -1.1,-1.4l-104.37 0c-0.76,0 -1.29,0.73 -1.07,1.46l6.8 22zm-17.25 -15.93c-0.28,-0.9 -1.49,-1.04 -1.97,-0.22l-16.04 27.73c-0.7,1.24 -0.79,2.73 -0.28,4.05 9.38,24.02 15.56,43.1 27.7,60.91 1.26,1.83 3.82,2.22 5.53,0.81 10.28,-8.32 19.89,-14.55 28.8,-18.74 2.42,-1.12 2.89,-4.35 0.87,-6.13 -21.69,-18.91 -36.55,-41.72 -44.61,-68.41zm128.73 -0.45c-0.11,-0.17 -0.37,-0.14 -0.42,0.06 -8.88,27.28 -23.32,51.22 -43.32,71.81 -1.04,1.07 -0.7,2.89 0.67,3.51 9.92,4.52 19.53,10.51 28.85,17.92 1.97,1.55 4.8,1.21 6.32,-0.79 4.64,-6.21 8.6,-13.09 11.88,-20.71 6.77,-15.73 11.83,-30.37 15.12,-43.94 0.08,-0.25 0.03,-0.51 -0.11,-0.7l-18.99 -27.17zm-103 30.26l33.97 39.11c1.24,1.46 3.37,1.8 5.03,0.81 5.39,-3.23 10.28,-7.33 14.64,-12.33 5.25,-5.98 12.92,-15.28 23.01,-27.95 1.21,-1.52 0.11,-3.74 -1.8,-3.74l-72.96 0c-2.14,0 -3.26,2.5 -1.88,4.1zm16.27 58.18c-10.42,7.67 -20.26,17.42 -32.59,22.11 -2.53,0.96 -5.34,-0.03 -6.77,-2.3 -13.79,-22.22 -23.71,-45.4 -29.78,-69.48 -0.51,-2.02 -2.64,-3.18 -4.61,-2.47 -17.39,6.1 -30.29,11.13 -38.69,15.14 -9.02,4.3 -16.41,7.33 -22.2,9.16 -8.37,2.64 -15.82,5.93 -22.36,9.83 -2.19,1.32 -2.98,4.16 -1.77,6.43 12.02,22.56 20.26,45.91 24.7,70.07 3.96,21.61 6.57,41.86 7.89,60.8 1.15,16.89 1.8,26.24 1.97,28.1 1.99,22.25 1.69,42.82 3.12,63.27 0.9,12.64 1.29,24.33 1.15,35.06 -0.34,30.96 -0.84,42.65 -0.42,74 0.17,12.73 -0.28,25.85 -1.38,39.36 -2.61,33.12 -2.59,58.94 -5.51,88.22 -0.36,3.54 2.16,6.74 5.7,7.22 97.97,12.9 194.87,12.9 290.7,-0.03 1.63,-0.22 2.84,-1.66 2.75,-3.29 -0.95,-23.6 -2.28,-44.45 -2.64,-69.84 -0.48,-34.3 -1.32,-63.38 -2.53,-87.18 -2.19,-43.07 -0.11,-89.06 1.35,-128.68 0.39,-11.04 2.53,-36.58 6.43,-76.64 1.21,-12.28 5.03,-22.59 6.63,-34.44 3.2,-24.02 11.27,-47.65 23.52,-67.99 1.32,-2.25 0.37,-5.14 -2.05,-6.13 -18.51,-7.61 -37.87,-16.24 -58.13,-25.85 -7.78,-3.71 -17.5,-6.74 -25.06,-8.63 -1.8,-0.45 -3.62,0.65 -4.05,2.44 -5.98,25.37 -17.19,48.18 -29.47,71.05 -1.55,2.87 -5.17,3.91 -8.01,2.28 -8.88,-5.11 -17.73,-10.87 -26.52,-17.25 -1.71,-1.24 -3.65,-2.02 -5.76,-2.33 -1.26,-0.2 -2.39,0.79 -2.39,2.05 0.06,17.11 0.08,45.46 0.11,85.04 0,4.44 -0.39,8.48 -1.15,12.14 -0.67,3.12 -3.46,5.37 -6.66,5.37l-27.39 0c-2.81,0 -5.08,-2.28 -5.08,-5.08l0 -100.02c0,-1.57 -1.8,-2.44 -3.06,-1.52zm209.45 -10.14c-15.93,35.88 -25.51,74.03 -28.77,114.46 -0.81,10.14 -1.49,23.82 -2.08,41.05 -0.22,6.77 0.06,11.66 0.81,14.69 12.25,48.55 21.69,86.9 28.29,115.02 2.02,8.6 3.23,13.54 3.6,14.83 3.71,13.04 5.7,26.07 8.37,37.45 5.2,22.03 9.41,40.4 12.61,55.15 0.14,0.59 1.38,4.44 3.71,11.49 0.03,0.06 0.03,0.11 0.06,0.2l6.72 42.48c0.36,2.33 2.61,3.88 4.92,3.4l55.21 -11.29c2.39,-0.48 4.1,-2.61 4.05,-5.06 -0.36,-17.5 -1.77,-34.56 -4.24,-51.13 -2.28,-15.17 -3.93,-27.2 -5,-36.07 -1.91,-16.04 -3.88,-28.01 -5.93,-35.96 -3.29,-12.7 -5.65,-24.08 -7.11,-34.11 -4.13,-28.15 -9.33,-54.62 -13.94,-77.21 -1.29,-6.32 -5.03,-14.69 -5.84,-19.24 -3.48,-19.41 -7.44,-38.55 -11.86,-57.4 -0.31,-1.32 -0.79,-2.61 -1.38,-3.82 -1.38,-2.75 -2.3,-5.82 -2.81,-9.22 -0.23,-1.46 -0.62,-2.89 -1.18,-4.24 -4.02,-10.03 -7.39,-22.11 -10.11,-36.24 -3.29,-16.86 -7.33,-33.15 -13.04,-45.15 -0.48,-0.98 -4.72,-9.05 -12.7,-24.16 -0.51,-0.96 -1.91,-0.93 -2.36,0.08zm-375.57 1.6c-4.75,6.88 -8.01,12.95 -9.78,18.21 -4.16,12.42 -8.74,24.44 -12.9,40.15 -2.05,7.81 -5.42,13.88 -7.33,20.37 -3.12,10.62 -6.8,25.26 -11.1,43.91 -2.67,11.6 -4.05,24.78 -7.14,35.09 -5.25,17.5 -9.92,37.93 -12.7,51.64 -7.92,39.19 -16.38,86.14 -25.37,140.87 -2.5,15.17 -4.72,31.35 -6.72,48.55 -1.24,10.9 -4.47,21.72 -3.32,33.88 0.11,1.24 0.96,2.25 2.11,2.61 18.23,5.59 37.59,9.97 58.02,13.09 1.01,0.17 1.99,-0.39 2.36,-1.32 1.99,-4.86 3.46,-9.22 4.33,-13.06 3.51,-15.31 7.16,-35.43 10.99,-60.29 0.65,-4.16 4.19,-9.86 5.65,-15.14 7.9,-28.68 13.49,-56.16 16.83,-82.43 0.17,-1.29 0.53,-2.53 1.1,-3.65 3.96,-7.95 6.77,-16.6 8.48,-25.93 4.33,-23.63 9.36,-45.51 15.09,-65.66 3.12,-10.9 4.64,-19.16 4.55,-24.81 -0.25,-15.25 -0.45,-23.74 -0.59,-25.43 -2.42,-26.27 -6.27,-61.75 -15.42,-90.94 -6.04,-19.24 -10.73,-32.39 -14.08,-39.45 -0.59,-1.24 -2.3,-1.38 -3.06,-0.25zm178.88 103.28c0,1.69 1.35,3.03 3.03,3.03l15.87 0c1.69,0 3.03,-1.35 3.03,-3.03l0 -97.8c0,-2.7 -3.26,-4.05 -5.17,-2.14l-15.87 15.87c-0.59,0.59 -0.9,1.35 -0.9,2.16l0 81.9zm-0.59 -89.06c1.29,0.25 2.67,-1.63 4.16,-5.68 1.29,-3.43 0.67,-5.39 -1.83,-5.9 -2.5,-0.48 -3.82,1.1 -3.99,4.75 -0.17,4.3 0.39,6.55 1.66,6.83zm243.87 473.46c18.65,0.51 36.64,-2.14 53.91,-7.89 1.57,-0.51 2.56,-2.11 2.3,-3.74l-4.52 -30.01c-0.22,-1.43 -1.6,-2.36 -3.03,-2.02l-54 12.76c-0.59,0.14 -0.95,0.7 -0.87,1.29l4.21 27.84c0.14,0.98 0.98,1.74 1.99,1.77zm-460.51 -31.13l-57.34 -10c-0.34,-0.06 -0.67,0.17 -0.73,0.53l-3.79 21.6c-1.12,6.55 0.22,12.25 3.03,12.73l48.44 8.46c2.81,0.51 6.01,-4.41 7.16,-10.96l3.76 -21.6c0.06,-0.37 -0.17,-0.7 -0.53,-0.76zm77.12 16.15c3.99,3.68 8.99,6.04 14.97,7.08 14.64,2.56 39.73,5.34 75.21,8.29 18.29,1.52 34.95,2.22 50.04,2.14 26.83,-0.17 43.55,-0.53 50.15,-1.07 8.23,-0.67 29.27,-2.11 63.13,-4.3 16.44,-1.07 31.33,-4.02 44.64,-8.85 1.77,-0.65 2.78,-2.56 2.28,-4.38 -0.48,-1.83 -2.28,-2.98 -4.16,-2.67 -17.76,3.01 -42.56,5.51 -74.4,7.47 -73.24,4.49 -146.68,2.14 -220.32,-7.05 -1.85,-0.22 -2.92,2.08 -1.55,3.34z"/>
   <path class="fil1" d="M256.76 40.07l-6.8 -22c-0.22,-0.73 0.31,-1.46 1.07,-1.46l104.37 0c0.73,0 1.26,0.67 1.1,1.4l-5.48 22c-0.14,0.48 -0.59,0.84 -1.1,0.84l-92.1 0c-0.48,0 -0.93,-0.31 -1.07,-0.79zm-102.6 536.22c-1.38,-1.26 -0.31,-3.57 1.55,-3.34 73.64,9.19 147.08,11.55 220.32,7.05 31.83,-1.97 56.64,-4.47 74.4,-7.47 1.88,-0.31 3.68,0.84 4.16,2.67 0.51,1.83 -0.51,3.74 -2.28,4.38 -13.32,4.83 -28.21,7.78 -44.64,8.85 -33.85,2.19 -54.9,3.62 -63.13,4.3 -6.6,0.53 -23.32,0.9 -50.15,1.07 -15.09,0.08 -31.75,-0.62 -50.04,-2.14 -35.48,-2.95 -60.57,-5.73 -75.21,-8.29 -5.98,-1.04 -10.98,-3.4 -14.97,-7.08zm-77.12 -16.15c0.36,0.06 0.59,0.39 0.53,0.76l-3.76 21.6c-1.15,6.55 -4.35,11.46 -7.16,10.96l-48.44 -8.46c-2.81,-0.48 -4.16,-6.18 -3.03,-12.73l3.79 -21.6c0.06,-0.37 0.39,-0.59 0.73,-0.53l57.34 10zm458.51 29.36l-4.21 -27.84c-0.08,-0.59 0.28,-1.15 0.87,-1.29l54 -12.76c1.43,-0.34 2.81,0.59 3.03,2.02l4.52 30.01c0.25,1.63 -0.73,3.23 -2.3,3.74 -17.28,5.76 -35.26,8.4 -53.91,7.89 -1.01,-0.03 -1.85,-0.79 -1.99,-1.77zm-239.54 -483.26c2.5,0.51 3.12,2.47 1.83,5.9 -1.49,4.05 -2.87,5.93 -4.16,5.68 -1.26,-0.28 -1.83,-2.53 -1.66,-6.83 0.17,-3.65 1.49,-5.23 3.99,-4.75zm-1.74 100.64l0 -81.9c0,-0.81 0.31,-1.57 0.9,-2.16l15.87 -15.87c1.91,-1.91 5.17,-0.56 5.17,2.14l0 97.8c0,1.69 -1.35,3.03 -3.03,3.03l-15.87 0c-1.69,0 -3.03,-1.35 -3.03,-3.03zm18.51 -72.2c0,-4.13 -3.37,-7.5 -7.5,-7.5 -4.13,0 -7.5,3.37 -7.5,7.5 0,4.13 3.37,7.5 7.5,7.5 4.13,0 7.5,-3.37 7.5,-7.5zm-0.22 41.13c-0.31,-3.91 -3.94,-6.8 -8.06,-6.47 -4.14,0.34 -7.23,3.8 -6.89,7.7 0.31,3.91 3.94,6.8 8.06,6.47 4.14,-0.34 7.23,-3.8 6.89,-7.7zm-197.17 -72.21c0.76,-1.12 2.47,-0.98 3.06,0.25 3.34,7.05 8.04,20.2 14.08,39.45 9.16,29.19 13.01,64.67 15.42,90.94 0.14,1.69 0.34,10.17 0.59,25.43 0.08,5.65 -1.43,13.91 -4.55,24.81 -5.73,20.14 -10.76,42.03 -15.09,65.66 -1.71,9.33 -4.52,17.98 -8.48,25.93 -0.56,1.12 -0.93,2.36 -1.1,3.65 -3.34,26.27 -8.93,53.75 -16.83,82.43 -1.46,5.28 -5,10.99 -5.65,15.14 -3.82,24.86 -7.47,44.98 -10.99,60.29 -0.87,3.85 -2.33,8.2 -4.33,13.06 -0.36,0.93 -1.35,1.49 -2.36,1.32 -20.43,-3.12 -39.78,-7.5 -58.02,-13.09 -1.15,-0.37 -1.99,-1.38 -2.11,-2.61 -1.15,-12.16 2.08,-22.98 3.32,-33.88 1.99,-17.19 4.21,-33.38 6.72,-48.55 8.99,-54.73 17.45,-101.68 25.37,-140.87 2.78,-13.71 7.45,-34.14 12.7,-51.64 3.09,-10.31 4.47,-23.49 7.14,-35.09 4.3,-18.66 7.98,-33.29 11.1,-43.91 1.91,-6.49 5.28,-12.56 7.33,-20.37 4.16,-15.7 8.74,-27.73 12.9,-40.15 1.77,-5.25 5.03,-11.32 9.78,-18.21zm375.57 -1.6c0.45,-1.01 1.85,-1.04 2.36,-0.08 7.98,15.11 12.22,23.18 12.7,24.16 5.7,12 9.75,28.29 13.04,45.15 2.73,14.13 6.1,26.21 10.11,36.24 0.56,1.35 0.95,2.78 1.18,4.24 0.51,3.4 1.43,6.46 2.81,9.22 0.59,1.21 1.07,2.5 1.38,3.82 4.41,18.85 8.37,37.98 11.86,57.4 0.81,4.55 4.55,12.92 5.84,19.24 4.61,22.59 9.81,49.05 13.94,77.21 1.46,10.03 3.82,21.41 7.11,34.11 2.05,7.95 4.02,19.92 5.93,35.96 1.07,8.88 2.73,20.9 5,36.07 2.47,16.58 3.88,33.63 4.24,51.13 0.06,2.44 -1.66,4.58 -4.05,5.06l-55.21 11.29c-2.3,0.48 -4.55,-1.07 -4.92,-3.4l-6.72 -42.48c-0.03,-0.08 -0.03,-0.14 -0.06,-0.2 -2.33,-7.05 -3.57,-10.9 -3.71,-11.49 -3.2,-14.75 -7.42,-33.12 -12.61,-55.15 -2.67,-11.38 -4.66,-24.42 -8.37,-37.45 -0.37,-1.29 -1.57,-6.24 -3.6,-14.83 -6.6,-28.12 -16.04,-66.47 -28.29,-115.02 -0.76,-3.03 -1.04,-7.92 -0.81,-14.69 0.59,-17.22 1.26,-30.9 2.08,-41.05 3.26,-40.43 12.84,-78.58 28.77,-114.46zm-209.45 10.14c1.26,-0.93 3.06,-0.06 3.06,1.52l0 100.02c0,2.81 2.28,5.08 5.08,5.08l27.39 0c3.2,0 5.98,-2.25 6.66,-5.37 0.76,-3.65 1.15,-7.7 1.15,-12.14 -0.03,-39.59 -0.06,-67.93 -0.11,-85.04 0,-1.26 1.12,-2.25 2.39,-2.05 2.11,0.31 4.05,1.1 5.76,2.33 8.79,6.38 17.64,12.14 26.52,17.25 2.84,1.63 6.46,0.59 8.01,-2.28 12.28,-22.87 23.49,-45.68 29.47,-71.05 0.42,-1.8 2.25,-2.89 4.05,-2.44 7.56,1.88 17.28,4.92 25.06,8.63 20.26,9.61 39.61,18.23 58.13,25.85 2.42,0.98 3.37,3.88 2.05,6.13 -12.25,20.34 -20.31,43.97 -23.52,67.99 -1.6,11.86 -5.42,22.17 -6.63,34.44 -3.91,40.06 -6.04,65.6 -6.43,76.64 -1.46,39.61 -3.54,85.61 -1.35,128.68 1.21,23.8 2.05,52.88 2.53,87.18 0.37,25.4 1.69,46.25 2.64,69.84 0.08,1.63 -1.12,3.06 -2.75,3.29 -95.83,12.92 -192.73,12.92 -290.7,0.03 -3.54,-0.48 -6.07,-3.68 -5.7,-7.22 2.92,-29.27 2.89,-55.09 5.51,-88.22 1.1,-13.51 1.55,-26.63 1.38,-39.36 -0.42,-31.35 0.08,-43.04 0.42,-74 0.14,-10.73 -0.25,-22.42 -1.15,-35.06 -1.43,-20.45 -1.12,-41.02 -3.12,-63.27 -0.17,-1.85 -0.81,-11.21 -1.97,-28.1 -1.32,-18.94 -3.93,-39.19 -7.89,-60.8 -4.44,-24.16 -12.67,-47.51 -24.7,-70.07 -1.21,-2.28 -0.42,-5.11 1.77,-6.43 6.55,-3.91 13.99,-7.19 22.36,-9.83 5.79,-1.83 13.18,-4.86 22.2,-9.16 8.4,-4.02 21.3,-9.05 38.69,-15.14 1.97,-0.7 4.1,0.45 4.61,2.47 6.07,24.08 15.99,47.26 29.78,69.48 1.43,2.28 4.24,3.26 6.77,2.3 12.33,-4.69 22.17,-14.44 32.59,-22.11zm-16.27 -58.18c-1.38,-1.6 -0.25,-4.1 1.88,-4.1l72.96 0c1.91,0 3.01,2.22 1.8,3.74 -10.09,12.67 -17.76,21.97 -23.01,27.95 -4.35,5 -9.24,9.1 -14.64,12.33 -1.66,0.98 -3.79,0.65 -5.03,-0.81l-33.97 -39.11zm103 -30.26l18.99 27.17c0.14,0.2 0.2,0.45 0.11,0.7 -3.29,13.57 -8.34,28.21 -15.12,43.94 -3.29,7.61 -7.25,14.5 -11.88,20.71 -1.52,1.99 -4.35,2.33 -6.32,0.79 -9.33,-7.42 -18.94,-13.4 -28.85,-17.92 -1.38,-0.62 -1.71,-2.44 -0.67,-3.51 20,-20.59 34.44,-44.53 43.32,-71.81 0.06,-0.2 0.31,-0.22 0.42,-0.06zm-128.73 0.45c8.06,26.69 22.93,49.5 44.61,68.41 2.02,1.77 1.55,5 -0.87,6.13 -8.91,4.19 -18.51,10.42 -28.8,18.74 -1.71,1.4 -4.27,1.01 -5.53,-0.81 -12.14,-17.81 -18.32,-36.89 -27.7,-60.91 -0.51,-1.32 -0.42,-2.81 0.28,-4.05l16.04 -27.73c0.48,-0.81 1.69,-0.67 1.97,0.22z"/>
  </g>
 </g>
</svg>
