<?xml version="1.0" encoding="UTF-8"?>
<!DOCTYPE svg PUBLIC "-//W3C//DTD SVG 1.1//EN" "http://www.w3.org/Graphics/SVG/1.1/DTD/svg11.dtd">
<!-- Creator: CorelDRAW -->
<svg xmlns="http://www.w3.org/2000/svg" xml:space="preserve" width="76.6307mm" height="78.1856mm" version="1.1" style="shape-rendering:geometricPrecision; text-rendering:geometricPrecision; image-rendering:optimizeQuality; fill-rule:evenodd; clip-rule:evenodd"
viewBox="0 0 431.81 440.57"
 xmlns:xlink="http://www.w3.org/1999/xlink"
 xmlns:xodm="http://www.corel.com/coreldraw/odm/2003">
 <defs>
  <style type="text/css">
   <![CDATA[
    .fil0 {fill:black;fill-rule:nonzero}
    .fil1 {fill:#E88EA0;fill-rule:nonzero}
   ]]>
  </style>
 </defs>
 <g id="Camada_x0020_1">
  <metadata id="CorelCorpID_0Corel-Layer"/>
  <g id="_1889177783504">
   <path class="fil0" d="M108.55 221.87c-0.32,0.18 -0.52,0.44 -0.62,0.77 -2.68,11.55 -4.98,20.75 -6.95,27.56 -3.83,13.36 -6.29,22.49 -7.39,27.4 -1.49,6.69 -8.44,34.9 -20.81,84.6 -1.01,4.11 -2.5,8.91 -4.43,14.41 -1.39,3.97 -4.9,7.5 -5.98,11.91 -1.57,6.33 -3.39,15.11 -5.52,26.32 -0.24,1.25 -1.11,2.26 -2.3,2.7 -2.96,1.05 -5.78,1.37 -8.46,0.97 -15.49,-2.28 -29.88,-6.06 -43.2,-11.3 -2.06,-0.81 -3.26,-3 -2.82,-5.2l5.66 -28.31c0.14,-0.64 0.16,-1.31 0.08,-1.95 -0.93,-8.16 -1.05,-14.12 -0.36,-17.85 3.65,-19.28 7.23,-42.84 11.95,-65.93 2.26,-11.08 5.94,-29.14 11.02,-54.2 9.61,-47.47 20.87,-93.09 33.77,-136.87 4.8,-16.32 12.65,-30.61 28.69,-37.68 18.86,-8.32 32,-13.88 39.45,-16.7 14.08,-5.34 22.29,-8.66 24.68,-9.95 1.11,-0.62 2.04,-1.51 2.7,-2.58l13.16 -21.62c0.24,-0.42 0.62,-0.77 1.05,-1.01 10.07,-5.74 24.34,-7.15 35.54,-7.29 18.07,-0.24 35.18,-0.48 50.71,5.48 2.01,0.75 3.69,2.18 4.76,4.05l11.44 19.81c0.64,1.09 1.63,1.95 2.8,2.44 11.63,4.8 18.54,8.22 28.23,11.87 13.06,4.94 26.5,10.58 40.3,16.92 14.63,6.71 20.85,21.76 25.11,37.09 12.63,45.38 23.88,91.38 33.75,137.98 4.61,21.78 8.06,43.78 13.28,69.57 2.3,11.42 5.06,27.36 8.28,47.81 0.97,6.15 0.46,10.94 0.06,17.77 -0.04,0.5 -0.02,0.97 0.08,1.47l5.46 30.43c0.4,2.1 -0.83,4.19 -2.86,4.9 -8.99,3.14 -19.89,6.25 -32.72,9.33 -5.22,1.25 -10.26,1.79 -15.15,1.61 -2.76,-0.1 -5.08,-2.07 -5.66,-4.76l-5.84 -27.62c-0.18,-0.83 -0.56,-1.61 -1.09,-2.28 -2.7,-3.36 -5.14,-9.33 -7.33,-17.97 -11.16,-44.09 -20.01,-78.56 -26.56,-103.38 -1.83,-6.93 -3.34,-13.28 -4.55,-19.06 -1.91,-9.19 -3.51,-19.4 -5.62,-21.62 -0.44,-0.46 -1.21,-0.22 -1.31,0.4 -3.1,18.42 -6.87,37.14 -6.41,57.37 0.14,6.21 2.22,17.05 6.25,32.56 4.96,19.12 9.43,38.18 13.42,57.16 2.64,12.53 4.27,21.62 4.92,27.26 0.24,2.01 -0.68,3.95 -2.36,5.06 -9.27,6.09 -18.84,11.79 -28.75,17.13 -24.66,13.28 -51.58,20.45 -80.78,21.48 -18.01,0.65 -34.56,-0.18 -49.63,-2.48 -13.82,-2.1 -28.91,-6.73 -45.25,-13.9 -14.06,-6.17 -27.83,-13.9 -41.33,-23.17 -0.56,-0.38 -0.91,-0.99 -0.93,-1.65 -0.2,-4.33 0.1,-8.68 0.89,-13.06 4.88,-26.66 11.83,-56.16 20.85,-88.49 6.08,-21.72 0.75,-52.04 -4.57,-75.36 -0.08,-0.36 -0.5,-0.56 -0.83,-0.38zm107.41 -197.18c10.64,-0.02 21.02,0.81 31.21,2.5 0.75,0.12 1.49,-0.32 1.71,-1.05l3.36 -10.78c0.28,-0.91 -0.28,-1.87 -1.21,-2.08 -12.35,-2.78 -24.04,-4.17 -35.08,-4.13 -11.04,0.02 -22.73,1.45 -35.08,4.27 -0.93,0.22 -1.47,1.19 -1.19,2.08l3.4 10.78c0.24,0.71 0.97,1.17 1.73,1.05 10.16,-1.73 20.55,-2.6 31.17,-2.64zm-41.08 -2.82c-0.2,-0.65 -1.09,-0.77 -1.45,-0.18 -3.95,6.63 -6.71,11.44 -8.28,14.39 -4.27,8.1 14.53,41.16 19.69,49.14 0.6,0.93 1.91,1.03 2.62,0.22l19.12 -21.62c0.52,-0.6 0.44,-1.49 -0.2,-1.97 -15.15,-11.51 -26.01,-22.12 -31.51,-39.98zm82.67 0.46c-5.64,17.65 -16.52,28.01 -31.63,39.27 -0.64,0.46 -0.72,1.35 -0.22,1.93l18.7 21.6c0.71,0.83 2,0.73 2.6,-0.16 5.2,-7.84 24.16,-40.38 20.01,-48.44 -1.51,-2.96 -4.19,-7.72 -8.02,-14.33 -0.36,-0.6 -1.23,-0.52 -1.45,0.14zm-41.28 9.65c-9.75,0.06 -18.5,0.83 -26.31,2.36 -0.87,0.18 -1.27,1.23 -0.69,1.93 7.54,9.31 16.34,16.6 26.38,21.84 0.02,0.02 0.3,0.02 0.83,0.02 0.44,0 0.66,0 0.7,-0.02 9.99,-5.36 18.7,-12.73 26.15,-22.12 0.56,-0.72 0.16,-1.77 -0.73,-1.93 -7.8,-1.45 -16.58,-2.12 -26.33,-2.08zm-14.53 47.83l-12.29 14.06c-1.15,1.33 -3.12,1.61 -4.61,0.68 -1.79,-1.15 -3.38,-2.74 -4.75,-4.73 -9.77,-14.2 -16.95,-29.5 -21.56,-45.92 -0.36,-1.23 -1.67,-1.87 -2.84,-1.37l-65.2 27.4c-0.89,0.38 -1.29,1.43 -0.87,2.32 8.16,16.93 13.82,34.62 17.01,53.09 0.32,1.93 1.33,3.69 2.82,4.98 28.33,24.3 41.35,54.8 46.63,91.29 3.85,26.56 4.72,53.19 2.6,79.87 -0.77,10.03 -3.18,28.95 -7.19,56.76 -3.18,22.02 -6.23,40.84 -9.17,56.42 -0.22,1.15 0.36,2.28 1.43,2.78 17.67,8.26 37.34,11.4 57.71,13 0.46,0.04 0.87,-0.34 0.87,-0.81l0.28 -349.48c0,-0.48 -0.6,-0.69 -0.89,-0.34zm29.1 -0.14c-0.32,-0.36 -0.89,-0.14 -0.89,0.34l0 349.87c0,0.48 0.4,0.85 0.87,0.81 20.39,-1.59 40.08,-4.71 57.79,-12.96 1.05,-0.5 1.65,-1.63 1.43,-2.78 -2.92,-15.62 -5.98,-34.45 -9.13,-56.5 -3.99,-27.85 -6.39,-46.79 -7.17,-56.84 -2.08,-26.7 -1.19,-53.37 2.68,-79.95 5.32,-36.53 18.38,-67.04 46.75,-91.36 1.51,-1.29 2.5,-3.04 2.84,-4.98 3.2,-18.48 8.89,-36.19 17.07,-53.13 0.42,-0.89 0.02,-1.95 -0.87,-2.32l-65.26 -27.5c-1.17,-0.48 -2.48,0.16 -2.84,1.37 -4.63,16.44 -11.83,31.76 -21.62,45.96 -1.37,2 -2.96,3.57 -4.76,4.72 -1.49,0.95 -3.45,0.66 -4.61,-0.68l-12.29 -14.08zm-21 351.48l12.23 0c0.58,0 1.05,-0.48 1.05,-1.05l0 -355.43c0,-4.37 -2.98,-7.9 -6.63,-7.9l-1.07 0c-3.65,0 -6.63,3.53 -6.63,7.9l0 355.43c0,0.58 0.48,1.05 1.05,1.05zm138.48 -356.07c-0.56,-0.18 -1.17,0.1 -1.39,0.66 -6.02,14.75 -11.18,31.67 -15.52,50.76 -2.2,9.73 -3.79,24.7 -4.72,44.93 -0.34,7.21 0.06,14.02 1.21,20.43 1.69,9.43 3.08,16.14 4.15,20.13 7.37,27.54 13,49.22 16.95,65 3.4,13.58 5.38,21.64 5.96,24.2 5.6,24.62 11.79,47.03 19.1,73.5 0.48,1.73 2.2,2.8 3.97,2.42l35 -7.4c2.38,-0.52 4.07,-2.64 4.03,-5.08 -0.1,-5.2 -0.46,-9.59 -1.07,-13.18 -2.96,-17.27 -5.92,-33.19 -8.85,-47.79 -8.32,-41.35 -17.17,-93.01 -26.25,-127.62 -5.34,-20.27 -11.4,-43.84 -18.17,-70.66 -3.02,-11.93 -7.33,-21.64 -12.94,-29.1 -0.48,-0.64 -0.95,-1.03 -1.45,-1.19zm-265.48 1.59c-1.55,1.41 -3.06,3.63 -4.51,6.67 -4.01,8.3 -8.22,20.61 -12.63,36.91 -3.32,12.33 -8.14,31.29 -14.45,56.92 -4.43,17.89 -8.64,37.03 -12.67,57.37 -0.24,1.15 -5.6,27.99 -16.06,80.54 -2.24,11.28 -2.96,22.3 -5.56,32.46 -1.61,6.25 -2.28,14.37 -1.51,19.6 0.12,0.89 0.77,1.63 1.67,1.85l37.09 9.07c0.99,0.24 2.02,-0.18 2.58,-1.05 1.37,-2.2 2.44,-4.67 3.18,-7.35 10.01,-36.97 19.89,-75.86 29.68,-116.66 4.8,-20.07 10.34,-41.91 16.62,-65.54 0.42,-1.59 0.62,-3.22 0.6,-4.84 -0.3,-24.28 -2.48,-44.13 -6.55,-59.54 -4.51,-16.97 -9.19,-32.16 -14.06,-45.58 -0.52,-1.41 -2.3,-1.85 -3.41,-0.83zm25.43 60.25c2.3,11.91 3.59,22.51 3.89,31.82 1.07,35.06 13.32,67.78 14.31,101.29 0.48,15.86 -2.08,32.28 -7.68,49.22 -2.32,6.99 -7.48,28.83 -15.51,65.52 -0.18,0.85 -0.52,3.43 -0.99,7.74 -0.2,1.71 0.66,3.37 2.16,4.25l30.16 17.41c1.01,0.6 2.3,-0.02 2.5,-1.17 4.27,-24.74 8.06,-48.38 11.38,-70.96 6.04,-41.12 7.98,-77.61 2.82,-119.04 -2.08,-16.58 -8.18,-36.53 -14.21,-48.92 -6.41,-13.18 -15.76,-25.71 -28.05,-37.6 -0.34,-0.32 -0.87,-0.02 -0.77,0.44zm214.65 -0.5c-4.35,4.27 -9.59,10.4 -15.72,18.4 -18.05,23.47 -25.11,52.71 -27.5,82.69 -2.4,30.08 -1.61,60.41 2.38,91.01 3.43,26.42 7.84,54.97 13.22,85.61 0.12,0.62 0.77,0.95 1.33,0.69 11.79,-5.48 22.81,-11.83 33.04,-19.04 0.62,-0.44 0.95,-1.19 0.87,-1.95 -1.85,-17.87 -5.18,-34.86 -10.05,-51 -4.07,-13.54 -6.19,-23.64 -10.03,-37.8 -4.57,-16.9 -5.32,-33.85 -2.28,-50.9 2.32,-12.94 3.79,-23.68 6.17,-37.07 3.3,-18.62 5.18,-31.75 5.66,-39.37 0.93,-15.15 2.12,-28.79 3.57,-40.94 0.04,-0.38 -0.4,-0.6 -0.68,-0.34zm-270.8 247.15l-35.1 -8.04c-0.85,-0.2 -1.71,0.34 -1.91,1.19l-4.76 20.81c-0.4,1.73 0.54,3.4 2.06,3.75l32.64 7.48c1.53,0.34 3.1,-0.77 3.49,-2.48l4.76 -20.81c0.2,-0.85 -0.34,-1.71 -1.19,-1.91zm364.28 -6.87c-0.3,-1.19 -1.49,-1.9 -2.68,-1.6l-33.37 8.45c-1.17,0.3 -1.89,1.49 -1.6,2.68l5.33 21.06c0.3,1.19 1.49,1.9 2.68,1.6l33.37 -8.45c1.17,-0.3 1.89,-1.49 1.6,-2.68l-5.33 -21.06z"/>
   <path class="fil1" d="M215.95 24.69c-10.62,0.04 -21,0.91 -31.17,2.64 -0.75,0.12 -1.49,-0.34 -1.73,-1.05l-3.4 -10.78c-0.28,-0.89 0.26,-1.87 1.19,-2.08 12.35,-2.82 24.04,-4.25 35.08,-4.27 11.04,-0.04 22.73,1.35 35.08,4.13 0.93,0.22 1.49,1.17 1.21,2.08l-3.36 10.78c-0.22,0.73 -0.95,1.17 -1.71,1.05 -10.19,-1.69 -20.57,-2.52 -31.21,-2.5zm205.79 373.07c0.29,1.18 -0.42,2.37 -1.6,2.68l-33.37 8.45c-1.19,0.31 -2.38,-0.41 -2.68,-1.6l-5.33 -21.06c-0.29,-1.18 0.42,-2.37 1.6,-2.68l33.37 -8.45c1.19,-0.31 2.38,0.41 2.68,1.6l5.33 21.06zm-369.61 -14.18c0.85,0.2 1.39,1.05 1.19,1.91l-4.76 20.81c-0.4,1.71 -1.97,2.82 -3.49,2.48l-32.64 -7.48c-1.53,-0.36 -2.46,-2.03 -2.06,-3.75l4.76 -20.81c0.2,-0.85 1.05,-1.39 1.91,-1.19l35.1 8.04zm270.8 -247.15c0.28,-0.26 0.72,-0.04 0.68,0.34 -1.45,12.15 -2.64,25.79 -3.57,40.94 -0.48,7.62 -2.36,20.75 -5.66,39.37 -2.38,13.38 -3.85,24.12 -6.17,37.07 -3.04,17.05 -2.28,34.01 2.28,50.9 3.83,14.16 5.96,24.26 10.03,37.8 4.86,16.14 8.2,33.13 10.05,51 0.08,0.75 -0.26,1.51 -0.87,1.95 -10.22,7.21 -21.24,13.56 -33.04,19.04 -0.56,0.26 -1.21,-0.08 -1.33,-0.69 -5.38,-30.63 -9.79,-59.18 -13.22,-85.61 -3.99,-30.59 -4.78,-60.93 -2.38,-91.01 2.38,-29.98 9.45,-59.22 27.5,-82.69 6.13,-8 11.38,-14.14 15.72,-18.4zm-214.65 0.5c-0.1,-0.46 0.44,-0.75 0.77,-0.44 12.29,11.89 21.64,24.42 28.05,37.6 6.04,12.39 12.13,32.34 14.21,48.92 5.16,41.43 3.22,77.92 -2.82,119.04 -3.32,22.57 -7.11,46.22 -11.38,70.96 -0.2,1.15 -1.49,1.77 -2.5,1.17l-30.16 -17.41c-1.51,-0.87 -2.36,-2.54 -2.16,-4.25 0.48,-4.31 0.81,-6.89 0.99,-7.74 8.02,-36.69 13.18,-58.53 15.51,-65.52 5.6,-16.93 8.16,-33.35 7.68,-49.22 -0.99,-33.51 -13.24,-66.23 -14.31,-101.29 -0.3,-9.31 -1.59,-19.91 -3.89,-31.82zm-25.43 -60.25c1.11,-1.01 2.9,-0.58 3.41,0.83 4.86,13.42 9.55,28.61 14.06,45.58 4.07,15.41 6.25,35.26 6.55,59.54 0.02,1.63 -0.18,3.26 -0.6,4.84 -6.27,23.62 -11.81,45.46 -16.62,65.54 -9.79,40.8 -19.67,79.69 -29.68,116.66 -0.73,2.68 -1.81,5.14 -3.18,7.35 -0.56,0.87 -1.59,1.29 -2.58,1.05l-37.09 -9.07c-0.89,-0.22 -1.55,-0.95 -1.67,-1.85 -0.77,-5.22 -0.1,-13.34 1.51,-19.6 2.6,-10.16 3.32,-21.18 5.56,-32.46 10.46,-52.55 15.82,-79.39 16.06,-80.54 4.03,-20.35 8.24,-39.49 12.67,-57.37 6.31,-25.63 11.14,-44.59 14.45,-56.92 4.41,-16.3 8.62,-28.61 12.63,-36.91 1.45,-3.04 2.96,-5.26 4.51,-6.67zm265.48 -1.59c0.5,0.16 0.97,0.56 1.45,1.19 5.62,7.46 9.93,17.17 12.94,29.1 6.77,26.82 12.83,50.39 18.17,70.66 9.07,34.6 17.93,86.26 26.25,127.62 2.94,14.59 5.9,30.51 8.85,47.79 0.62,3.59 0.97,7.98 1.07,13.18 0.04,2.44 -1.65,4.57 -4.03,5.08l-35 7.4c-1.77,0.38 -3.49,-0.69 -3.97,-2.42 -7.31,-26.46 -13.5,-48.88 -19.1,-73.5 -0.58,-2.56 -2.56,-10.62 -5.96,-24.2 -3.95,-15.78 -9.59,-37.46 -16.95,-65 -1.07,-3.99 -2.46,-10.7 -4.15,-20.13 -1.15,-6.41 -1.55,-13.22 -1.21,-20.43 0.93,-20.23 2.52,-35.2 4.72,-44.93 4.35,-19.1 9.51,-36.01 15.52,-50.76 0.22,-0.56 0.83,-0.83 1.39,-0.66zm-138.48 356.07c-0.58,0 -1.05,-0.48 -1.05,-1.05l0 -355.43c0,-4.37 2.98,-7.9 6.63,-7.9l1.07 0c3.65,0 6.63,3.53 6.63,7.9l0 355.43c0,0.58 -0.48,1.05 -1.05,1.05l-12.23 0zm10.44 -355.77c0,-2.32 -1.89,-4.21 -4.21,-4.21 -2.32,0 -4.21,1.89 -4.21,4.21 0,2.32 1.89,4.21 4.21,4.21 2.32,0 4.21,-1.89 4.21,-4.21zm-8.99 50.17c-1.35,2.1 -0.6,5 1.71,6.5 2.3,1.48 5.28,1 6.63,-1.1 1.35,-2.1 0.6,-5 -1.71,-6.5 -2.3,-1.48 -5.28,-1 -6.63,1.1zm2.12 55.15c-2.32,1.15 -3.19,4.05 -1.99,6.48 1.2,2.43 4.06,3.48 6.37,2.33 2.32,-1.15 3.19,-4.05 1.99,-6.48 -1.2,-2.43 -4.06,-3.48 -6.37,-2.33zm7.13 61.94c0,-2.68 -2.18,-4.86 -4.86,-4.86 -2.68,0 -4.86,2.18 -4.86,4.86 0,2.68 2.18,4.86 4.86,4.86 2.68,0 4.86,-2.18 4.86,-4.86zm-0.26 57.87c0,-2.54 -2.06,-4.61 -4.61,-4.61 -2.54,0 -4.61,2.06 -4.61,4.61 0,2.54 2.06,4.61 4.61,4.61 2.54,0 4.61,-2.06 4.61,-4.61zm-9.48 55.72c-0.32,2.31 1.52,4.47 4.11,4.83 2.59,0.36 4.95,-1.21 5.29,-3.51 0.32,-2.31 -1.52,-4.47 -4.11,-4.83 -2.59,-0.36 -4.95,1.21 -5.29,3.51zm20.05 -276.57l12.29 14.08c1.15,1.33 3.12,1.63 4.61,0.68 1.81,-1.15 3.39,-2.72 4.76,-4.72 9.79,-14.2 16.99,-29.52 21.62,-45.96 0.36,-1.21 1.67,-1.85 2.84,-1.37l65.26 27.5c0.89,0.38 1.29,1.43 0.87,2.32 -8.18,16.93 -13.88,34.64 -17.07,53.13 -0.34,1.95 -1.33,3.69 -2.84,4.98 -28.37,24.32 -41.43,54.83 -46.75,91.36 -3.87,26.58 -4.76,53.25 -2.68,79.95 0.77,10.05 3.18,28.99 7.17,56.84 3.16,22.06 6.21,40.88 9.13,56.5 0.22,1.15 -0.38,2.28 -1.43,2.78 -17.71,8.26 -37.4,11.38 -57.79,12.96 -0.48,0.04 -0.87,-0.34 -0.87,-0.81l0 -349.87c0,-0.48 0.58,-0.69 0.89,-0.34zm-29.1 0.14c0.3,-0.36 0.89,-0.14 0.89,0.34l-0.28 349.48c0,0.48 -0.42,0.85 -0.87,0.81 -20.37,-1.61 -40.04,-4.74 -57.71,-13 -1.07,-0.5 -1.65,-1.63 -1.43,-2.78 2.94,-15.58 6,-34.41 9.17,-56.42 4.01,-27.81 6.41,-46.73 7.19,-56.76 2.12,-26.68 1.25,-53.31 -2.6,-79.87 -5.28,-36.49 -18.3,-66.98 -46.63,-91.29 -1.49,-1.29 -2.5,-3.06 -2.82,-4.98 -3.2,-18.46 -8.85,-36.15 -17.01,-53.09 -0.42,-0.89 -0.02,-1.95 0.87,-2.32l65.2 -27.4c1.17,-0.5 2.48,0.14 2.84,1.37 4.61,16.42 11.79,31.73 21.56,45.92 1.37,1.99 2.96,3.57 4.75,4.73 1.49,0.93 3.45,0.65 4.61,-0.68l12.29 -14.06zm14.75 -21.68c-0.54,0 -0.81,0 -0.83,-0.02 -10.05,-5.24 -18.84,-12.53 -26.38,-21.84 -0.58,-0.69 -0.18,-1.75 0.69,-1.93 7.8,-1.53 16.56,-2.3 26.31,-2.36 9.75,-0.04 18.52,0.64 26.33,2.08 0.89,0.16 1.29,1.21 0.73,1.93 -7.44,9.39 -16.16,16.76 -26.15,22.12 -0.04,0.02 -0.26,0.02 -0.7,0.02zm41.06 -35.8c0.22,-0.65 1.09,-0.73 1.45,-0.14 3.83,6.61 6.51,11.38 8.02,14.33 4.15,8.06 -14.81,40.6 -20.01,48.44 -0.6,0.89 -1.89,0.99 -2.6,0.16l-18.7 -21.6c-0.5,-0.58 -0.42,-1.47 0.22,-1.93 15.11,-11.26 25.99,-21.62 31.63,-39.27zm-82.67 -0.46c5.5,17.87 16.36,28.47 31.51,39.98 0.64,0.48 0.71,1.37 0.2,1.97l-19.12 21.62c-0.71,0.81 -2.02,0.71 -2.62,-0.22 -5.16,-7.98 -23.96,-41.04 -19.69,-49.14 1.57,-2.96 4.33,-7.76 8.28,-14.39 0.36,-0.6 1.25,-0.48 1.45,0.18z"/>
   <path class="fil0" d="M220.28 75.38c0,2.32 -1.89,4.21 -4.21,4.21 -2.32,0 -4.21,-1.89 -4.21,-4.21 0,-2.32 1.89,-4.21 4.21,-4.21 2.32,0 4.21,1.89 4.21,4.21z"/>
   <path class="fil0" d="M211.29 125.55c1.35,-2.11 4.33,-2.59 6.63,-1.1 2.31,1.5 3.06,4.4 1.71,6.5 -1.35,2.11 -4.33,2.58 -6.63,1.1 -2.31,-1.5 -3.06,-4.39 -1.71,-6.5z"/>
   <path class="fil0" d="M213.41 180.7c2.31,-1.15 5.17,-0.1 6.37,2.33 1.2,2.43 0.33,5.33 -1.99,6.48 -2.31,1.15 -5.17,0.1 -6.37,-2.33 -1.2,-2.43 -0.33,-5.33 1.99,-6.48z"/>
   <path class="fil0" d="M220.54 242.64c0,2.68 -2.18,4.86 -4.86,4.86 -2.68,0 -4.86,-2.18 -4.86,-4.86 0,-2.68 2.18,-4.86 4.86,-4.86 2.68,0 4.86,2.18 4.86,4.86z"/>
   <path class="fil0" d="M220.28 300.51c0,2.54 -2.06,4.61 -4.61,4.61 -2.54,0 -4.61,-2.06 -4.61,-4.61 0,-2.54 2.06,-4.61 4.61,-4.61 2.54,0 4.61,2.06 4.61,4.61z"/>
   <path class="fil0" d="M210.8 356.23c0.33,-2.3 2.69,-3.87 5.29,-3.51 2.59,0.36 4.44,2.52 4.11,4.83 -0.33,2.3 -2.69,3.87 -5.29,3.51 -2.59,-0.36 -4.44,-2.52 -4.11,-4.83z"/>
  </g>
 </g>
</svg>
