<?xml version="1.0" encoding="UTF-8"?>
<!DOCTYPE svg PUBLIC "-//W3C//DTD SVG 1.1//EN" "http://www.w3.org/Graphics/SVG/1.1/DTD/svg11.dtd">
<!-- Creator: CorelDRAW -->
<svg xmlns="http://www.w3.org/2000/svg" xml:space="preserve" width="70.5877mm" height="73.7616mm" version="1.1" style="shape-rendering:geometricPrecision; text-rendering:geometricPrecision; image-rendering:optimizeQuality; fill-rule:evenodd; clip-rule:evenodd"
viewBox="0 0 650.51 679.76"
 xmlns:xlink="http://www.w3.org/1999/xlink"
 xmlns:xodm="http://www.corel.com/coreldraw/odm/2003">
 <defs>
  <style type="text/css">
   <![CDATA[
    .fil0 {fill:black;fill-rule:nonzero}
    .fil1 {fill:#6699FF;fill-rule:nonzero}
   ]]>
  </style>
 </defs>
 <g id="Camada_x0020_1">
  <metadata id="CorelCorpID_0Corel-Layer"/>
  <g id="_1889183675168">
   <path class="fil0" d="M508.79 290c-0.46,-0.52 -1.3,-0.16 -1.27,0.52 1.53,35.21 -0.39,76.92 1.11,119.28 2.05,58.75 4.65,119.71 7.8,182.91 0.88,17.49 0.81,36.41 1.76,56.24 0.36,7.19 -2.15,12.13 -9.17,13.49 -30.66,6.05 -57.58,10.18 -80.69,12.35 -87.81,8.32 -173.58,6.18 -257.26,-6.4 -13.69,-2.05 -28.74,-4.88 -36.41,-12.29 -2.11,-2.08 -3.25,-4.97 -3.09,-7.93 4.19,-79.36 7.45,-159.66 9.69,-240.91 1.1,-40.15 -0.72,-83.1 0.16,-115.58 0,-0.46 -0.59,-0.68 -0.88,-0.33l-19.21 22.37c-1.27,1.5 -3.19,2.37 -5.17,2.34 -14.76,-0.13 -37.09,-15.86 -55.59,-26.76 -19.08,-11.22 -37.48,-24.77 -55.27,-40.67 -6.11,-5.49 -6.92,-12.22 -2.47,-20.19 5.79,-10.34 17.49,-31.99 35.08,-64.96 14.53,-27.21 33.39,-61.28 56.08,-91.06 0.94,-1.2 2.02,-2.28 3.25,-3.15 22.76,-16.25 54.46,-28.9 84.53,-40.67 15.12,-5.92 32.12,-13 51.01,-21.29 4.55,-2.02 8.55,-6.14 13.2,-7.05 1.14,-0.23 2.28,-0.1 3.32,0.36 49.48,20.9 99.87,22.14 149.55,-0.03 1.98,-0.91 4.29,-0.75 6.14,0.39 5.27,3.15 10.14,5.62 14.66,7.41 31.08,12.22 68.08,27.73 111.02,46.49 15.54,6.79 27.67,17.65 39.73,37.65 31.8,52.73 57.93,99.42 78.45,140.09 3.41,6.79 1.3,11.9 -3.77,16.29 -30.37,26.5 -63.69,47.92 -99.94,64.34 -8.58,3.9 -15.9,2.11 -21.91,-5.4 -8.71,-10.83 -13.52,-16.78 -14.43,-17.85zm-184.63 -187.26c47.4,0.2 84.82,-28.09 97.08,-74.55 0.46,-1.59 -0.42,-3.28 -1.98,-3.9l-8.91 -3.48c-2.02,-0.78 -4.29,0.49 -4.68,2.63 -3.93,21.23 -15.44,38.14 -34.49,50.68 -14.73,9.72 -29.32,12.94 -46.95,12.87 -17.59,-0.1 -32.19,-3.41 -46.85,-13.23 -18.92,-12.71 -30.3,-29.72 -34.07,-50.98 -0.39,-2.15 -2.63,-3.45 -4.65,-2.67l-8.94 3.41c-1.56,0.59 -2.44,2.28 -2.02,3.87 11.9,46.55 49.06,75.13 96.46,75.33zm105.43 -72.14c-11.77,43.21 -38.33,69.54 -79.65,79 -43.83,10.05 -80.76,-2.05 -110.8,-36.35 -10.14,-11.57 -14.79,-25.85 -20.61,-41.35 -0.39,-1.01 -1.56,-1.5 -2.54,-1.04 -6.4,2.99 -13.95,5.98 -22.66,9.01 -1.2,0.42 -2.86,1.53 -4.97,3.38 -1.85,1.63 -3.97,2.93 -6.27,3.84l-34.27 13.62c-0.62,0.26 -1.3,0.39 -1.98,0.42 -2.24,0.1 -3.97,0.49 -5.17,1.1 -8.68,4.45 -16.84,9.07 -24.48,13.85 -1.63,1.04 -1.98,3.25 -0.75,4.71 7.15,8.71 12.42,18.34 15.8,28.87 15.31,47.76 22.47,87.75 23.96,134.82 0.91,29.33 3.77,73.18 2.11,108.42 -0.81,16.87 0.55,36.8 0.07,53.09 -1.33,44.8 -2.54,85.57 -3.61,122.27 -0.23,7.22 -1.72,15.28 -1.56,21.59 0.65,25.65 -0.26,50.55 -2.73,74.64 -0.23,2.15 1.17,4.13 3.25,4.68 19.8,5.17 39.57,8.42 59.27,9.82 33.68,2.37 60.53,7.35 94.31,7.22 37.03,-0.16 61.41,-0.68 73.12,-1.63 19.54,-1.56 59.82,-5.88 120.84,-12.94 1.14,-0.13 1.95,-1.2 1.79,-2.34 -1.5,-9.66 -2.73,-18.73 -2.76,-28.35 -0.13,-29.19 -0.88,-54.46 -2.24,-75.82 -3.28,-51.37 -2.8,-82.77 -4.26,-135.41 -0.94,-34.95 1.82,-76.92 1.72,-115.67 -0.06,-21.85 0.42,-38.82 1.5,-50.94 3.09,-35.47 10.24,-70.78 21.52,-105.99 2.73,-8.52 7.71,-19.02 14.92,-31.47 0.88,-1.53 2.21,-2.7 3.84,-3.35l2.5 -1.01c1.11,-0.46 2.18,0.72 1.63,1.79 -9.66,18.37 -16.78,37.22 -21.36,56.57 -5.23,22.21 -8.39,36.77 -9.53,43.63 -3.8,23.64 -5.01,47.92 -3.64,72.86 0.1,1.5 0.52,2.96 1.3,4.29 5.36,9.23 12.06,17.43 20.09,24.61 0.88,0.78 2.15,0.88 3.12,0.23 5.79,-3.87 17.07,-10.4 33.88,-19.64 6.66,-3.64 18.37,-11.96 35.11,-24.97 9.01,-7.02 18.01,-12.32 24.77,-18.08 1.4,-1.2 1.76,-3.22 0.85,-4.81l-75.95 -131.54c-0.75,-1.3 -1.76,-2.37 -2.96,-3.22 -7.38,-5.17 -14.21,-9.3 -20.51,-12.42 -22.95,-11.41 -45.42,-20.81 -67.36,-28.12 -0.13,-0.03 -0.26,-0.1 -0.39,-0.16l-25.91 -12.78c-0.91,-0.46 -2.05,0.03 -2.34,1.04zm-327.61 55.27c-11.25,16.42 -20.94,32.09 -29.03,47.01 -25.16,46.29 -40.83,74.94 -46.98,85.93 -0.62,1.07 -0.42,2.44 0.49,3.28 5.85,5.72 12.39,12.16 19.67,17.1 29.97,20.38 54.81,35.83 74.48,46.39 1.85,1.01 4.16,0.52 5.43,-1.14l16.65 -21.72c0.81,-1.1 1.3,-2.44 1.37,-3.8 1.53,-43.6 -3.87,-86.54 -16.13,-128.91 -4.45,-15.44 -10.76,-30.07 -18.99,-43.92 -1.53,-2.6 -5.23,-2.73 -6.96,-0.23zm-85.54 146.33c-1.82,2.37 -1.43,5.76 0.85,7.67 10.89,9.14 16.35,13.72 16.45,13.82 23.44,16.09 47.69,34.75 72.95,44.83 2.93,1.17 6.24,0.59 8.61,-1.46l2.34 -2.02c1.63,-1.43 1.27,-4.06 -0.72,-4.97 -14.79,-6.89 -32.48,-16.32 -53.06,-28.25 -6.31,-3.67 -11.8,-7.97 -16.48,-12.94 -0.1,-0.1 -0.2,-0.2 -0.29,-0.26l-25.16 -18.5c-1.4,-1.01 -3.35,-0.75 -4.39,0.62l-1.11 1.46zm571.7 41.22c9.27,-5.98 23.54,-16.78 42.82,-32.28 1.04,-0.88 1.66,-2.15 1.69,-3.48 0.03,-2.76 -1.23,-5.07 -3.8,-6.99 -1.01,-0.78 -2.37,-0.72 -3.35,0.1 -13.98,11.67 -28.58,21.49 -44.41,31.76 -15.83,10.27 -30.76,19.64 -47.11,27.67 -1.14,0.52 -1.76,1.79 -1.46,3.02 0.72,3.12 2.31,5.23 4.84,6.31 1.24,0.52 2.67,0.49 3.87,-0.13 22.04,-11.31 37.68,-19.96 46.91,-25.98zm-261.91 391.59c36.67,0.03 73.93,-1.89 111.77,-5.75 17.75,-1.79 38.79,-5.66 63.14,-11.61 2.54,-0.62 3.93,-3.32 2.99,-5.75l-0.06 -0.23c-1.01,-2.63 -3.77,-4.19 -6.6,-3.71 -46.42,8.23 -92.36,13 -137.85,14.4 -1.69,0.03 -12.81,0.07 -33.36,0.07 -20.58,-0.03 -31.7,-0.07 -33.39,-0.1 -45.45,-1.43 -91.42,-6.27 -137.81,-14.53 -2.83,-0.49 -5.59,1.07 -6.63,3.71l-0.06 0.23c-0.94,2.44 0.46,5.14 2.99,5.75 24.35,5.98 45.39,9.85 63.14,11.67 37.84,3.9 75.1,5.85 111.74,5.85z"/>
   <path class="fil1" d="M324.22 87c17.62,0.06 32.22,-3.15 46.95,-12.87 19.05,-12.55 30.56,-29.46 34.49,-50.68 0.39,-2.15 2.67,-3.41 4.68,-2.63l8.91 3.48c1.56,0.62 2.44,2.31 1.98,3.9 -12.26,46.46 -49.68,74.74 -97.08,74.55 -47.4,-0.19 -84.56,-28.77 -96.46,-75.33 -0.42,-1.59 0.46,-3.28 2.02,-3.87l8.94 -3.41c2.02,-0.78 4.26,0.52 4.65,2.67 3.77,21.26 15.15,38.27 34.07,50.98 14.66,9.82 29.26,13.13 46.85,13.23zm1.02 -56.8c22.4,0.03 47.56,-5.01 67.04,-8.52 1.3,-0.23 2.34,1.04 1.89,2.28 -5.82,14.96 -51.37,18.3 -68.96,18.27 -17.56,-0.03 -63.1,-3.54 -68.86,-18.5 -0.49,-1.23 0.55,-2.5 1.85,-2.28 19.47,3.58 44.6,8.71 67.04,8.75zm1.03 622.22c20.55,0 31.67,-0.03 33.36,-0.07 45.48,-1.4 91.42,-6.18 137.85,-14.4 2.83,-0.49 5.59,1.07 6.6,3.71l0.06 0.23c0.94,2.44 -0.46,5.14 -2.99,5.75 -24.35,5.95 -45.39,9.82 -63.14,11.61 -37.84,3.87 -75.1,5.79 -111.77,5.75 -36.64,0 -73.9,-1.95 -111.74,-5.85 -17.75,-1.82 -38.79,-5.69 -63.14,-11.67 -2.54,-0.62 -3.93,-3.32 -2.99,-5.75l0.06 -0.23c1.04,-2.63 3.8,-4.19 6.63,-3.71 46.39,8.26 92.36,13.1 137.81,14.53 1.69,0.03 12.81,0.07 33.39,0.1zm261.87 -379.01c-9.23,6.01 -24.87,14.66 -46.91,25.98 -1.2,0.62 -2.63,0.65 -3.87,0.13 -2.54,-1.07 -4.13,-3.19 -4.84,-6.31 -0.29,-1.24 0.33,-2.5 1.46,-3.02 16.35,-8.03 31.28,-17.39 47.11,-27.67 15.83,-10.27 30.43,-20.09 44.41,-31.76 0.98,-0.81 2.34,-0.88 3.35,-0.1 2.57,1.92 3.84,4.23 3.8,6.99 -0.03,1.33 -0.65,2.6 -1.69,3.48 -19.28,15.51 -33.55,26.3 -42.82,32.28zm-571.7 -41.22l1.11 -1.46c1.04,-1.37 2.99,-1.63 4.39,-0.62l25.16 18.5c0.1,0.06 0.2,0.16 0.29,0.26 4.68,4.97 10.18,9.27 16.48,12.94 20.58,11.93 38.27,21.36 53.06,28.25 1.98,0.91 2.34,3.54 0.72,4.97l-2.34 2.02c-2.37,2.05 -5.69,2.63 -8.61,1.46 -25.26,-10.08 -49.51,-28.74 -72.95,-44.83 -0.1,-0.1 -5.56,-4.68 -16.45,-13.82 -2.28,-1.92 -2.67,-5.3 -0.85,-7.67zm85.54 -146.33c1.72,-2.5 5.43,-2.37 6.96,0.23 8.22,13.85 14.53,28.48 18.99,43.92 12.26,42.36 17.65,85.31 16.13,128.91 -0.07,1.36 -0.55,2.7 -1.37,3.8l-16.65 21.72c-1.27,1.66 -3.58,2.15 -5.43,1.14 -19.67,-10.57 -44.51,-26.01 -74.48,-46.39 -7.28,-4.94 -13.82,-11.38 -19.67,-17.1 -0.91,-0.85 -1.1,-2.21 -0.49,-3.28 6.14,-10.99 21.81,-39.63 46.98,-85.93 8.1,-14.92 17.78,-30.59 29.03,-47.01zm329.95 -56.31l25.91 12.78c0.13,0.07 0.26,0.13 0.39,0.16 21.95,7.31 44.41,16.71 67.36,28.12 6.31,3.12 13.13,7.25 20.51,12.42 1.2,0.85 2.21,1.92 2.96,3.22l75.95 131.54c0.91,1.59 0.55,3.61 -0.85,4.81 -6.76,5.76 -15.77,11.05 -24.77,18.08 -16.74,13 -28.45,21.33 -35.11,24.97 -16.81,9.23 -28.09,15.77 -33.88,19.64 -0.98,0.65 -2.24,0.55 -3.12,-0.23 -8.03,-7.18 -14.73,-15.38 -20.09,-24.61 -0.78,-1.33 -1.2,-2.8 -1.3,-4.29 -1.36,-24.94 -0.16,-49.22 3.64,-72.86 1.14,-6.86 4.29,-21.42 9.53,-43.63 4.58,-19.34 11.7,-38.2 21.36,-56.57 0.55,-1.07 -0.52,-2.24 -1.63,-1.79l-2.5 1.01c-1.63,0.65 -2.96,1.82 -3.84,3.35 -7.22,12.45 -12.19,22.95 -14.92,31.47 -11.28,35.21 -18.43,70.52 -21.52,105.99 -1.07,12.13 -1.56,29.1 -1.5,50.94 0.1,38.75 -2.67,80.72 -1.72,115.67 1.46,52.63 0.98,84.04 4.26,135.41 1.36,21.36 2.11,46.62 2.24,75.82 0.03,9.62 1.27,18.69 2.76,28.35 0.16,1.14 -0.65,2.21 -1.79,2.34 -61.02,7.06 -101.3,11.38 -120.84,12.94 -11.7,0.94 -36.09,1.46 -73.12,1.63 -33.78,0.13 -60.63,-4.84 -94.31,-7.22 -19.7,-1.4 -39.47,-4.65 -59.27,-9.82 -2.08,-0.55 -3.48,-2.54 -3.25,-4.68 2.47,-24.09 3.38,-48.99 2.73,-74.64 -0.16,-6.31 1.33,-14.37 1.56,-21.59 1.07,-36.7 2.28,-77.47 3.61,-122.27 0.49,-16.29 -0.88,-36.22 -0.07,-53.09 1.66,-35.24 -1.2,-79.1 -2.11,-108.42 -1.5,-47.08 -8.65,-87.06 -23.96,-134.82 -3.38,-10.53 -8.65,-20.16 -15.8,-28.87 -1.23,-1.46 -0.88,-3.67 0.75,-4.71 7.64,-4.78 15.8,-9.4 24.48,-13.85 1.2,-0.62 2.93,-1.01 5.17,-1.1 0.68,-0.03 1.37,-0.16 1.98,-0.42l34.27 -13.62c2.31,-0.91 4.42,-2.21 6.27,-3.84 2.11,-1.85 3.77,-2.96 4.97,-3.38 8.71,-3.02 16.26,-6.01 22.66,-9.01 0.98,-0.46 2.15,0.03 2.54,1.04 5.82,15.51 10.47,29.78 20.61,41.35 30.04,34.3 66.97,46.39 110.8,36.35 41.32,-9.46 67.88,-35.79 79.65,-79 0.29,-1.01 1.43,-1.5 2.34,-1.04z"/>
  </g>
 </g>
</svg>
