<?xml version="1.0" encoding="UTF-8"?>
<!DOCTYPE svg PUBLIC "-//W3C//DTD SVG 1.1//EN" "http://www.w3.org/Graphics/SVG/1.1/DTD/svg11.dtd">
<!-- Creator: CorelDRAW -->
<svg xmlns="http://www.w3.org/2000/svg" xml:space="preserve" width="67.0697mm" height="78.228mm" version="1.1" style="shape-rendering:geometricPrecision; text-rendering:geometricPrecision; image-rendering:optimizeQuality; fill-rule:evenodd; clip-rule:evenodd"
viewBox="0 0 384.65 448.64"
 xmlns:xlink="http://www.w3.org/1999/xlink"
 xmlns:xodm="http://www.corel.com/coreldraw/odm/2003">
 <defs>
  <style type="text/css">
   <![CDATA[
    .fil0 {fill:black;fill-rule:nonzero}
    .fil1 {fill:#E88EA0;fill-rule:nonzero}
   ]]>
  </style>
 </defs>
 <g id="Camada_x0020_1">
  <metadata id="CorelCorpID_0Corel-Layer"/>
  <g id="_1889177818208">
   <path class="fil0" d="M305.59 208.97c-0.3,-0.53 -1.09,-0.42 -1.25,0.16 -6.4,25.2 -9.98,49.83 -10.73,73.91 -0.16,5.29 1.41,14.35 4.75,27.18 9.31,36.03 16.63,61.45 20.47,93.65 0.14,1.23 -0.36,2.42 -1.35,3.15 -28.59,21.03 -63.22,36.94 -98.77,40.27 -14.43,1.35 -27.88,1.68 -40.35,0.99 -28,-1.54 -54.68,-8.91 -80.03,-22.11 -11.7,-6.1 -22.06,-12.47 -31.06,-19.09 -1.41,-1.05 -2.14,-2.79 -1.88,-4.53 1.07,-7.17 3.03,-18.12 5.92,-32.83 4.47,-22.85 13.84,-52.58 18.06,-74.52 1.94,-10.08 1.96,-21.36 0.06,-33.8 -2.02,-13.23 -5.05,-30.55 -9.07,-51.95 -0.12,-0.65 -0.95,-0.85 -1.35,-0.32 -1.43,1.84 -2.67,3.84 -3.7,5.98 -2.89,6.06 -7.9,2.89 -12.57,1.11 -21.72,-8.3 -41.1,-20.19 -58.09,-35.68 -1.84,-1.66 -3.25,-3.19 -4.24,-4.59 -0.4,-0.57 -0.51,-1.29 -0.28,-1.96 5.68,-17.07 12.06,-32.85 19.11,-47.38 4.75,-9.8 10.12,-21.46 16.12,-34.98 3.31,-7.5 8.22,-14.39 14.75,-20.69 3.96,-3.82 11.28,-8.04 21.92,-12.65 26.09,-11.28 45.83,-19.58 59.2,-24.93 0.77,-0.32 1.41,-0.87 1.8,-1.6 5.21,-9.44 8.39,-15.24 9.54,-17.42 3.4,-6.47 7.8,-9.19 14.57,-10.65 18.29,-3.92 37.46,-4.73 57.57,-2.42 10.67,1.21 18.55,2.57 26.27,9.37 0.36,0.32 0.65,0.71 0.87,1.13l10.39 19.6c0.24,0.47 0.65,0.85 1.11,1.07 22.15,10.43 42.31,17.94 65.02,28.35 7.54,3.45 13.29,7.33 17.28,11.66 6.77,7.33 11.62,14.2 14.53,20.65 13.36,29.44 24.11,51.71 34.29,79.89 0.24,0.65 0.26,1.35 0.06,2 -0.67,2.2 -1.86,4.08 -3.62,5.6 -11.9,10.28 -24.79,18.99 -38.63,26.17 -11.05,5.74 -17.68,9.05 -28.29,11.54 -1.56,0.36 -3.17,-0.32 -3.98,-1.72l-4.41 -7.62zm-112.97 -183.43c10.81,0.04 21.4,0.93 31.72,2.69 0.79,0.12 1.54,-0.32 1.76,-1.07l3.45 -10.95c0.3,-0.93 -0.26,-1.9 -1.21,-2.12 -12.55,-2.89 -24.45,-4.34 -35.68,-4.36 -11.23,-0.04 -23.14,1.37 -35.7,4.2 -0.95,0.2 -1.52,1.19 -1.21,2.1l3.4 10.97c0.22,0.75 0.97,1.21 1.74,1.07 10.34,-1.7 20.93,-2.55 31.74,-2.53zm41.79 -2.93c-5.64,17.86 -16.59,28.39 -31.84,39.83 -0.63,0.47 -0.71,1.37 -0.2,1.96l18.99 21.78c0.73,0.83 2.02,0.73 2.63,-0.18 5.23,-7.96 24.29,-40.94 20.06,-49.08 -1.56,-2.97 -4.28,-7.8 -8.18,-14.47 -0.34,-0.61 -1.25,-0.51 -1.45,0.16zm-83.93 0.2c-0.2,-0.67 -1.09,-0.77 -1.45,-0.16 -3.96,6.65 -6.75,11.44 -8.33,14.41 -4.3,8.12 14.49,41.34 19.66,49.38 0.59,0.91 1.9,1.01 2.63,0.2l19.24 -21.66c0.5,-0.59 0.42,-1.47 -0.2,-1.96 -15.17,-11.6 -26.05,-22.25 -31.54,-40.21zm68.98 11.5c-3.33,-0.73 -6.77,-1.21 -10.3,-1.43 -14.33,-0.93 -28.89,-0.61 -43.67,0.95 -0.99,0.1 -1.49,1.21 -0.93,2.04 6.32,9.19 15.56,16.43 27.72,21.72 1.84,0.81 3.98,0.46 5.5,-0.87l22.41 -19.54c1.03,-0.89 0.61,-2.59 -0.73,-2.87zm-87.94 8.81c-12.41,5.82 -23.6,12 -38.17,17.54 -7.03,2.65 -15.52,6.39 -25.48,11.21 -1.56,0.77 -2.26,2.61 -1.6,4.22 5.42,13.03 9.38,24.69 11.88,34.96 2.51,10.2 4,16.18 4.49,17.98 0.28,1.09 0.83,2.1 1.58,2.93 8.28,9.34 17.96,17.52 25.04,29.26 19.13,31.74 25.26,71.73 25.36,108.75 0.06,21.96 -0.69,39.3 -2.24,52.03 -3.43,28.11 -8.24,58.96 -14.43,92.58 -0.47,2.53 -0.81,5.37 -1.07,8.59 -0.04,0.53 0.26,1.01 0.73,1.21 19.09,8.39 38.67,12.95 58.78,13.72 0.73,0.02 1.33,-0.57 1.33,-1.29l0 -354.15c0,-0.26 -0.3,-0.38 -0.48,-0.2l-14.31 14.31c-1.03,1.01 -2.67,1.01 -3.7,0.02 -3.76,-3.62 -6.97,-8.02 -9.62,-13.2 -5.76,-11.21 -11.29,-24.49 -16.57,-39.83 -0.22,-0.63 -0.93,-0.93 -1.52,-0.65zm74.36 39.68c0.71,19.74 0.16,48.45 0.91,73.17 0.59,19.5 -0.55,41.4 -0.49,58.96 0.14,47.14 0.08,81.69 -0.18,103.62 -0.48,40.67 1.66,82.46 -0.04,118.65 -0.04,0.87 0.69,1.58 1.56,1.52 20.33,-1.19 39.81,-5.98 58.41,-14.41 0.59,-0.26 0.97,-0.87 0.95,-1.52 -0.06,-2.16 -0.26,-4.26 -0.61,-6.3 -5.19,-29.9 -9.17,-54.07 -11.9,-72.48 -5.72,-38.55 -6.73,-75.61 -3.03,-111.19 1.92,-18.37 7.48,-37.89 16.71,-58.6 3.88,-8.73 11.03,-20.49 16.71,-26.11 8.79,-8.73 16.95,-14.26 18.33,-22.59 2.63,-15.82 7.15,-31 13.58,-45.5 0.95,-2.14 1.33,-4.28 1.11,-6.45 -0.06,-0.67 -0.45,-1.25 -1.01,-1.6 -6.02,-3.5 -12.04,-6.45 -18.08,-8.85 -15.17,-6 -27.48,-11.4 -36.94,-16.14 -0.12,-0.06 -2.87,-1.07 -8.26,-3.07 -0.83,-0.3 -1.78,0.12 -2.08,0.95 -5.78,15.54 -12.2,31.58 -20.87,45.04 -1.78,2.75 -3.7,4.91 -5.74,6.51 -1.17,0.91 -2.85,0.81 -3.9,-0.24l-13.88 -13.9c-0.47,-0.47 -1.27,-0.12 -1.25,0.55zm-20.47 356.29l13.13 0c0.77,0 1.37,-0.61 1.37,-1.37l0 -359.44c0,-5.52 -3.48,-10 -7.78,-10l-0.32 0c-4.3,0 -7.78,4.49 -7.78,10l0 359.44c0,0.77 0.61,1.37 1.37,1.37zm138.43 -362.05c-7.17,18 -12.75,37.4 -16.73,58.19 -2.3,11.94 -3.21,29.02 -2.71,51.22 0,0.49 0.12,0.93 0.36,1.33l10.65 18.47c0.36,0.61 1.09,0.89 1.78,0.71 6.73,-1.9 13.78,-5.03 21.13,-9.4 12.83,-7.6 23.01,-14.39 30.55,-20.39 1.94,-1.54 3.29,-2.85 4.06,-3.92 0.59,-0.83 0.34,-2.59 -0.75,-5.27 -9.42,-23.28 -20.57,-47.81 -33.44,-73.59 -3.35,-6.73 -7.88,-12.61 -13.6,-17.66 -0.42,-0.38 -1.09,-0.22 -1.31,0.3zm-263.12 0.4c-0.2,-0.53 -0.89,-0.67 -1.31,-0.3 -5.7,5.05 -10.22,10.93 -13.56,17.64 -12.87,25.76 -23.98,50.25 -33.38,73.51 -1.09,2.67 -1.33,4.42 -0.75,5.27 0.77,1.07 2.12,2.36 4.06,3.9 7.54,5.98 17.7,12.77 30.51,20.35 7.35,4.36 14.39,7.5 21.11,9.4 0.69,0.18 1.41,-0.1 1.78,-0.71l10.63 -18.45c0.22,-0.4 0.36,-0.87 0.36,-1.33 0.49,-22.17 -0.42,-39.22 -2.73,-51.16 -3.98,-20.75 -9.56,-40.13 -16.73,-58.11zm24.05 65.47c1.56,13.96 2.32,22.47 2.3,25.52 -0.14,20.23 1.66,37.44 7.07,55.48 1.15,3.88 2.24,9.66 3.25,17.36 2.26,17.58 5.68,32.71 2.93,49.77 -2.08,13.03 -4.73,24.21 -7.9,33.52 -4.77,13.92 -6.47,28.94 -10.24,42.11 -2.55,8.81 -5.07,22.79 -6.22,29.64 -0.42,2.51 0.53,4.57 2.83,6.2 9.31,6.61 19.92,12.89 31.86,18.89 0.63,0.32 1.37,-0.1 1.43,-0.81 1.6,-20.08 8.06,-45.71 10.2,-65.89 1.11,-10.57 2.24,-19.88 3.37,-27.9 4.81,-34.25 3.86,-68.54 -0.59,-102.69 -3.8,-29.16 -14.43,-56.72 -34.83,-78.2 -1.56,-1.64 -3.09,-2.83 -4.65,-3.6 -0.4,-0.2 -0.87,0.12 -0.83,0.59zm214 -1.11c-3.45,2.81 -6.87,6.32 -10.24,10.57 -15.34,19.26 -24.91,40.78 -28.73,64.58 -5.52,34.27 -6.81,69.31 -2.08,106.18 3.72,29.06 5.96,45.99 6.75,50.8 4.97,30.49 7.48,46.03 7.54,46.59 0.08,0.89 1.01,1.41 1.82,1.05 12.1,-5.52 23.44,-12.35 34.01,-20.45 0.71,-0.57 1.05,-1.48 0.87,-2.34 -5.48,-27.04 -9.54,-46.53 -12.14,-58.52 -4.61,-21.16 -13.54,-37.54 -13.96,-57.06 -0.51,-23.8 5.13,-45.34 10.81,-70.96 5.15,-23.22 3.54,-47.1 6.75,-69.67 0.1,-0.77 -0.79,-1.25 -1.37,-0.77z"/>
   <path class="fil1" d="M192.66 9.72c11.23,0.02 23.14,1.48 35.68,4.36 0.95,0.22 1.52,1.19 1.21,2.12l-3.45 10.95c-0.22,0.75 -0.97,1.19 -1.76,1.07 -10.32,-1.76 -20.91,-2.65 -31.72,-2.69 -10.81,-0.02 -21.4,0.83 -31.74,2.53 -0.77,0.14 -1.52,-0.32 -1.74,-1.07l-3.4 -10.97c-0.3,-0.91 0.26,-1.9 1.21,-2.1 12.57,-2.83 24.47,-4.24 35.7,-4.2zm106.1 132.08c0.59,-0.48 1.48,0 1.37,0.77 -3.21,22.57 -1.6,46.45 -6.75,69.67 -5.68,25.62 -11.32,47.16 -10.81,70.96 0.42,19.52 9.36,35.91 13.96,57.06 2.61,11.98 6.67,31.48 12.14,58.52 0.18,0.87 -0.16,1.78 -0.87,2.34 -10.57,8.1 -21.9,14.93 -34.01,20.45 -0.81,0.36 -1.74,-0.16 -1.82,-1.05 -0.06,-0.57 -2.57,-16.1 -7.54,-46.59 -0.79,-4.81 -3.03,-21.74 -6.75,-50.8 -4.73,-36.88 -3.43,-71.91 2.08,-106.18 3.82,-23.8 13.4,-45.32 28.73,-64.58 3.37,-4.24 6.79,-7.76 10.24,-10.57zm-213.17 0.53c1.56,0.77 3.09,1.96 4.65,3.6 20.41,21.48 31.04,49.04 34.83,78.2 4.45,34.15 5.39,68.44 0.59,102.69 -1.13,8.02 -2.26,17.34 -3.37,27.9 -2.14,20.19 -8.61,45.81 -10.2,65.89 -0.06,0.71 -0.81,1.13 -1.43,0.81 -11.94,-6 -22.55,-12.29 -31.86,-18.89 -2.3,-1.64 -3.25,-3.7 -2.83,-6.2 1.15,-6.85 3.68,-20.83 6.22,-29.64 3.78,-13.17 5.48,-28.19 10.24,-42.11 3.17,-9.31 5.82,-20.49 7.9,-33.52 2.75,-17.05 -0.67,-32.19 -2.93,-49.77 -1.01,-7.7 -2.1,-13.48 -3.25,-17.36 -5.42,-18.04 -7.21,-35.26 -7.07,-55.48 0.02,-3.05 -0.75,-11.56 -2.3,-25.52 -0.04,-0.47 0.42,-0.79 0.83,-0.59zm-24.87 -64.88c7.17,17.98 12.75,37.36 16.73,58.11 2.3,11.94 3.21,28.99 2.73,51.16 0,0.46 -0.14,0.93 -0.36,1.33l-10.63 18.45c-0.36,0.61 -1.09,0.89 -1.78,0.71 -6.73,-1.9 -13.76,-5.03 -21.11,-9.4 -12.81,-7.58 -22.97,-14.37 -30.51,-20.35 -1.94,-1.54 -3.29,-2.83 -4.06,-3.9 -0.59,-0.85 -0.34,-2.61 0.75,-5.27 9.4,-23.26 20.51,-47.75 33.38,-73.51 3.33,-6.71 7.86,-12.59 13.56,-17.64 0.42,-0.36 1.11,-0.22 1.31,0.3zm263.12 -0.4c0.22,-0.53 0.89,-0.69 1.31,-0.3 5.72,5.05 10.24,10.93 13.6,17.66 12.87,25.78 24.02,50.31 33.44,73.59 1.09,2.69 1.33,4.45 0.75,5.27 -0.77,1.07 -2.12,2.38 -4.06,3.92 -7.54,6 -17.72,12.79 -30.55,20.39 -7.35,4.36 -14.41,7.5 -21.13,9.4 -0.69,0.18 -1.41,-0.1 -1.78,-0.71l-10.65 -18.47c-0.24,-0.4 -0.36,-0.85 -0.36,-1.33 -0.51,-22.21 0.4,-39.28 2.71,-51.22 3.98,-20.79 9.56,-40.19 16.73,-58.19zm-138.43 362.05c-0.77,0 -1.37,-0.61 -1.37,-1.37l0 -359.44c0,-5.52 3.48,-10 7.78,-10l0.32 0c4.3,0 7.78,4.49 7.78,10l0 359.44c0,0.77 -0.61,1.37 -1.37,1.37l-13.13 0zm5.74 -365.21c-1.59,0.35 -2.5,2.29 -2.05,4.33 0.45,2.04 2.11,3.39 3.71,3.04 1.59,-0.35 2.5,-2.29 2.05,-4.33 -0.45,-2.04 -2.11,-3.39 -3.71,-3.04zm0.34 54.12c-2.28,0.24 -3.89,2.58 -3.63,5.24 0.26,2.67 2.34,4.63 4.61,4.41 2.28,-0.24 3.89,-2.58 3.63,-5.24 -0.26,-2.67 -2.34,-4.63 -4.61,-4.41zm1.51 57.6c-2.09,-0.58 -4.37,1.01 -5.09,3.59 -0.71,2.58 0.4,5.12 2.5,5.71 2.09,0.58 4.37,-1.01 5.09,-3.59 0.71,-2.57 -0.4,-5.12 -2.5,-5.71zm-1.41 58.68c-2.25,-0.02 -4.09,2.1 -4.11,4.77 -0.02,2.65 1.78,4.83 4.01,4.85 2.25,0.02 4.09,-2.1 4.11,-4.77 0.02,-2.65 -1.78,-4.83 -4.01,-4.85zm0.95 57.06c-2.29,-0.36 -4.49,1.48 -4.91,4.11 -0.42,2.64 1.1,5.06 3.39,5.43 2.29,0.36 4.49,-1.48 4.91,-4.11 0.42,-2.64 -1.1,-5.06 -3.4,-5.43zm3.73 62.46c0,-2.53 -2.04,-4.57 -4.57,-4.57 -2.53,0 -4.57,2.04 -4.57,4.57 0,2.53 2.04,4.57 4.57,4.57 2.53,0 4.57,-2.04 4.57,-4.57zm9.62 -281c-0.02,-0.67 0.79,-1.01 1.25,-0.55l13.88 13.9c1.05,1.05 2.73,1.15 3.9,0.24 2.04,-1.6 3.96,-3.76 5.74,-6.51 8.67,-13.46 15.09,-29.5 20.87,-45.04 0.3,-0.83 1.25,-1.25 2.08,-0.95 5.39,2 8.14,3.01 8.26,3.07 9.46,4.75 21.76,10.14 36.94,16.14 6.04,2.4 12.06,5.35 18.08,8.85 0.57,0.34 0.95,0.93 1.01,1.6 0.22,2.16 -0.16,4.3 -1.11,6.45 -6.42,14.51 -10.95,29.68 -13.58,45.5 -1.37,8.32 -9.54,13.86 -18.33,22.59 -5.68,5.62 -12.83,17.38 -16.71,26.11 -9.23,20.71 -14.79,40.23 -16.71,58.6 -3.7,35.58 -2.69,72.64 3.03,111.19 2.73,18.41 6.71,42.57 11.9,72.48 0.34,2.04 0.55,4.14 0.61,6.3 0.02,0.65 -0.36,1.25 -0.95,1.52 -18.61,8.43 -38.09,13.21 -58.41,14.41 -0.87,0.06 -1.6,-0.65 -1.56,-1.52 1.7,-36.19 -0.44,-77.97 0.04,-118.65 0.26,-21.92 0.32,-56.47 0.18,-103.62 -0.06,-17.56 1.07,-39.46 0.49,-58.96 -0.75,-24.71 -0.2,-53.42 -0.91,-73.17zm-74.36 -39.68c0.59,-0.28 1.29,0.02 1.52,0.65 5.27,15.34 10.81,28.61 16.57,39.83 2.65,5.17 5.86,9.58 9.62,13.2 1.03,0.99 2.67,0.99 3.7,-0.02l14.31 -14.31c0.18,-0.18 0.48,-0.06 0.48,0.2l0 354.15c0,0.73 -0.61,1.31 -1.33,1.29 -20.1,-0.77 -39.68,-5.33 -58.78,-13.72 -0.46,-0.2 -0.77,-0.69 -0.73,-1.21 0.26,-3.21 0.61,-6.06 1.07,-8.59 6.18,-33.62 10.99,-64.48 14.43,-92.58 1.56,-12.73 2.3,-30.07 2.24,-52.03 -0.1,-37.02 -6.22,-77 -25.36,-108.75 -7.07,-11.74 -16.75,-19.92 -25.04,-29.26 -0.75,-0.83 -1.29,-1.84 -1.58,-2.93 -0.48,-1.8 -1.98,-7.78 -4.49,-17.98 -2.51,-10.26 -6.47,-21.92 -11.88,-34.96 -0.67,-1.62 0.04,-3.45 1.6,-4.22 9.96,-4.83 18.45,-8.57 25.48,-11.21 14.57,-5.54 25.76,-11.72 38.17,-17.54zm87.94 -8.81c1.33,0.28 1.76,1.98 0.73,2.87l-22.41 19.54c-1.52,1.33 -3.66,1.68 -5.5,0.87 -12.16,-5.29 -21.4,-12.53 -27.72,-21.72 -0.57,-0.83 -0.06,-1.94 0.93,-2.04 14.77,-1.56 29.34,-1.88 43.67,-0.95 3.54,0.22 6.97,0.71 10.3,1.43zm-68.98 -11.5c5.5,17.96 16.37,28.61 31.54,40.21 0.63,0.49 0.71,1.37 0.2,1.96l-19.24 21.66c-0.73,0.81 -2.04,0.71 -2.63,-0.2 -5.17,-8.04 -23.96,-41.26 -19.66,-49.38 1.58,-2.97 4.36,-7.76 8.33,-14.41 0.36,-0.61 1.25,-0.51 1.45,0.16zm83.93 -0.2c0.2,-0.67 1.11,-0.77 1.45,-0.16 3.9,6.67 6.63,11.5 8.18,14.47 4.22,8.14 -14.83,41.12 -20.06,49.08 -0.61,0.91 -1.9,1.01 -2.63,0.18l-18.99 -21.78c-0.51,-0.59 -0.42,-1.5 0.2,-1.96 15.26,-11.44 26.21,-21.96 31.84,-39.83z"/>
   <path class="fil0" d="M191.14 73.89c1.6,-0.36 3.26,1 3.71,3.04 0.46,2.04 -0.45,3.98 -2.05,4.33 -1.6,0.36 -3.26,-1 -3.71,-3.04 -0.46,-2.04 0.45,-3.98 2.05,-4.33z"/>
   <path class="fil0" d="M191.48 128.01c2.27,-0.23 4.35,1.73 4.61,4.41 0.26,2.66 -1.35,5 -3.63,5.24 -2.27,0.23 -4.35,-1.73 -4.61,-4.41 -0.26,-2.66 1.35,-5 3.63,-5.24z"/>
   <path class="fil0" d="M192.99 185.61c2.1,0.59 3.21,3.14 2.5,5.71 -0.72,2.58 -3.01,4.17 -5.09,3.59 -2.1,-0.59 -3.21,-3.14 -2.5,-5.71 0.72,-2.58 3.01,-4.17 5.09,-3.59z"/>
   <path class="fil0" d="M191.57 244.29c2.23,0.02 4.03,2.2 4.01,4.85 -0.02,2.67 -1.86,4.79 -4.11,4.77 -2.23,-0.02 -4.03,-2.2 -4.01,-4.85 0.02,-2.67 1.86,-4.79 4.11,-4.77z"/>
   <path class="fil0" d="M192.52 301.35c2.3,0.37 3.81,2.79 3.4,5.43 -0.41,2.64 -2.62,4.48 -4.91,4.11 -2.3,-0.36 -3.81,-2.79 -3.39,-5.43 0.41,-2.63 2.61,-4.47 4.91,-4.11z"/>
   <path class="fil0" d="M196.25 363.81c0,2.53 -2.04,4.57 -4.57,4.57 -2.53,0 -4.57,-2.04 -4.57,-4.57 0,-2.53 2.04,-4.57 4.57,-4.57 2.53,0 4.57,2.04 4.57,4.57z"/>
  </g>
 </g>
</svg>
