<?xml version="1.0" encoding="UTF-8"?>
<!DOCTYPE svg PUBLIC "-//W3C//DTD SVG 1.1//EN" "http://www.w3.org/Graphics/SVG/1.1/DTD/svg11.dtd">
<!-- Creator: CorelDRAW -->
<svg xmlns="http://www.w3.org/2000/svg" xml:space="preserve" width="76.239mm" height="77.9857mm" version="1.1" style="shape-rendering:geometricPrecision; text-rendering:geometricPrecision; image-rendering:optimizeQuality; fill-rule:evenodd; clip-rule:evenodd"
viewBox="0 0 427.29 437.08"
 xmlns:xlink="http://www.w3.org/1999/xlink"
 xmlns:xodm="http://www.corel.com/coreldraw/odm/2003">
 <defs>
  <style type="text/css">
   <![CDATA[
    .fil0 {fill:black;fill-rule:nonzero}
    .fil1 {fill:#6699FF;fill-rule:nonzero}
   ]]>
  </style>
 </defs>
 <g id="Camada_x0020_1">
  <metadata id="CorelCorpID_0Corel-Layer"/>
  <g id="_1889177826848">
   <path class="fil0" d="M103.46 239.34c-0.02,-0.24 -0.22,-0.43 -0.45,-0.43 -0.24,-0.02 -0.46,0.16 -0.49,0.4 -2.47,14.79 -7.41,29.6 -11.23,45.91 -7.14,30.61 -14,58.7 -20.58,84.29 -1.84,7.16 -4.27,13.6 -7.3,19.34 -0.14,0.24 -0.22,0.49 -0.28,0.75l-6.35 27.52c-0.4,1.7 -1.76,3.01 -3.48,3.3 -2.85,0.49 -6.58,0.32 -11.21,-0.49 -10.06,-1.78 -22.34,-4.9 -36.85,-9.39 -4.53,-1.4 -6.11,-4.29 -4.78,-8.68 3.26,-10.72 4.92,-21.69 4.96,-32.9 0.02,-6.88 0.53,-13.56 1.54,-20.07 7.75,-49.8 14.73,-88.54 20.92,-116.24 4.29,-19.24 9.08,-40.83 14.31,-64.77 3.2,-14.61 8.72,-34.62 16.55,-60.03 3.82,-12.42 7.12,-21 12.42,-30.86 4.25,-7.91 10.58,-14.12 19,-18.64 19.59,-10.5 39.86,-19.32 60.8,-26.49 1.48,-0.51 2.75,-1.5 3.56,-2.83 3.36,-5.4 6.62,-10.18 9.79,-14.33 3.2,-4.21 3.44,-8.38 9.69,-10.5 5.24,-1.78 10.28,-2.87 15.13,-3.24 12.5,-1.01 27.48,-1.21 44.96,-0.57 7.91,0.28 18.78,1.62 25.17,6.56 0.57,0.43 1.07,1.01 1.42,1.64 5.06,8.94 9.57,15.38 13.52,19.32 1.76,1.72 4.86,3.5 9.31,5.32 22.44,9.19 40.35,16.98 53.74,23.41 5.3,2.53 9.77,5.52 13.41,8.94 0.55,0.51 1.05,1.09 1.5,1.7 6.64,9.15 12.12,21.14 16.43,35.98 5.83,20.13 10.52,36.87 14.02,50.24 2.06,7.89 5.95,25.05 11.7,51.45 8.7,40.08 14.63,74.48 22.03,114.42 3.08,16.73 5.08,32.45 6.01,47.16 0.81,13.07 2.89,21.65 4.77,34.36 0.89,5.95 -1.5,9.57 -7.16,10.89 -7.73,1.8 -16.03,3.87 -24.89,6.21 -5.99,1.58 -17.06,4.35 -22.07,0.79 -1.13,-0.79 -1.98,-2.49 -2.55,-5.1 -2.15,-9.61 -4.09,-23.15 -9.35,-33.57 -0.26,-0.51 -0.45,-1.05 -0.59,-1.6l-35.77 -140.3c-0.1,-0.38 -0.46,-0.61 -0.83,-0.57 -0.38,0.06 -0.65,0.38 -0.65,0.75 0.1,22.72 0.73,42.79 1.92,60.24 2.61,38.04 3.02,64.3 6.11,100.82 0.38,4.45 -0.91,6.19 -4.86,8.34 -26.38,14.37 -58.58,26.79 -88.83,28.73 -29.52,1.88 -56.94,-0.73 -82.31,-7.85 -1.9,-0.53 -10.72,-3.5 -26.44,-8.9 -11.05,-3.8 -17.36,-7.47 -29.74,-13.84 -1.11,-0.57 -1.8,-1.74 -1.76,-2.99 0.73,-20.84 2.12,-44.45 4.17,-70.84 1.36,-17.26 2.12,-32.62 2.25,-46.09 0.28,-23.23 0.18,-38.79 -0.3,-46.64zm112.99 116.65c-3.12,2.25 -10.83,-3.28 -5.3,-7.3 5.54,-4.01 8.4,5.04 5.3,7.3zm-5.19 -64.14c1.71,-0.96 4,-0.11 5.11,1.9 1.12,2 0.65,4.4 -1.07,5.35 -1.71,0.96 -4,0.11 -5.11,-1.9 -1.12,-2 -0.65,-4.4 1.06,-5.35zm-0.15 -58.59c2.2,-1.24 5.1,-0.27 6.49,2.19 1.38,2.45 0.73,5.45 -1.47,6.69 -2.19,1.23 -5.1,0.26 -6.49,-2.19 -1.38,-2.45 -0.73,-5.45 1.46,-6.69zm7.02 -52.05c0,2.47 -2,4.47 -4.47,4.47 -2.47,0 -4.47,-2 -4.47,-4.47 0,-2.47 2,-4.47 4.47,-4.47 2.47,0 4.47,2 4.47,4.47zm-7.58 -60.62c1.83,-1.33 4.54,-0.68 6.06,1.42 1.52,2.11 1.29,4.88 -0.54,6.2 -1.83,1.33 -4.54,0.68 -6.06,-1.42 -1.52,-2.11 -1.29,-4.88 0.54,-6.2zm6.41 -50.31c1.77,1.37 2.01,4.02 0.53,5.89 -1.47,1.87 -4.08,2.26 -5.85,0.89 -1.77,-1.37 -2.01,-4.02 -0.53,-5.89 1.47,-1.87 4.08,-2.26 5.85,-0.89zm-3.63 -47.36c10.78,0.12 20.68,1.05 29.7,2.83 0.97,0.2 1.94,-0.34 2.29,-1.27l3.97 -10.16c0.38,-0.95 -0.24,-2 -1.27,-2.15 -12.69,-1.92 -24.2,-2.95 -34.56,-3.04 -10.34,-0.12 -21.87,0.65 -34.6,2.29 -1.03,0.14 -1.66,1.17 -1.3,2.14l3.76 10.24c0.32,0.93 1.29,1.48 2.25,1.32 9.06,-1.58 18.98,-2.31 29.76,-2.19zm-42.94 -3.24l-8.72 13.74c-1.27,2.02 -1.6,4.47 -0.89,6.72 4.53,14.51 10.32,29.4 17.34,44.68 0.22,0.45 0.81,0.55 1.17,0.2l22.88 -22.88c0.63,-0.63 0.63,-1.68 -0.02,-2.29 -9.25,-8.9 -16.03,-14.22 -20.9,-22.3 -3.66,-6.09 -6.21,-11.88 -7.69,-17.38 -0.4,-1.48 -2.35,-1.78 -3.16,-0.49zm84.27 -0.4c-0.12,0.1 -0.32,0.49 -0.61,1.21 -3.34,8.09 -6.54,14.47 -9.57,19.18 -4.59,7.08 -11.11,13.74 -16.61,20.96 -0.67,0.87 -0.61,2.12 0.16,2.95l19.87 21.33c0.73,0.77 2.02,0.49 2.37,-0.49 3.9,-10.7 10.08,-21.71 13.07,-31.6 1.92,-6.31 3.26,-11.65 4.07,-15.98 0.26,-1.38 -0.06,-2.81 -0.85,-3.95l-9 -13.17c-0.65,-0.97 -2,-1.17 -2.91,-0.43zm-68.49 13.13c2,3.9 4.8,7.41 8.42,10.54 9.79,8.44 15.13,13.15 16.02,14.1 2.51,2.65 6.74,2.61 9.21,-0.06l20.05 -21.69c1.31,-1.4 0.51,-3.72 -1.38,-3.99 -16.47,-2.55 -33.69,-2.59 -51.66,-0.14 -0.59,0.08 -0.93,0.71 -0.65,1.25zm41.74 41.01c-0.28,-0.3 -0.77,-0.1 -0.77,0.3l0 351.38c0,1.11 0.95,2 2.06,1.94 18.78,-0.95 34.68,-3.64 47.71,-8.05 15.09,-5.12 29.44,-11.11 43.06,-17.95 0.79,-0.4 1.29,-1.19 1.29,-2.08 -0.02,-27.64 -4.29,-59.43 -5.3,-81.66 -0.83,-18.63 -1.44,-43.2 -1.86,-73.73 -0.32,-22.8 1.96,-50.77 3.28,-70.55 1.38,-20.84 4.23,-41.36 8.52,-61.55 3.1,-14.63 7.87,-27.98 14.3,-40.02 0.49,-0.91 0.2,-2.06 -0.69,-2.61 -4.71,-2.95 -10.26,-6.6 -16.29,-8.94 -16.55,-6.41 -32.33,-13.03 -47.33,-19.87 -0.91,-0.41 -1.96,0.1 -2.17,1.07 -1.48,6.27 -1.96,9.49 -4.17,15.24 -4.37,11.25 -8.76,21.97 -13.19,32.13 -1.21,2.77 -2.41,4.77 -3.58,6.01 -1.4,1.5 -3.8,1.5 -5.2,-0.02l-19.65 -21.06zm-28.95 1.48c-5.71,5.26 -11.57,11.67 -17.54,19.2 -1.4,1.8 -2.93,2.43 -4.53,1.86 -1.15,-0.4 -2.21,-1.74 -3.18,-4.01 -8.13,-18.86 -14.65,-35.57 -19.57,-50.1 -0.34,-1.01 -1.48,-1.5 -2.45,-1.07l-61.85 27.62c-1.21,0.55 -1.8,1.94 -1.32,3.18 1.15,3.01 3.58,9.37 7.28,19.08 2.67,6.96 5.36,16.75 8.07,29.38 1.96,9.11 3.48,19.14 4.59,30.07 3.36,33 5.3,68.27 5.79,105.78 0.16,11.84 -0.3,24.79 -1.34,38.83 -0.59,7.77 -1.26,20.72 -2.02,38.85 -0.65,16.29 -2.15,32.13 -4.03,57.61 -0.41,5.71 -1.88,8.64 4.13,11.27 20.68,9 33.35,14.12 38,15.36 15.32,4.09 32.03,7.45 50.1,10.08 0.67,0.1 1.27,-0.42 1.27,-1.09l0 -351.3c0,-0.71 -0.85,-1.11 -1.38,-0.61zm8.7 354.07l12.42 0c0.85,0 1.54,-0.69 1.54,-1.54l0 -355.77c0,-3.88 -3.1,-7 -6.94,-7l-1.62 0c-3.84,0 -6.94,3.12 -6.94,7l0 355.77c0,0.85 0.69,1.54 1.54,1.54zm136.25 -354.64c-0.1,0.73 -1.82,5.6 -5.16,14.61 -4.75,12.81 -6.94,24.42 -10.84,40.59 -0.77,3.24 -2.14,19.53 -4.05,48.9 -0.55,8.5 -0.14,15.58 1.27,21.23 8.26,33.63 16.67,66.75 25.23,99.33 2.77,10.48 5.87,27.9 9.21,39.68 4.05,14.26 7.49,27.25 10.36,38.97 0.2,0.85 1.01,1.42 1.88,1.31 13.62,-1.72 26.53,-4.55 38.73,-8.48 1.64,-0.53 2.75,-2.06 2.75,-3.78 0.02,-7.08 -0.65,-13.76 -2,-20.05 -5.38,-25.31 -12.46,-70.86 -19.87,-107.89 -3.14,-15.72 -5.42,-27.01 -6.82,-33.87 -7.63,-37.19 -16.87,-72.94 -27.68,-107.24 -2.73,-8.68 -6.43,-17.3 -11.78,-23.65 -0.38,-0.45 -1.13,-0.26 -1.23,0.34zm-259.84 0.36c-0.55,-0.34 -1.25,-0.16 -1.58,0.4 -7.14,11.88 -11.8,21.31 -14.16,34.6 -0.45,2.55 -1.78,6.84 -3.99,12.87 -7.97,21.69 -12.2,47.53 -17.79,68.69 -2.31,8.78 -5.02,21.95 -8.13,39.5 -4.71,26.53 -13.86,65.05 -16.61,86.74 -2.23,17.62 -4.47,31.42 -6.66,41.4 -0.43,2 -0.51,4.71 -0.24,8.13 0.18,2.04 1.64,3.76 3.64,4.25l37.33 9.33c0.63,0.16 1.31,-0.12 1.64,-0.69 1.21,-2.04 2.1,-4.23 2.67,-6.6 11.88,-50.04 24.66,-101.63 38.34,-154.77 1.9,-7.38 4.55,-13.21 5.67,-19.22 1.64,-8.86 0.53,-20.46 -0.08,-31.14 -1.15,-19.81 -4.11,-39.82 -8.92,-60.03 -1.3,-5.52 -2.89,-10.91 -4.75,-16.21 -2.83,-8.11 -5.18,-16.49 -6.39,-17.24zm-72.05 329.02l34.38 7.12c1.32,0.28 2.61,-0.57 2.89,-1.88l4.37 -21.12c0.28,-1.4 0.28,-2.57 0,-2.63l-38.1 -7.91c-0.3,-0.06 -0.77,1.03 -1.05,2.43l-4.37 21.12c-0.28,1.31 0.57,2.59 1.88,2.87zm405.4 -1.23l-3.54 -23.41c-0.22,-1.42 -1.6,-2.37 -2.99,-2.04l-36.38 8.6c-0.69,0.16 -1.13,0.85 -0.99,1.54l4.47 21.87c0.12,0.59 0.63,1.03 1.25,1.05 3.42,0.14 6.03,-0.04 7.83,-0.51 11.07,-2.95 21.08,-5.16 29.99,-6.6 0.24,-0.04 0.4,-0.26 0.36,-0.49z"/>
   <path class="fil1" d="M213.47 9.12c10.36,0.1 21.87,1.13 34.56,3.04 1.03,0.16 1.64,1.21 1.27,2.15l-3.97 10.16c-0.36,0.93 -1.32,1.46 -2.29,1.27 -9.02,-1.78 -18.92,-2.71 -29.7,-2.83 -10.78,-0.12 -20.7,0.61 -29.76,2.19 -0.97,0.16 -1.94,-0.4 -2.25,-1.32l-3.76 -10.24c-0.36,-0.97 0.28,-2 1.3,-2.14 12.73,-1.64 24.26,-2.41 34.6,-2.29zm203.94 393.36c0.04,0.24 -0.12,0.46 -0.36,0.49 -8.92,1.44 -18.92,3.66 -29.99,6.6 -1.8,0.47 -4.41,0.65 -7.83,0.51 -0.61,-0.02 -1.13,-0.45 -1.25,-1.05l-4.47 -21.87c-0.14,-0.69 0.3,-1.38 0.99,-1.54l36.38 -8.6c1.38,-0.34 2.77,0.61 2.99,2.04l3.54 23.41zm-405.4 1.23c-1.3,-0.28 -2.15,-1.56 -1.88,-2.87l4.37 -21.12c0.28,-1.4 0.75,-2.49 1.05,-2.43l38.1 7.91c0.28,0.06 0.28,1.23 0,2.63l-4.37 21.12c-0.28,1.31 -1.56,2.15 -2.89,1.88l-34.38 -7.12zm72.05 -329.02c1.21,0.75 3.56,9.13 6.39,17.24 1.86,5.3 3.44,10.7 4.75,16.21 4.8,20.21 7.77,40.22 8.92,60.03 0.61,10.68 1.72,22.28 0.08,31.14 -1.13,6.01 -3.78,11.84 -5.67,19.22 -13.68,53.15 -26.45,104.73 -38.34,154.77 -0.57,2.37 -1.46,4.57 -2.67,6.6 -0.34,0.57 -1.01,0.85 -1.64,0.69l-37.33 -9.33c-2,-0.49 -3.46,-2.21 -3.64,-4.25 -0.28,-3.42 -0.2,-6.13 0.24,-8.13 2.19,-9.98 4.43,-23.79 6.66,-41.4 2.75,-21.69 11.9,-60.2 16.61,-86.74 3.1,-17.56 5.81,-30.73 8.13,-39.5 5.6,-21.16 9.83,-47 17.79,-68.69 2.21,-6.03 3.54,-10.32 3.99,-12.87 2.35,-13.29 7.02,-22.72 14.16,-34.6 0.34,-0.55 1.03,-0.73 1.58,-0.4zm259.84 -0.36c0.1,-0.59 0.85,-0.79 1.23,-0.34 5.36,6.35 9.06,14.97 11.78,23.65 10.82,34.3 20.05,70.05 27.68,107.24 1.4,6.86 3.68,18.15 6.82,33.87 7.41,37.03 14.49,82.59 19.87,107.89 1.34,6.29 2.02,12.97 2,20.05 0,1.72 -1.11,3.24 -2.75,3.78 -12.2,3.93 -25.11,6.76 -38.73,8.48 -0.87,0.12 -1.68,-0.46 -1.88,-1.31 -2.87,-11.72 -6.31,-24.71 -10.36,-38.97 -3.34,-11.78 -6.45,-29.2 -9.21,-39.68 -8.56,-32.58 -16.96,-65.7 -25.23,-99.33 -1.4,-5.66 -1.82,-12.73 -1.27,-21.23 1.92,-29.36 3.28,-45.65 4.05,-48.9 3.9,-16.17 6.09,-27.78 10.84,-40.59 3.34,-9.02 5.06,-13.88 5.16,-14.61zm-136.25 354.64c-0.85,0 -1.54,-0.69 -1.54,-1.54l0 -355.77c0,-3.88 3.1,-7 6.94,-7l1.62 0c3.84,0 6.94,3.12 6.94,7l0 355.77c0,0.85 -0.69,1.54 -1.54,1.54l-12.42 0zm9.3 -358.69c-1.77,-1.37 -4.38,-0.98 -5.85,0.89 -1.48,1.87 -1.24,4.52 0.53,5.89 1.77,1.37 4.38,0.98 5.85,-0.89 1.48,-1.87 1.24,-4.52 -0.53,-5.89zm-6.41 50.31c-1.83,1.32 -2.06,4.09 -0.54,6.2 1.52,2.1 4.23,2.75 6.06,1.42 1.83,-1.32 2.06,-4.09 0.54,-6.2 -1.52,-2.1 -4.23,-2.75 -6.06,-1.42zm7.58 60.62c0,-2.47 -2,-4.47 -4.47,-4.47 -2.47,0 -4.47,2 -4.47,4.47 0,2.47 2,4.47 4.47,4.47 2.47,0 4.47,-2 4.47,-4.47zm-7.02 52.05c-2.19,1.24 -2.85,4.24 -1.46,6.69 1.38,2.46 4.29,3.43 6.49,2.19 2.19,-1.24 2.85,-4.24 1.47,-6.69 -1.39,-2.46 -4.29,-3.42 -6.49,-2.19zm0.15 58.59c-1.71,0.96 -2.19,3.35 -1.06,5.35 1.11,2.01 3.4,2.86 5.11,1.9 1.71,-0.95 2.19,-3.35 1.07,-5.35 -1.11,-2.01 -3.41,-2.86 -5.11,-1.9zm-0.11 56.85c-5.54,4.01 2.18,9.55 5.3,7.3 3.1,-2.25 0.24,-11.31 -5.3,-7.3zm-12.2 -273.8c0.53,-0.49 1.38,-0.1 1.38,0.61l0 351.3c0,0.67 -0.59,1.19 -1.27,1.09 -18.07,-2.63 -34.78,-5.99 -50.1,-10.08 -4.65,-1.25 -17.32,-6.37 -38,-15.36 -6.01,-2.63 -4.55,-5.56 -4.13,-11.27 1.88,-25.49 3.38,-41.32 4.03,-57.61 0.75,-18.13 1.42,-31.08 2.02,-38.85 1.05,-14.04 1.5,-26.99 1.34,-38.83 -0.49,-37.51 -2.43,-72.78 -5.79,-105.78 -1.11,-10.93 -2.63,-20.96 -4.59,-30.07 -2.71,-12.63 -5.4,-22.42 -8.07,-29.38 -3.7,-9.71 -6.13,-16.07 -7.28,-19.08 -0.47,-1.25 0.12,-2.63 1.32,-3.18l61.85 -27.62c0.97,-0.43 2.12,0.06 2.45,1.07 4.92,14.53 11.45,31.24 19.57,50.1 0.97,2.27 2.04,3.62 3.18,4.01 1.6,0.57 3.12,-0.06 4.53,-1.86 5.97,-7.53 11.82,-13.94 17.54,-19.2zm28.95 -1.48l19.65 21.06c1.4,1.52 3.8,1.52 5.2,0.02 1.17,-1.25 2.37,-3.24 3.58,-6.01 4.43,-10.16 8.82,-20.88 13.19,-32.13 2.21,-5.75 2.69,-8.98 4.17,-15.24 0.22,-0.97 1.26,-1.48 2.17,-1.07 15.01,6.84 30.78,13.46 47.33,19.87 6.03,2.33 11.59,5.99 16.29,8.94 0.89,0.55 1.19,1.7 0.69,2.61 -6.43,12.04 -11.19,25.39 -14.3,40.02 -4.29,20.19 -7.14,40.71 -8.52,61.55 -1.32,19.77 -3.6,47.75 -3.28,70.55 0.42,30.53 1.03,55.1 1.86,73.73 1.01,22.22 5.28,54.02 5.3,81.66 0,0.89 -0.49,1.68 -1.29,2.08 -13.62,6.84 -27.98,12.83 -43.06,17.95 -13.03,4.41 -28.93,7.1 -47.71,8.05 -1.11,0.06 -2.06,-0.83 -2.06,-1.94l0 -351.38c0,-0.4 0.49,-0.59 0.77,-0.3zm-41.74 -41.01c-0.28,-0.53 0.06,-1.17 0.65,-1.25 17.97,-2.45 35.19,-2.41 51.66,0.14 1.9,0.28 2.69,2.59 1.38,3.99l-20.05 21.69c-2.47,2.67 -6.7,2.71 -9.21,0.06 -0.89,-0.95 -6.23,-5.65 -16.02,-14.1 -3.62,-3.12 -6.43,-6.64 -8.42,-10.54zm68.49 -13.13c0.91,-0.73 2.25,-0.53 2.91,0.43l9 13.17c0.79,1.15 1.11,2.57 0.85,3.95 -0.81,4.33 -2.15,9.67 -4.07,15.98 -2.99,9.89 -9.17,20.9 -13.07,31.6 -0.36,0.99 -1.64,1.27 -2.37,0.49l-19.87 -21.33c-0.77,-0.83 -0.83,-2.08 -0.16,-2.95 5.5,-7.22 12.02,-13.88 16.61,-20.96 3.03,-4.71 6.23,-11.09 9.57,-19.18 0.3,-0.71 0.49,-1.11 0.61,-1.21zm-84.27 0.4c0.81,-1.29 2.77,-0.99 3.16,0.49 1.48,5.5 4.03,11.29 7.69,17.38 4.86,8.09 11.65,13.41 20.9,22.3 0.65,0.61 0.65,1.66 0.02,2.29l-22.88 22.88c-0.36,0.36 -0.95,0.26 -1.17,-0.2 -7.02,-15.28 -12.81,-30.17 -17.34,-44.68 -0.71,-2.25 -0.38,-4.71 0.89,-6.72l8.72 -13.74z"/>
  </g>
 </g>
</svg>
